<?xml version="1.0" encoding="UTF-8" standalone="no"?><svg xmlns="http://www.w3.org/2000/svg" xmlns:xlink="http://www.w3.org/1999/xlink" contentScriptType="application/ecmascript" contentStyleType="text/css" height="1210px" preserveAspectRatio="none" style="width:1080px;height:1210px;background:#F2EEE6;" version="1.1" viewBox="0 0 1080 1210" width="1080px" zoomAndPan="magnify"><defs/><g><text fill="#000000" font-family="Noto Sans JP, Helvetica, Arial, Liberation Sans" font-size="18" lengthAdjust="spacing" textLength="148" x="465.5" y="29.4023">Activate an iiidea</text><rect fill="#FFFFFF" height="29.3105" style="stroke:#FFFFFF;stroke-width:1.0;" width="10" x="353.5" y="129.6875"/><line style="stroke:#222222;stroke-width:1.0;" x1="353.5" x2="353.5" y1="129.6875" y2="158.998"/><line style="stroke:#222222;stroke-width:1.0;" x1="363.5" x2="363.5" y1="129.6875" y2="158.998"/><line style="stroke:#222222;stroke-width:1.0;" x1="353.5" x2="363.5" y1="129.6875" y2="129.6875"/><rect fill="#FFFFFF" height="73.9316" style="stroke:#FFFFFF;stroke-width:1.0;" width="10" x="353.5" y="199.9531"/><line style="stroke:#222222;stroke-width:1.0;" x1="353.5" x2="353.5" y1="199.9531" y2="273.8848"/><line style="stroke:#222222;stroke-width:1.0;" x1="363.5" x2="363.5" y1="199.9531" y2="273.8848"/><rect fill="#FFFFFF" height="879.377" style="stroke:#FFFFFF;stroke-width:1.0;" width="10" x="353.5" y="314.8398"/><line style="stroke:#222222;stroke-width:1.0;" x1="353.5" x2="353.5" y1="314.8398" y2="1194.2168"/><line style="stroke:#222222;stroke-width:1.0;" x1="363.5" x2="363.5" y1="314.8398" y2="1194.2168"/><line style="stroke:#222222;stroke-width:1.0;" x1="353.5" x2="363.5" y1="1194.2168" y2="1194.2168"/><rect fill="#FFFFFF" height="8" style="stroke:#FFFFFF;stroke-width:1.0;" width="10" x="779.5" y="150.998"/><line style="stroke:#222222;stroke-width:1.0;" x1="779.5" x2="779.5" y1="150.998" y2="158.998"/><line style="stroke:#222222;stroke-width:1.0;" x1="789.5" x2="789.5" y1="150.998" y2="158.998"/><line style="stroke:#222222;stroke-width:1.0;" x1="779.5" x2="789.5" y1="150.998" y2="150.998"/><rect fill="#FFFFFF" height="73.9316" style="stroke:#FFFFFF;stroke-width:1.0;" width="10" x="779.5" y="199.9531"/><line style="stroke:#222222;stroke-width:1.0;" x1="779.5" x2="779.5" y1="199.9531" y2="273.8848"/><line style="stroke:#222222;stroke-width:1.0;" x1="789.5" x2="789.5" y1="199.9531" y2="273.8848"/><rect fill="#FFFFFF" height="879.377" style="stroke:#FFFFFF;stroke-width:1.0;" width="10" x="779.5" y="314.8398"/><line style="stroke:#222222;stroke-width:1.0;" x1="779.5" x2="779.5" y1="314.8398" y2="1194.2168"/><line style="stroke:#222222;stroke-width:1.0;" x1="789.5" x2="789.5" y1="314.8398" y2="1194.2168"/><line style="stroke:#222222;stroke-width:1.0;" x1="779.5" x2="789.5" y1="1194.2168" y2="1194.2168"/><rect fill="#F3F0F0" height="263.9922" style="stroke:#000000;stroke-width:2.0;" width="992" x="10" y="922.2246"/><rect fill="#F3F0F0" height="217.3711" style="stroke:none;stroke-width:1.0;" width="992" x="10" y="968.8457"/><line style="stroke:#222222;stroke-width:1.0;" x1="38" x2="38" y1="119.6875" y2="158.998"/><line style="stroke:#222222;stroke-width:1.0;stroke-dasharray:1.0,4.0;" x1="38" x2="38" y1="158.998" y2="199.9531"/><line style="stroke:#222222;stroke-width:1.0;" x1="38" x2="38" y1="199.9531" y2="273.8848"/><line style="stroke:#222222;stroke-width:1.0;stroke-dasharray:1.0,4.0;" x1="38" x2="38" y1="273.8848" y2="314.8398"/><line style="stroke:#222222;stroke-width:1.0;" x1="38" x2="38" y1="314.8398" y2="1203.2168"/><line style="stroke:#222222;stroke-width:1.0;" x1="358" x2="358" y1="119.6875" y2="158.998"/><line style="stroke:#222222;stroke-width:1.0;stroke-dasharray:1.0,4.0;" x1="358" x2="358" y1="158.998" y2="199.9531"/><line style="stroke:#222222;stroke-width:1.0;" x1="358" x2="358" y1="199.9531" y2="273.8848"/><line style="stroke:#222222;stroke-width:1.0;stroke-dasharray:1.0,4.0;" x1="358" x2="358" y1="273.8848" y2="314.8398"/><line style="stroke:#222222;stroke-width:1.0;" x1="358" x2="358" y1="314.8398" y2="1203.2168"/><line style="stroke:#222222;stroke-width:1.0;" x1="784" x2="784" y1="119.6875" y2="158.998"/><line style="stroke:#222222;stroke-width:1.0;stroke-dasharray:1.0,4.0;" x1="784" x2="784" y1="158.998" y2="199.9531"/><line style="stroke:#222222;stroke-width:1.0;" x1="784" x2="784" y1="199.9531" y2="273.8848"/><line style="stroke:#222222;stroke-width:1.0;stroke-dasharray:1.0,4.0;" x1="784" x2="784" y1="273.8848" y2="314.8398"/><line style="stroke:#222222;stroke-width:1.0;" x1="784" x2="784" y1="314.8398" y2="1203.2168"/><line style="stroke:#222222;stroke-width:1.0;" x1="1041" x2="1041" y1="119.6875" y2="158.998"/><line style="stroke:#222222;stroke-width:1.0;stroke-dasharray:1.0,4.0;" x1="1041" x2="1041" y1="158.998" y2="199.9531"/><line style="stroke:#222222;stroke-width:1.0;" x1="1041" x2="1041" y1="199.9531" y2="273.8848"/><line style="stroke:#222222;stroke-width:1.0;stroke-dasharray:1.0,4.0;" x1="1041" x2="1041" y1="273.8848" y2="314.8398"/><line style="stroke:#222222;stroke-width:1.0;" x1="1041" x2="1041" y1="314.8398" y2="1203.2168"/><text fill="#000000" font-family="Noto Sans JP, Helvetica, Arial, Liberation Sans" font-size="14" lengthAdjust="spacing" textLength="31" x="20" y="116.7344">User</text><ellipse cx="38.5" cy="50.1992" fill="#EEEEEE" rx="8" ry="8" style="stroke:#000000;stroke-width:2.0;"/><path d="M38.5,58.1992 L38.5,85.1992 M25.5,66.1992 L51.5,66.1992 M38.5,85.1992 L25.5,100.1992 M38.5,85.1992 L51.5,100.1992 " fill="none" style="stroke:#000000;stroke-width:2.0;"/><rect fill="#FFFFFF" height="34.0215" style="stroke:#111111;stroke-width:1.5;" width="87" x="315" y="84.666"/><text fill="#111111" font-family="Noto Sans JP, Helvetica, Arial, Liberation Sans" font-size="17" lengthAdjust="spacing" textLength="73" x="322" y="108.1016">YourApp</text><rect fill="#FFFFFF" height="54.043" style="stroke:#111111;stroke-width:1.5;" width="65" x="752" y="64.6445"/><text fill="#111111" font-family="Noto Sans JP, Helvetica, Arial, Liberation Sans" font-size="17" lengthAdjust="spacing" textLength="51" x="759" y="88.0801">Riiiver</text><text fill="#111111" font-family="Noto Sans JP, Helvetica, Arial, Liberation Sans" font-size="17" lengthAdjust="spacing" textLength="33" x="768" y="108.1016">SDK</text><rect fill="#FFFFFF" height="54.043" style="stroke:#111111;stroke-width:1.5;" width="65" x="1009" y="64.6445"/><text fill="#111111" font-family="Noto Sans JP, Helvetica, Arial, Liberation Sans" font-size="17" lengthAdjust="spacing" textLength="51" x="1016" y="88.0801">Riiiver</text><text fill="#111111" font-family="Noto Sans JP, Helvetica, Arial, Liberation Sans" font-size="17" lengthAdjust="spacing" textLength="49" x="1017" y="108.1016">Cloud</text><rect fill="#FFFFFF" height="29.3105" style="stroke:#FFFFFF;stroke-width:1.0;" width="10" x="353.5" y="129.6875"/><line style="stroke:#222222;stroke-width:1.0;" x1="353.5" x2="353.5" y1="129.6875" y2="158.998"/><line style="stroke:#222222;stroke-width:1.0;" x1="363.5" x2="363.5" y1="129.6875" y2="158.998"/><line style="stroke:#222222;stroke-width:1.0;" x1="353.5" x2="363.5" y1="129.6875" y2="129.6875"/><rect fill="#FFFFFF" height="73.9316" style="stroke:#FFFFFF;stroke-width:1.0;" width="10" x="353.5" y="199.9531"/><line style="stroke:#222222;stroke-width:1.0;" x1="353.5" x2="353.5" y1="199.9531" y2="273.8848"/><line style="stroke:#222222;stroke-width:1.0;" x1="363.5" x2="363.5" y1="199.9531" y2="273.8848"/><rect fill="#FFFFFF" height="879.377" style="stroke:#FFFFFF;stroke-width:1.0;" width="10" x="353.5" y="314.8398"/><line style="stroke:#222222;stroke-width:1.0;" x1="353.5" x2="353.5" y1="314.8398" y2="1194.2168"/><line style="stroke:#222222;stroke-width:1.0;" x1="363.5" x2="363.5" y1="314.8398" y2="1194.2168"/><line style="stroke:#222222;stroke-width:1.0;" x1="353.5" x2="363.5" y1="1194.2168" y2="1194.2168"/><rect fill="#FFFFFF" height="8" style="stroke:#FFFFFF;stroke-width:1.0;" width="10" x="779.5" y="150.998"/><line style="stroke:#222222;stroke-width:1.0;" x1="779.5" x2="779.5" y1="150.998" y2="158.998"/><line style="stroke:#222222;stroke-width:1.0;" x1="789.5" x2="789.5" y1="150.998" y2="158.998"/><line style="stroke:#222222;stroke-width:1.0;" x1="779.5" x2="789.5" y1="150.998" y2="150.998"/><rect fill="#FFFFFF" height="73.9316" style="stroke:#FFFFFF;stroke-width:1.0;" width="10" x="779.5" y="199.9531"/><line style="stroke:#222222;stroke-width:1.0;" x1="779.5" x2="779.5" y1="199.9531" y2="273.8848"/><line style="stroke:#222222;stroke-width:1.0;" x1="789.5" x2="789.5" y1="199.9531" y2="273.8848"/><rect fill="#FFFFFF" height="879.377" style="stroke:#FFFFFF;stroke-width:1.0;" width="10" x="779.5" y="314.8398"/><line style="stroke:#222222;stroke-width:1.0;" x1="779.5" x2="779.5" y1="314.8398" y2="1194.2168"/><line style="stroke:#222222;stroke-width:1.0;" x1="789.5" x2="789.5" y1="314.8398" y2="1194.2168"/><line style="stroke:#222222;stroke-width:1.0;" x1="779.5" x2="789.5" y1="1194.2168" y2="1194.2168"/><polygon fill="#444444" points="767.5,146.998,777.5,150.998,767.5,154.998,771.5,150.998" style="stroke:#444444;stroke-width:1.0;"/><line style="stroke:#444444;stroke-width:1.0;" x1="363.5" x2="773.5" y1="150.998" y2="150.998"/><text fill="#000000" font-family="Noto Sans JP, Helvetica, Arial, Liberation Sans" font-size="13" lengthAdjust="spacing" textLength="298" x="370.5" y="146.2559">ERAuth.getInstance().initialize(Context context)</text><text fill="#000000" font-family="Noto Sans JP, Helvetica, Arial, Liberation Sans" font-size="11" lengthAdjust="spacing" textLength="319" x="380.5" y="183.6328">Logged in - iiidea is an instance of the target ERApplet class</text><polygon fill="#444444" points="341.5,232.5742,351.5,236.5742,341.5,240.5742,345.5,236.5742" style="stroke:#444444;stroke-width:1.0;"/><line style="stroke:#444444;stroke-width:1.0;" x1="38.5" x2="347.5" y1="236.5742" y2="236.5742"/><text fill="#000000" font-family="Noto Sans JP, Helvetica, Arial, Liberation Sans" font-size="13" lengthAdjust="spacing" textLength="168" x="45.5" y="216.5215">Configure the PreferenceUI</text><text fill="#000000" font-family="Noto Sans JP, Helvetica, Arial, Liberation Sans" font-size="13" lengthAdjust="spacing" textLength="75" x="45.5" y="231.832">to the iiidea</text><polygon fill="#444444" points="767.5,261.8848,777.5,265.8848,767.5,269.8848,771.5,265.8848" style="stroke:#444444;stroke-width:1.0;"/><line style="stroke:#444444;stroke-width:1.0;" x1="363.5" x2="773.5" y1="265.8848" y2="265.8848"/><text fill="#000000" font-family="Noto Sans JP, Helvetica, Arial, Liberation Sans" font-size="13" lengthAdjust="spacing" textLength="195" x="370.5" y="261.1426">Update authentication session.</text><text fill="#000000" font-family="Noto Sans JP, Helvetica, Arial, Liberation Sans" font-size="11" lengthAdjust="spacing" textLength="153" x="463.5" y="298.5195">Refer to "Update credentials"</text><path d="M368,319.8398 L368,374.8398 L701,374.8398 L701,329.8398 L691,319.8398 L368,319.8398 " fill="#F9B5AD" style="stroke:#A80036;stroke-width:1.0;"/><path d="M691,319.8398 L691,329.8398 L701,329.8398 L691,319.8398 " fill="#F9B5AD" style="stroke:#A80036;stroke-width:1.0;"/><text fill="#000000" font-family="Noto Sans JP, Helvetica, Arial, Liberation Sans" font-size="13" lengthAdjust="spacing" textLength="312" x="374" y="337.4082">You must set preferences before activating iiidea,</text><text fill="#000000" font-family="Noto Sans JP, Helvetica, Arial, Liberation Sans" font-size="13" lengthAdjust="spacing" textLength="180" x="374" y="352.7188">and calling loadPreferences()</text><text fill="#000000" font-family="Noto Sans JP, Helvetica, Arial, Liberation Sans" font-size="13" lengthAdjust="spacing" textLength="226" x="374" y="368.0293">will cause the preferences to be set.</text><polygon fill="#444444" points="767.5,444.0137,777.5,448.0137,767.5,452.0137,771.5,448.0137" style="stroke:#444444;stroke-width:1.0;"/><line style="stroke:#444444;stroke-width:1.0;" x1="363.5" x2="773.5" y1="448.0137" y2="448.0137"/><text fill="#000000" font-family="Noto Sans JP, Helvetica, Arial, Liberation Sans" font-size="13" lengthAdjust="spacing" textLength="103" x="370.5" y="397.3398">loadPreferences(</text><text fill="#000000" font-family="Noto Sans JP, Helvetica, Arial, Liberation Sans" font-size="13" lengthAdjust="spacing" textLength="103" x="402.5" y="412.6504">ERApplet applet,</text><text fill="#000000" font-family="Noto Sans JP, Helvetica, Arial, Liberation Sans" font-size="13" lengthAdjust="spacing" textLength="112" x="402.5" y="427.9609">URL urlBaseFolder</text><text fill="#000000" font-family="Noto Sans JP, Helvetica, Arial, Liberation Sans" font-size="13" lengthAdjust="spacing" textLength="4" x="370.5" y="443.2715">)</text><polygon fill="#444444" points="374.5,473.3242,364.5,477.3242,374.5,481.3242,370.5,477.3242" style="stroke:#444444;stroke-width:1.0;"/><line style="stroke:#444444;stroke-width:1.0;stroke-dasharray:2.0,2.0;" x1="368.5" x2="778.5" y1="477.3242" y2="477.3242"/><text fill="#000000" font-family="Noto Sans JP, Helvetica, Arial, Liberation Sans" font-size="13" lengthAdjust="spacing" textLength="287" x="380.5" y="472.582">Display the Preference screen in the webView.</text><polygon fill="#444444" points="49.5,502.6348,39.5,506.6348,49.5,510.6348,45.5,506.6348" style="stroke:#444444;stroke-width:1.0;"/><line style="stroke:#444444;stroke-width:1.0;" x1="43.5" x2="352.5" y1="506.6348" y2="506.6348"/><text fill="#000000" font-family="Noto Sans JP, Helvetica, Arial, Liberation Sans" font-size="13" lengthAdjust="spacing" textLength="157" x="55.5" y="501.8926">Display the Preference UI</text><polygon fill="#444444" points="767.5,531.9453,777.5,535.9453,767.5,539.9453,771.5,535.9453" style="stroke:#444444;stroke-width:1.0;"/><line style="stroke:#444444;stroke-width:1.0;stroke-dasharray:2.0,2.0;" x1="38.5" x2="773.5" y1="535.9453" y2="535.9453"/><text fill="#000000" font-family="Noto Sans JP, Helvetica, Arial, Liberation Sans" font-size="13" lengthAdjust="spacing" textLength="158" x="45.5" y="531.2031">Preference UI oprerataion</text><line style="stroke:#444444;stroke-width:1.0;" x1="789.5" x2="831.5" y1="565.2559" y2="565.2559"/><line style="stroke:#444444;stroke-width:1.0;" x1="831.5" x2="831.5" y1="565.2559" y2="578.2559"/><line style="stroke:#444444;stroke-width:1.0;" x1="790.5" x2="831.5" y1="578.2559" y2="578.2559"/><polygon fill="#444444" points="800.5,574.2559,790.5,578.2559,800.5,582.2559,796.5,578.2559" style="stroke:#444444;stroke-width:1.0;"/><text fill="#000000" font-family="Noto Sans JP, Helvetica, Arial, Liberation Sans" font-size="13" lengthAdjust="spacing" textLength="174" x="796.5" y="560.5137">Setting the Preference value</text><polygon fill="#444444" points="800.5,618.877,790.5,622.877,800.5,626.877,796.5,622.877" style="stroke:#444444;stroke-width:1.0;"/><polygon fill="#444444" points="1029.5,618.877,1039.5,622.877,1029.5,626.877,1033.5,622.877" style="stroke:#444444;stroke-width:1.0;"/><line style="stroke:#444444;stroke-width:1.0;stroke-dasharray:2.0,2.0;" x1="794.5" x2="1035.5" y1="622.877" y2="622.877"/><text fill="#000000" font-family="Noto Sans JP, Helvetica, Arial, Liberation Sans" font-size="13" lengthAdjust="spacing" textLength="201" x="806.5" y="602.8242">Processing when iiidea needs to</text><text fill="#000000" font-family="Noto Sans JP, Helvetica, Arial, Liberation Sans" font-size="13" lengthAdjust="spacing" textLength="228" x="806.5" y="618.1348">authenticate with a web service, etc.</text><polygon fill="#444444" points="49.5,648.1875,39.5,652.1875,49.5,656.1875,45.5,652.1875" style="stroke:#444444;stroke-width:1.0;"/><line style="stroke:#444444;stroke-width:1.0;stroke-dasharray:2.0,2.0;" x1="43.5" x2="778.5" y1="652.1875" y2="652.1875"/><text fill="#000000" font-family="Noto Sans JP, Helvetica, Arial, Liberation Sans" font-size="13" lengthAdjust="spacing" textLength="261" x="55.5" y="647.4453">Update the Preference screen with values.</text><polygon fill="#444444" points="341.5,692.8086,351.5,696.8086,341.5,700.8086,345.5,696.8086" style="stroke:#444444;stroke-width:1.0;"/><line style="stroke:#444444;stroke-width:1.0;" x1="38.5" x2="347.5" y1="696.8086" y2="696.8086"/><text fill="#000000" font-family="Noto Sans JP, Helvetica, Arial, Liberation Sans" font-size="13" lengthAdjust="spacing" textLength="154" x="45.5" y="676.7559">Turn on (make available)</text><text fill="#000000" font-family="Noto Sans JP, Helvetica, Arial, Liberation Sans" font-size="13" lengthAdjust="spacing" textLength="62" x="45.5" y="692.0664">the iiidea.</text><polygon fill="#444444" points="767.5,768.0508,777.5,772.0508,767.5,776.0508,771.5,772.0508" style="stroke:#444444;stroke-width:1.0;"/><line style="stroke:#444444;stroke-width:1.0;" x1="363.5" x2="773.5" y1="772.0508" y2="772.0508"/><text fill="#000000" font-family="Noto Sans JP, Helvetica, Arial, Liberation Sans" font-size="13" lengthAdjust="spacing" textLength="91" x="370.5" y="721.377">iiidea.activate(</text><text fill="#000000" font-family="Noto Sans JP, Helvetica, Arial, Liberation Sans" font-size="13" lengthAdjust="spacing" textLength="114" x="402.5" y="736.6875">Contenxt context,</text><text fill="#000000" font-family="Noto Sans JP, Helvetica, Arial, Liberation Sans" font-size="13" lengthAdjust="spacing" textLength="360" x="402.5" y="751.998">Completion2&lt;String[], ERServiceProxyData[]&gt; completion</text><text fill="#000000" font-family="Noto Sans JP, Helvetica, Arial, Liberation Sans" font-size="13" lengthAdjust="spacing" textLength="4" x="402.5" y="767.3086">)</text><polygon fill="#444444" points="800.5,812.6719,790.5,816.6719,800.5,820.6719,796.5,816.6719" style="stroke:#444444;stroke-width:1.0;"/><polygon fill="#444444" points="1029.5,812.6719,1039.5,816.6719,1029.5,820.6719,1033.5,816.6719" style="stroke:#444444;stroke-width:1.0;"/><line style="stroke:#444444;stroke-width:1.0;stroke-dasharray:2.0,2.0;" x1="794.5" x2="1035.5" y1="816.6719" y2="816.6719"/><text fill="#000000" font-family="Noto Sans JP, Helvetica, Arial, Liberation Sans" font-size="13" lengthAdjust="spacing" textLength="201" x="806.5" y="796.6191">Processing when iiidea needs to</text><text fill="#000000" font-family="Noto Sans JP, Helvetica, Arial, Liberation Sans" font-size="13" lengthAdjust="spacing" textLength="228" x="806.5" y="811.9297">authenticate with a web service, etc.</text><polygon fill="#444444" points="374.5,903.2246,364.5,907.2246,374.5,911.2246,370.5,907.2246" style="stroke:#444444;stroke-width:1.0;"/><line style="stroke:#444444;stroke-width:1.0;stroke-dasharray:2.0,2.0;" x1="368.5" x2="778.5" y1="907.2246" y2="907.2246"/><text fill="#000000" font-family="Noto Sans JP, Helvetica, Arial, Liberation Sans" font-size="13" lengthAdjust="spacing" textLength="75" x="380.5" y="841.2402">completion(</text><text fill="#000000" font-family="Noto Sans JP, Helvetica, Arial, Liberation Sans" font-size="13" lengthAdjust="spacing" textLength="49" x="412.5" y="856.5508">String[],</text><text fill="#000000" font-family="Noto Sans JP, Helvetica, Arial, Liberation Sans" font-size="13" lengthAdjust="spacing" textLength="135" x="412.5" y="871.8613">ERServiceProxyData[],</text><text fill="#000000" font-family="Noto Sans JP, Helvetica, Arial, Liberation Sans" font-size="13" lengthAdjust="spacing" textLength="45" x="412.5" y="887.1719">ERError</text><text fill="#000000" font-family="Noto Sans JP, Helvetica, Arial, Liberation Sans" font-size="13" lengthAdjust="spacing" textLength="4" x="380.5" y="902.4824">)</text><path d="M10,922.2246 L72,922.2246 L72,929.2246 L62,939.2246 L10,939.2246 L10,922.2246 " fill="#FFFFFF" style="stroke:#000000;stroke-width:1.0;"/><rect fill="none" height="263.9922" style="stroke:#000000;stroke-width:2.0;" width="992" x="10" y="922.2246"/><text fill="#000000" font-family="Noto Sans JP, Helvetica, Arial, Liberation Sans" font-size="13" font-weight="bold" lengthAdjust="spacing" textLength="17" x="25" y="935.793">alt</text><text fill="#000000" font-family="Noto Sans JP, Helvetica, Arial, Liberation Sans" font-size="11" font-weight="bold" lengthAdjust="spacing" textLength="453" x="87" y="934.8594">[completionのString[] / tERServiceProxyData[] / All ERError are null &lt;success&gt;.]</text><polygon fill="#444444" points="49.5,956.8457,39.5,960.8457,49.5,964.8457,45.5,960.8457" style="stroke:#444444;stroke-width:1.0;"/><line style="stroke:#444444;stroke-width:1.0;stroke-dasharray:2.0,2.0;" x1="43.5" x2="352.5" y1="960.8457" y2="960.8457"/><text fill="#000000" font-family="Noto Sans JP, Helvetica, Arial, Liberation Sans" font-size="13" lengthAdjust="spacing" textLength="291" x="55.5" y="956.1035">Notification that the iiidea has been turned on</text><line style="stroke:#000000;stroke-width:1.0;stroke-dasharray:2.0,2.0;" x1="10" x2="1002" y1="969.8457" y2="969.8457"/><text fill="#000000" font-family="Noto Sans JP, Helvetica, Arial, Liberation Sans" font-size="11" font-weight="bold" lengthAdjust="spacing" textLength="147" x="15" y="980.4805">[Non-null returns &lt;fail&gt;.]</text><path d="M368,988.8008 L368,1151.8008 L992,1151.8008 L992,998.8008 L982,988.8008 L368,988.8008 " fill="#F9B5AD" style="stroke:#A80036;stroke-width:1.0;"/><path d="M982,988.8008 L982,998.8008 L992,998.8008 L982,988.8008 " fill="#F9B5AD" style="stroke:#A80036;stroke-width:1.0;"/><text fill="#000000" font-family="Noto Sans JP, Helvetica, Arial, Liberation Sans" font-size="13" lengthAdjust="spacing" textLength="531" x="374" y="1006.3691">When using external web services or using functions that require authorization such</text><text fill="#000000" font-family="Noto Sans JP, Helvetica, Arial, Liberation Sans" font-size="13" lengthAdjust="spacing" textLength="212" x="374" y="1021.6797">as location information in the OS:</text><text fill="#000000" font-family="Noto Sans JP, Helvetica, Arial, Liberation Sans" font-size="13" lengthAdjust="spacing" textLength="0" x="378" y="1036.9902"/><text fill="#000000" font-family="Noto Sans JP, Helvetica, Arial, Liberation Sans" font-size="13" lengthAdjust="spacing" textLength="587" x="390" y="1052.3008">In case the authentication information required to use external web services is not sufficient:</text><text fill="#000000" font-family="Noto Sans JP, Helvetica, Arial, Liberation Sans" font-size="13" lengthAdjust="spacing" textLength="413" x="406" y="1067.6113">The required list of information is passed to ERServiceProxyData[]</text><text fill="#000000" font-family="Noto Sans JP, Helvetica, Arial, Liberation Sans" font-size="13" lengthAdjust="spacing" textLength="255" x="406" y="1082.9219">of completion as unauthorizedProxyList.</text><text fill="#000000" font-family="Noto Sans JP, Helvetica, Arial, Liberation Sans" font-size="13" lengthAdjust="spacing" textLength="0" x="378" y="1098.2324"/><text fill="#000000" font-family="Noto Sans JP, Helvetica, Arial, Liberation Sans" font-size="13" lengthAdjust="spacing" textLength="405" x="390" y="1113.543">In case the necessary permissions are not obtained from the OS:</text><text fill="#000000" font-family="Noto Sans JP, Helvetica, Arial, Liberation Sans" font-size="13" lengthAdjust="spacing" textLength="416" x="406" y="1128.8535">The required permission list is passed to String[] of completion as</text><text fill="#000000" font-family="Noto Sans JP, Helvetica, Arial, Liberation Sans" font-size="13" lengthAdjust="spacing" textLength="180" x="406" y="1144.1641">UnauthorizedPermissionList.</text><polygon fill="#444444" points="49.5,1174.2168,39.5,1178.2168,49.5,1182.2168,45.5,1178.2168" style="stroke:#444444;stroke-width:1.0;"/><line style="stroke:#444444;stroke-width:1.0;" x1="43.5" x2="352.5" y1="1178.2168" y2="1178.2168"/><text fill="#000000" font-family="Noto Sans JP, Helvetica, Arial, Liberation Sans" font-size="13" lengthAdjust="spacing" textLength="188" x="55.5" y="1173.4746">Prompt for necessary settings</text><!--MD5=[a197d5e2ea262ec0ca8dd54ff7b7a44a]
@startuml
title Activate an iiidea
hide footbox

skinparam DefaultFontName "Noto Sans JP, Helvetica, Arial, Liberation Sans"
skinparam BackgroundColor #F2EEE6
skinparam Shadowing false
skinparam NoteBackgroundColor #F9B5AD
skinparam NodeBorderColor #F26767

skinparam sequence {
ArrowColor #444444
ActorBorderColor Black
LifeLineBorderColor #222222
LifeLineBackgroundColor White
BoxBorderColor #FFFFFF
BoxBackgroundColor #F2fEf6
GroupBackgroundColor #FFFFFF
GroupBodyBackgroundColor #F3F0F0

ParticipantBorderColor #111111
ParticipantBackgroundColor White
ParticipantFontSize 17
ParticipantFontColor #111111
BoundaryBorderColor Gray
ActorBackgroundColor #eeeeee
ActorFontColor Black

}

actor User
participant YourApp as App
participant "Riiiver\nSDK" as ERSDK
participant "Riiiver\nCloud" as Riiiver

activate App

App -> ERSDK: ERAuth.getInstance().initialize(Context context)
activate ERSDK

... Logged in - iiidea is an instance of the target ERApplet class ...

User -> App: Configure the PreferenceUI\nto the iiidea

App -> ERSDK: Update authentication session.
... Refer to "Update credentials" ...
note right of App: You must set preferences before activating iiidea,\nand calling loadPreferences()\nwill cause the preferences to be set.
App -> ERSDK: loadPreferences(\n\tERApplet applet,\n\tURL urlBaseFolder\n)
App <- - ERSDK: Display the Preference screen in the webView.
User <- App: Display the Preference UI
User - -> ERSDK: Preference UI oprerataion
ERSDK -> ERSDK: Setting the Preference value
ERSDK <- -> Riiiver: Processing when iiidea needs to\nauthenticate with a web service, etc.
User <- - ERSDK: Update the Preference screen with values.

User -> App: Turn on (make available)\nthe iiidea.
App -> ERSDK: iiidea.activate(\n\tContenxt context,\n\tCompletion2<String[], ERServiceProxyData[]> completion\n\t)
ERSDK <- -> Riiiver: Processing when iiidea needs to\nauthenticate with a web service, etc.
App <- - ERSDK: completion(\n\tString[],\n\tERServiceProxyData[],\n\tERError\n)
alt completionのString[] / tERServiceProxyData[] / All ERError are null <success>.
    User <- - App: Notification that the iiidea has been turned on
else Non-null returns <fail>.
    note right of App
        When using external web services or using functions that require authorization such
        as location information in the OS:

            In case the authentication information required to use external web services is not sufficient:
                The required list of information is passed to ERServiceProxyData[]
                of completion as unauthorizedProxyList.

            In case the necessary permissions are not obtained from the OS:
                The required permission list is passed to String[] of completion as 
                UnauthorizedPermissionList.
    end note
    App -> User: Prompt for necessary settings
end

@enduml

PlantUML version 1.2021.7(Sun May 23 21:40:07 JST 2021)
(GPL source distribution)
Java Runtime: Java(TM) SE Runtime Environment
JVM: Java HotSpot(TM) 64-Bit Server VM
Default Encoding: UTF-8
Language: ja
Country: JP
--></g></svg>