<?xml version="1.0" encoding="UTF-8" standalone="no"?><svg xmlns="http://www.w3.org/2000/svg" xmlns:xlink="http://www.w3.org/1999/xlink" contentScriptType="application/ecmascript" contentStyleType="text/css" height="588px" preserveAspectRatio="none" style="width:717px;height:588px;background:#F2EEE6;" version="1.1" viewBox="0 0 717 588" width="717px" zoomAndPan="magnify"><defs/><g><text fill="#000000" font-family="Noto Sans JP, Helvetica, Arial, Liberation Sans" font-size="18" lengthAdjust="spacing" textLength="172" x="272" y="29.4023">Get the list of iiidea</text><rect fill="#FFFFFF" height="118.2422" style="stroke:#FFFFFF;stroke-width:1.0;" width="10" x="157.5" y="129.6875"/><line style="stroke:#222222;stroke-width:1.0;" x1="157.5" x2="157.5" y1="129.6875" y2="247.9297"/><line style="stroke:#222222;stroke-width:1.0;" x1="167.5" x2="167.5" y1="129.6875" y2="247.9297"/><line style="stroke:#222222;stroke-width:1.0;" x1="157.5" x2="167.5" y1="129.6875" y2="129.6875"/><rect fill="#FFFFFF" height="283.3711" style="stroke:#FFFFFF;stroke-width:1.0;" width="10" x="157.5" y="288.8848"/><line style="stroke:#222222;stroke-width:1.0;" x1="157.5" x2="157.5" y1="288.8848" y2="572.2559"/><line style="stroke:#222222;stroke-width:1.0;" x1="167.5" x2="167.5" y1="288.8848" y2="572.2559"/><line style="stroke:#222222;stroke-width:1.0;" x1="157.5" x2="167.5" y1="572.2559" y2="572.2559"/><rect fill="#FFFFFF" height="96.9316" style="stroke:#FFFFFF;stroke-width:1.0;" width="10" x="498.5" y="150.998"/><line style="stroke:#222222;stroke-width:1.0;" x1="498.5" x2="498.5" y1="150.998" y2="247.9297"/><line style="stroke:#222222;stroke-width:1.0;" x1="508.5" x2="508.5" y1="150.998" y2="247.9297"/><line style="stroke:#222222;stroke-width:1.0;" x1="498.5" x2="508.5" y1="150.998" y2="150.998"/><rect fill="#FFFFFF" height="283.3711" style="stroke:#FFFFFF;stroke-width:1.0;" width="10" x="498.5" y="288.8848"/><line style="stroke:#222222;stroke-width:1.0;" x1="498.5" x2="498.5" y1="288.8848" y2="572.2559"/><line style="stroke:#222222;stroke-width:1.0;" x1="508.5" x2="508.5" y1="288.8848" y2="572.2559"/><line style="stroke:#222222;stroke-width:1.0;" x1="498.5" x2="508.5" y1="572.2559" y2="572.2559"/><rect fill="#F3F0F0" height="58.2656" style="stroke:#000000;stroke-width:2.0;" width="410" x="30" y="230.6191"/><line style="stroke:#222222;stroke-width:1.0;" x1="38" x2="38" y1="119.6875" y2="247.9297"/><line style="stroke:#222222;stroke-width:1.0;stroke-dasharray:1.0,4.0;" x1="38" x2="38" y1="247.9297" y2="288.8848"/><line style="stroke:#222222;stroke-width:1.0;" x1="38" x2="38" y1="288.8848" y2="581.2559"/><line style="stroke:#222222;stroke-width:1.0;" x1="162" x2="162" y1="119.6875" y2="247.9297"/><line style="stroke:#222222;stroke-width:1.0;stroke-dasharray:1.0,4.0;" x1="162" x2="162" y1="247.9297" y2="288.8848"/><line style="stroke:#222222;stroke-width:1.0;" x1="162" x2="162" y1="288.8848" y2="581.2559"/><line style="stroke:#222222;stroke-width:1.0;" x1="503" x2="503" y1="119.6875" y2="247.9297"/><line style="stroke:#222222;stroke-width:1.0;stroke-dasharray:1.0,4.0;" x1="503" x2="503" y1="247.9297" y2="288.8848"/><line style="stroke:#222222;stroke-width:1.0;" x1="503" x2="503" y1="288.8848" y2="581.2559"/><line style="stroke:#222222;stroke-width:1.0;" x1="678" x2="678" y1="119.6875" y2="247.9297"/><line style="stroke:#222222;stroke-width:1.0;stroke-dasharray:1.0,4.0;" x1="678" x2="678" y1="247.9297" y2="288.8848"/><line style="stroke:#222222;stroke-width:1.0;" x1="678" x2="678" y1="288.8848" y2="581.2559"/><text fill="#000000" font-family="Noto Sans JP, Helvetica, Arial, Liberation Sans" font-size="14" lengthAdjust="spacing" textLength="31" x="20" y="116.7344">User</text><ellipse cx="38.5" cy="50.1992" fill="#EEEEEE" rx="8" ry="8" style="stroke:#000000;stroke-width:2.0;"/><path d="M38.5,58.1992 L38.5,85.1992 M25.5,66.1992 L51.5,66.1992 M38.5,85.1992 L25.5,100.1992 M38.5,85.1992 L51.5,100.1992 " fill="none" style="stroke:#000000;stroke-width:2.0;"/><rect fill="#FFFFFF" height="34.0215" style="stroke:#111111;stroke-width:1.5;" width="87" x="119" y="84.666"/><text fill="#111111" font-family="Noto Sans JP, Helvetica, Arial, Liberation Sans" font-size="17" lengthAdjust="spacing" textLength="73" x="126" y="108.1016">YourApp</text><rect fill="#FFFFFF" height="54.043" style="stroke:#111111;stroke-width:1.5;" width="65" x="471" y="64.6445"/><text fill="#111111" font-family="Noto Sans JP, Helvetica, Arial, Liberation Sans" font-size="17" lengthAdjust="spacing" textLength="51" x="478" y="88.0801">Riiiver</text><text fill="#111111" font-family="Noto Sans JP, Helvetica, Arial, Liberation Sans" font-size="17" lengthAdjust="spacing" textLength="33" x="487" y="108.1016">SDK</text><rect fill="#FFFFFF" height="54.043" style="stroke:#111111;stroke-width:1.5;" width="65" x="646" y="64.6445"/><text fill="#111111" font-family="Noto Sans JP, Helvetica, Arial, Liberation Sans" font-size="17" lengthAdjust="spacing" textLength="51" x="653" y="88.0801">Riiiver</text><text fill="#111111" font-family="Noto Sans JP, Helvetica, Arial, Liberation Sans" font-size="17" lengthAdjust="spacing" textLength="49" x="654" y="108.1016">Cloud</text><rect fill="#FFFFFF" height="118.2422" style="stroke:#FFFFFF;stroke-width:1.0;" width="10" x="157.5" y="129.6875"/><line style="stroke:#222222;stroke-width:1.0;" x1="157.5" x2="157.5" y1="129.6875" y2="247.9297"/><line style="stroke:#222222;stroke-width:1.0;" x1="167.5" x2="167.5" y1="129.6875" y2="247.9297"/><line style="stroke:#222222;stroke-width:1.0;" x1="157.5" x2="167.5" y1="129.6875" y2="129.6875"/><rect fill="#FFFFFF" height="283.3711" style="stroke:#FFFFFF;stroke-width:1.0;" width="10" x="157.5" y="288.8848"/><line style="stroke:#222222;stroke-width:1.0;" x1="157.5" x2="157.5" y1="288.8848" y2="572.2559"/><line style="stroke:#222222;stroke-width:1.0;" x1="167.5" x2="167.5" y1="288.8848" y2="572.2559"/><line style="stroke:#222222;stroke-width:1.0;" x1="157.5" x2="167.5" y1="572.2559" y2="572.2559"/><rect fill="#FFFFFF" height="96.9316" style="stroke:#FFFFFF;stroke-width:1.0;" width="10" x="498.5" y="150.998"/><line style="stroke:#222222;stroke-width:1.0;" x1="498.5" x2="498.5" y1="150.998" y2="247.9297"/><line style="stroke:#222222;stroke-width:1.0;" x1="508.5" x2="508.5" y1="150.998" y2="247.9297"/><line style="stroke:#222222;stroke-width:1.0;" x1="498.5" x2="508.5" y1="150.998" y2="150.998"/><rect fill="#FFFFFF" height="283.3711" style="stroke:#FFFFFF;stroke-width:1.0;" width="10" x="498.5" y="288.8848"/><line style="stroke:#222222;stroke-width:1.0;" x1="498.5" x2="498.5" y1="288.8848" y2="572.2559"/><line style="stroke:#222222;stroke-width:1.0;" x1="508.5" x2="508.5" y1="288.8848" y2="572.2559"/><line style="stroke:#222222;stroke-width:1.0;" x1="498.5" x2="508.5" y1="572.2559" y2="572.2559"/><polygon fill="#444444" points="486.5,146.998,496.5,150.998,486.5,154.998,490.5,150.998" style="stroke:#444444;stroke-width:1.0;"/><line style="stroke:#444444;stroke-width:1.0;" x1="167.5" x2="492.5" y1="150.998" y2="150.998"/><text fill="#000000" font-family="Noto Sans JP, Helvetica, Arial, Liberation Sans" font-size="13" lengthAdjust="spacing" textLength="298" x="174.5" y="146.2559">ERAuth.getInstance().initialize(Context context)</text><polygon fill="#444444" points="486.5,186.9639,496.5,190.9639,486.5,194.9639,490.5,190.9639" style="stroke:#444444;stroke-width:1.0;"/><line style="stroke:#444444;stroke-width:1.0;" x1="167.5" x2="492.5" y1="190.9639" y2="190.9639"/><text fill="#000000" font-family="Noto Sans JP, Helvetica, Arial, Liberation Sans" font-size="13" lengthAdjust="spacing" textLength="203" x="174.5" y="186.2217">ERAuth.getInstance().isLoggedIn</text><path d="M11,163.998 L11,203.998 L152,203.998 L152,173.998 L142,163.998 L11,163.998 " fill="#F9B5AD" style="stroke:#A80036;stroke-width:1.0;"/><path d="M142,163.998 L142,173.998 L152,173.998 L142,163.998 " fill="#F9B5AD" style="stroke:#A80036;stroke-width:1.0;"/><text fill="#000000" font-family="Noto Sans JP, Helvetica, Arial, Liberation Sans" font-size="13" lengthAdjust="spacing" textLength="120" x="17" y="181.5664">Make sure the User</text><text fill="#000000" font-family="Noto Sans JP, Helvetica, Arial, Liberation Sans" font-size="13" lengthAdjust="spacing" textLength="78" x="17" y="196.877">is logged in.</text><polygon fill="#444444" points="178.5,211.6191,168.5,215.6191,178.5,219.6191,174.5,215.6191" style="stroke:#444444;stroke-width:1.0;"/><line style="stroke:#444444;stroke-width:1.0;stroke-dasharray:2.0,2.0;" x1="172.5" x2="497.5" y1="215.6191" y2="215.6191"/><path d="M30,230.6191 L92,230.6191 L92,237.6191 L82,247.6191 L30,247.6191 L30,230.6191 " fill="#FFFFFF" style="stroke:#000000;stroke-width:1.0;"/><rect fill="none" height="58.2656" style="stroke:#000000;stroke-width:2.0;" width="410" x="30" y="230.6191"/><text fill="#000000" font-family="Noto Sans JP, Helvetica, Arial, Liberation Sans" font-size="13" font-weight="bold" lengthAdjust="spacing" textLength="17" x="45" y="244.1875">alt</text><text fill="#000000" font-family="Noto Sans JP, Helvetica, Arial, Liberation Sans" font-size="11" font-weight="bold" lengthAdjust="spacing" textLength="328" x="107" y="243.2539">[ERAuth.getInstance().isLoggedIn == false (Not logged in)]</text><text fill="#000000" font-family="Noto Sans JP, Helvetica, Arial, Liberation Sans" font-size="11" lengthAdjust="spacing" textLength="225" x="207" y="272.5645">Login process &lt;see Logging in to Riiiver&gt;</text><polygon fill="#444444" points="486.5,359.127,496.5,363.127,486.5,367.127,490.5,363.127" style="stroke:#444444;stroke-width:1.0;"/><line style="stroke:#444444;stroke-width:1.0;" x1="167.5" x2="492.5" y1="363.127" y2="363.127"/><text fill="#000000" font-family="Noto Sans JP, Helvetica, Arial, Liberation Sans" font-size="13" lengthAdjust="spacing" textLength="219" x="174.5" y="312.4531">ERSDK.getInstance().getMyApplets(</text><text fill="#000000" font-family="Noto Sans JP, Helvetica, Arial, Liberation Sans" font-size="13" lengthAdjust="spacing" textLength="112" x="206.5" y="327.7637">String[] deviceIds,</text><text fill="#000000" font-family="Noto Sans JP, Helvetica, Arial, Liberation Sans" font-size="13" lengthAdjust="spacing" textLength="275" x="206.5" y="343.0742">Completion1&lt;List&lt;ERApplet&gt;&gt; completion</text><text fill="#000000" font-family="Noto Sans JP, Helvetica, Arial, Liberation Sans" font-size="13" lengthAdjust="spacing" textLength="4" x="174.5" y="358.3848">)</text><polygon fill="#444444" points="519.5,403.748,509.5,407.748,519.5,411.748,515.5,407.748" style="stroke:#444444;stroke-width:1.0;"/><polygon fill="#444444" points="666.5,403.748,676.5,407.748,666.5,411.748,670.5,407.748" style="stroke:#444444;stroke-width:1.0;"/><line style="stroke:#444444;stroke-width:1.0;" x1="513.5" x2="672.5" y1="407.748" y2="407.748"/><text fill="#000000" font-family="Noto Sans JP, Helvetica, Arial, Liberation Sans" font-size="13" lengthAdjust="spacing" textLength="146" x="525.5" y="387.6953">Get the list of iiidea for</text><text fill="#000000" font-family="Noto Sans JP, Helvetica, Arial, Liberation Sans" font-size="13" lengthAdjust="spacing" textLength="141" x="525.5" y="403.0059">the specified device id</text><polygon fill="#444444" points="178.5,433.0586,168.5,437.0586,178.5,441.0586,174.5,437.0586" style="stroke:#444444;stroke-width:1.0;"/><line style="stroke:#444444;stroke-width:1.0;stroke-dasharray:2.0,2.0;" x1="172.5" x2="497.5" y1="437.0586" y2="437.0586"/><text fill="#000000" font-family="Noto Sans JP, Helvetica, Arial, Liberation Sans" font-size="13" lengthAdjust="spacing" textLength="216" x="184.5" y="432.3164">completion(List&lt;ERApplet&gt;, error)</text><polygon fill="#444444" points="49.5,501.9902,39.5,505.9902,49.5,509.9902,45.5,505.9902" style="stroke:#444444;stroke-width:1.0;"/><line style="stroke:#444444;stroke-width:1.0;stroke-dasharray:2.0,2.0;" x1="43.5" x2="156.5" y1="505.9902" y2="505.9902"/><text fill="#000000" font-family="Noto Sans JP, Helvetica, Arial, Liberation Sans" font-size="13" lengthAdjust="spacing" textLength="95" x="55.5" y="485.9375">Display the list</text><text fill="#000000" font-family="Noto Sans JP, Helvetica, Arial, Liberation Sans" font-size="13" lengthAdjust="spacing" textLength="51" x="55.5" y="501.248">of iiidea</text><line style="stroke:#444444;stroke-width:1.0;" x1="167.5" x2="209.5" y1="550.2559" y2="550.2559"/><line style="stroke:#444444;stroke-width:1.0;" x1="209.5" x2="209.5" y1="550.2559" y2="563.2559"/><line style="stroke:#444444;stroke-width:1.0;" x1="168.5" x2="209.5" y1="563.2559" y2="563.2559"/><polygon fill="#444444" points="178.5,559.2559,168.5,563.2559,178.5,567.2559,174.5,563.2559" style="stroke:#444444;stroke-width:1.0;"/><text fill="#000000" font-family="Noto Sans JP, Helvetica, Arial, Liberation Sans" font-size="13" lengthAdjust="spacing" textLength="89" x="174.5" y="545.5137">Error handling</text><!--MD5=[80c2b6576c38d922d5d35ab9f2cf489c]
@startuml
title Get the list of iiidea
hide footbox

skinparam DefaultFontName "Noto Sans JP, Helvetica, Arial, Liberation Sans"
skinparam BackgroundColor #F2EEE6
skinparam Shadowing false
skinparam NoteBackgroundColor #F9B5AD
skinparam NodeBorderColor #F26767

skinparam sequence {
ArrowColor #444444
ActorBorderColor Black
LifeLineBorderColor #222222
LifeLineBackgroundColor White
BoxBorderColor #FFFFFF
BoxBackgroundColor #F2fEf6
GroupBackgroundColor #FFFFFF
GroupBodyBackgroundColor #F3F0F0

ParticipantBorderColor #111111
ParticipantBackgroundColor White
ParticipantFontSize 17
ParticipantFontColor #111111
BoundaryBorderColor Gray
ActorBackgroundColor #eeeeee
ActorFontColor Black

}

actor User
participant YourApp as App
participant "Riiiver\nSDK" as ERSDK
participant "Riiiver\nCloud" as Riiiver

activate App

App -> ERSDK: ERAuth.getInstance().initialize(Context context)
activate ERSDK

App -> ERSDK: ERAuth.getInstance().isLoggedIn
note left: Make sure the User\nis logged in.
ERSDK - -> App:

alt ERAuth.getInstance().isLoggedIn == false (Not logged in)
    ... Login process <see Logging in to Riiiver>                           ...
end

App -> ERSDK: ERSDK.getInstance().getMyApplets(\n\tString[] deviceIds,\n\tCompletion1<List<ERApplet>> completion\n)
ERSDK <-> Riiiver: Get the list of iiidea for\nthe specified device id
App <- - ERSDK: completion(List<ERApplet>, error)
alt The error of completion is null <successful acquisition>
    User <- - App: Display the list\nof iiidea
else error != null <Acquisition failure>
    App -> App: Error handling

@enduml

PlantUML version 1.2021.7(Sun May 23 21:40:07 JST 2021)
(GPL source distribution)
Java Runtime: Java(TM) SE Runtime Environment
JVM: Java HotSpot(TM) 64-Bit Server VM
Default Encoding: UTF-8
Language: ja
Country: JP
--></g></svg>