<?xml version="1.0" encoding="UTF-8" standalone="no"?><svg xmlns="http://www.w3.org/2000/svg" xmlns:xlink="http://www.w3.org/1999/xlink" contentScriptType="application/ecmascript" contentStyleType="text/css" height="595px" preserveAspectRatio="none" style="width:670px;height:595px;background:#F2EEE6;" version="1.1" viewBox="0 0 670 595" width="670px" zoomAndPan="magnify"><defs/><g><text fill="#000000" font-family="Noto Sans JP, Helvetica, Arial, Liberation Sans" font-size="18" lengthAdjust="spacing" textLength="172" x="248.5" y="29.4023">iiidea一覧を取得する</text><rect fill="#FFFFFF" height="118.2422" style="stroke:#FFFFFF;stroke-width:1.0;" width="10" x="135.5" y="129.6875"/><line style="stroke:#222222;stroke-width:1.0;" x1="135.5" x2="135.5" y1="129.6875" y2="247.9297"/><line style="stroke:#222222;stroke-width:1.0;" x1="145.5" x2="145.5" y1="129.6875" y2="247.9297"/><line style="stroke:#222222;stroke-width:1.0;" x1="135.5" x2="145.5" y1="129.6875" y2="129.6875"/><rect fill="#FFFFFF" height="290.3711" style="stroke:#FFFFFF;stroke-width:1.0;" width="10" x="135.5" y="288.8848"/><line style="stroke:#222222;stroke-width:1.0;" x1="135.5" x2="135.5" y1="288.8848" y2="579.2559"/><line style="stroke:#222222;stroke-width:1.0;" x1="145.5" x2="145.5" y1="288.8848" y2="579.2559"/><line style="stroke:#222222;stroke-width:1.0;" x1="135.5" x2="145.5" y1="579.2559" y2="579.2559"/><rect fill="#FFFFFF" height="96.9316" style="stroke:#FFFFFF;stroke-width:1.0;" width="10" x="476.5" y="150.998"/><line style="stroke:#222222;stroke-width:1.0;" x1="476.5" x2="476.5" y1="150.998" y2="247.9297"/><line style="stroke:#222222;stroke-width:1.0;" x1="486.5" x2="486.5" y1="150.998" y2="247.9297"/><line style="stroke:#222222;stroke-width:1.0;" x1="476.5" x2="486.5" y1="150.998" y2="150.998"/><rect fill="#FFFFFF" height="290.3711" style="stroke:#FFFFFF;stroke-width:1.0;" width="10" x="476.5" y="288.8848"/><line style="stroke:#222222;stroke-width:1.0;" x1="476.5" x2="476.5" y1="288.8848" y2="579.2559"/><line style="stroke:#222222;stroke-width:1.0;" x1="486.5" x2="486.5" y1="288.8848" y2="579.2559"/><line style="stroke:#222222;stroke-width:1.0;" x1="476.5" x2="486.5" y1="579.2559" y2="579.2559"/><rect fill="#F3F0F0" height="58.2656" style="stroke:#000000;stroke-width:2.0;" width="389" x="30" y="230.6191"/><rect fill="#F3F0F0" height="119.1973" style="stroke:#000000;stroke-width:2.0;" width="291" x="10" y="452.0586"/><rect fill="#F3F0F0" height="57.2656" style="stroke:none;stroke-width:1.0;" width="291" x="10" y="513.9902"/><line style="stroke:#222222;stroke-width:1.0;" x1="38" x2="38" y1="119.6875" y2="247.9297"/><line style="stroke:#222222;stroke-width:1.0;stroke-dasharray:1.0,4.0;" x1="38" x2="38" y1="247.9297" y2="288.8848"/><line style="stroke:#222222;stroke-width:1.0;" x1="38" x2="38" y1="288.8848" y2="588.2559"/><line style="stroke:#222222;stroke-width:1.0;" x1="140" x2="140" y1="119.6875" y2="247.9297"/><line style="stroke:#222222;stroke-width:1.0;stroke-dasharray:1.0,4.0;" x1="140" x2="140" y1="247.9297" y2="288.8848"/><line style="stroke:#222222;stroke-width:1.0;" x1="140" x2="140" y1="288.8848" y2="588.2559"/><line style="stroke:#222222;stroke-width:1.0;" x1="481" x2="481" y1="119.6875" y2="247.9297"/><line style="stroke:#222222;stroke-width:1.0;stroke-dasharray:1.0,4.0;" x1="481" x2="481" y1="247.9297" y2="288.8848"/><line style="stroke:#222222;stroke-width:1.0;" x1="481" x2="481" y1="288.8848" y2="588.2559"/><line style="stroke:#222222;stroke-width:1.0;" x1="631" x2="631" y1="119.6875" y2="247.9297"/><line style="stroke:#222222;stroke-width:1.0;stroke-dasharray:1.0,4.0;" x1="631" x2="631" y1="247.9297" y2="288.8848"/><line style="stroke:#222222;stroke-width:1.0;" x1="631" x2="631" y1="288.8848" y2="588.2559"/><text fill="#000000" font-family="Noto Sans JP, Helvetica, Arial, Liberation Sans" font-size="14" lengthAdjust="spacing" textLength="31" x="20" y="116.7344">User</text><ellipse cx="38.5" cy="50.1992" fill="#EEEEEE" rx="8" ry="8" style="stroke:#000000;stroke-width:2.0;"/><path d="M38.5,58.1992 L38.5,85.1992 M25.5,66.1992 L51.5,66.1992 M38.5,85.1992 L25.5,100.1992 M38.5,85.1992 L51.5,100.1992 " fill="none" style="stroke:#000000;stroke-width:2.0;"/><rect fill="#FFFFFF" height="34.0215" style="stroke:#111111;stroke-width:1.5;" width="87" x="97" y="84.666"/><text fill="#111111" font-family="Noto Sans JP, Helvetica, Arial, Liberation Sans" font-size="17" lengthAdjust="spacing" textLength="73" x="104" y="108.1016">YourApp</text><rect fill="#FFFFFF" height="54.043" style="stroke:#111111;stroke-width:1.5;" width="65" x="449" y="64.6445"/><text fill="#111111" font-family="Noto Sans JP, Helvetica, Arial, Liberation Sans" font-size="17" lengthAdjust="spacing" textLength="51" x="456" y="88.0801">Riiiver</text><text fill="#111111" font-family="Noto Sans JP, Helvetica, Arial, Liberation Sans" font-size="17" lengthAdjust="spacing" textLength="33" x="465" y="108.1016">SDK</text><rect fill="#FFFFFF" height="54.043" style="stroke:#111111;stroke-width:1.5;" width="65" x="599" y="64.6445"/><text fill="#111111" font-family="Noto Sans JP, Helvetica, Arial, Liberation Sans" font-size="17" lengthAdjust="spacing" textLength="51" x="606" y="88.0801">Riiiver</text><text fill="#111111" font-family="Noto Sans JP, Helvetica, Arial, Liberation Sans" font-size="17" lengthAdjust="spacing" textLength="49" x="607" y="108.1016">Cloud</text><rect fill="#FFFFFF" height="118.2422" style="stroke:#FFFFFF;stroke-width:1.0;" width="10" x="135.5" y="129.6875"/><line style="stroke:#222222;stroke-width:1.0;" x1="135.5" x2="135.5" y1="129.6875" y2="247.9297"/><line style="stroke:#222222;stroke-width:1.0;" x1="145.5" x2="145.5" y1="129.6875" y2="247.9297"/><line style="stroke:#222222;stroke-width:1.0;" x1="135.5" x2="145.5" y1="129.6875" y2="129.6875"/><rect fill="#FFFFFF" height="290.3711" style="stroke:#FFFFFF;stroke-width:1.0;" width="10" x="135.5" y="288.8848"/><line style="stroke:#222222;stroke-width:1.0;" x1="135.5" x2="135.5" y1="288.8848" y2="579.2559"/><line style="stroke:#222222;stroke-width:1.0;" x1="145.5" x2="145.5" y1="288.8848" y2="579.2559"/><line style="stroke:#222222;stroke-width:1.0;" x1="135.5" x2="145.5" y1="579.2559" y2="579.2559"/><rect fill="#FFFFFF" height="96.9316" style="stroke:#FFFFFF;stroke-width:1.0;" width="10" x="476.5" y="150.998"/><line style="stroke:#222222;stroke-width:1.0;" x1="476.5" x2="476.5" y1="150.998" y2="247.9297"/><line style="stroke:#222222;stroke-width:1.0;" x1="486.5" x2="486.5" y1="150.998" y2="247.9297"/><line style="stroke:#222222;stroke-width:1.0;" x1="476.5" x2="486.5" y1="150.998" y2="150.998"/><rect fill="#FFFFFF" height="290.3711" style="stroke:#FFFFFF;stroke-width:1.0;" width="10" x="476.5" y="288.8848"/><line style="stroke:#222222;stroke-width:1.0;" x1="476.5" x2="476.5" y1="288.8848" y2="579.2559"/><line style="stroke:#222222;stroke-width:1.0;" x1="486.5" x2="486.5" y1="288.8848" y2="579.2559"/><line style="stroke:#222222;stroke-width:1.0;" x1="476.5" x2="486.5" y1="579.2559" y2="579.2559"/><polygon fill="#444444" points="464.5,146.998,474.5,150.998,464.5,154.998,468.5,150.998" style="stroke:#444444;stroke-width:1.0;"/><line style="stroke:#444444;stroke-width:1.0;" x1="145.5" x2="470.5" y1="150.998" y2="150.998"/><text fill="#000000" font-family="Noto Sans JP, Helvetica, Arial, Liberation Sans" font-size="13" lengthAdjust="spacing" textLength="298" x="152.5" y="146.2559">ERAuth.getInstance().initialize(Context context)</text><polygon fill="#444444" points="464.5,186.9639,474.5,190.9639,464.5,194.9639,468.5,190.9639" style="stroke:#444444;stroke-width:1.0;"/><line style="stroke:#444444;stroke-width:1.0;" x1="145.5" x2="470.5" y1="190.9639" y2="190.9639"/><text fill="#000000" font-family="Noto Sans JP, Helvetica, Arial, Liberation Sans" font-size="13" lengthAdjust="spacing" textLength="203" x="152.5" y="186.2217">ERAuth.getInstance().isLoggedIn</text><path d="M18,163.998 L18,203.998 L130,203.998 L130,173.998 L120,163.998 L18,163.998 " fill="#F9B5AD" style="stroke:#A80036;stroke-width:1.0;"/><path d="M120,163.998 L120,173.998 L130,173.998 L120,163.998 " fill="#F9B5AD" style="stroke:#A80036;stroke-width:1.0;"/><text fill="#000000" font-family="Noto Sans JP, Helvetica, Arial, Liberation Sans" font-size="13" lengthAdjust="spacing" textLength="91" x="24" y="181.5664">ログイン済みか</text><text fill="#000000" font-family="Noto Sans JP, Helvetica, Arial, Liberation Sans" font-size="13" lengthAdjust="spacing" textLength="65" x="24" y="196.877">確認する。</text><polygon fill="#444444" points="156.5,211.6191,146.5,215.6191,156.5,219.6191,152.5,215.6191" style="stroke:#444444;stroke-width:1.0;"/><line style="stroke:#444444;stroke-width:1.0;stroke-dasharray:2.0,2.0;" x1="150.5" x2="475.5" y1="215.6191" y2="215.6191"/><path d="M30,230.6191 L92,230.6191 L92,237.6191 L82,247.6191 L30,247.6191 L30,230.6191 " fill="#FFFFFF" style="stroke:#000000;stroke-width:1.0;"/><rect fill="none" height="58.2656" style="stroke:#000000;stroke-width:2.0;" width="389" x="30" y="230.6191"/><text fill="#000000" font-family="Noto Sans JP, Helvetica, Arial, Liberation Sans" font-size="13" font-weight="bold" lengthAdjust="spacing" textLength="17" x="45" y="244.1875">alt</text><text fill="#000000" font-family="Noto Sans JP, Helvetica, Arial, Liberation Sans" font-size="11" font-weight="bold" lengthAdjust="spacing" textLength="307" x="107" y="243.2539">[ERAuth.getInstance().isLoggedIn == false (未ログイン)]</text><text fill="#000000" font-family="Noto Sans JP, Helvetica, Arial, Liberation Sans" font-size="11" lengthAdjust="spacing" textLength="230" x="181" y="272.5645">ログイン処理 &lt;Riiiverへログインするを参照&gt;</text><polygon fill="#444444" points="464.5,359.127,474.5,363.127,464.5,367.127,468.5,363.127" style="stroke:#444444;stroke-width:1.0;"/><line style="stroke:#444444;stroke-width:1.0;" x1="145.5" x2="470.5" y1="363.127" y2="363.127"/><text fill="#000000" font-family="Noto Sans JP, Helvetica, Arial, Liberation Sans" font-size="13" lengthAdjust="spacing" textLength="219" x="152.5" y="312.4531">ERSDK.getInstance().getMyApplets(</text><text fill="#000000" font-family="Noto Sans JP, Helvetica, Arial, Liberation Sans" font-size="13" lengthAdjust="spacing" textLength="112" x="184.5" y="327.7637">String[] deviceIds,</text><text fill="#000000" font-family="Noto Sans JP, Helvetica, Arial, Liberation Sans" font-size="13" lengthAdjust="spacing" textLength="275" x="184.5" y="343.0742">Completion1&lt;List&lt;ERApplet&gt;&gt; completion</text><text fill="#000000" font-family="Noto Sans JP, Helvetica, Arial, Liberation Sans" font-size="13" lengthAdjust="spacing" textLength="4" x="152.5" y="358.3848">)</text><polygon fill="#444444" points="497.5,403.748,487.5,407.748,497.5,411.748,493.5,407.748" style="stroke:#444444;stroke-width:1.0;"/><polygon fill="#444444" points="619.5,403.748,629.5,407.748,619.5,411.748,623.5,407.748" style="stroke:#444444;stroke-width:1.0;"/><line style="stroke:#444444;stroke-width:1.0;" x1="491.5" x2="625.5" y1="407.748" y2="407.748"/><text fill="#000000" font-family="Noto Sans JP, Helvetica, Arial, Liberation Sans" font-size="13" lengthAdjust="spacing" textLength="121" x="503.5" y="387.6953">指定したdevice idの</text><text fill="#000000" font-family="Noto Sans JP, Helvetica, Arial, Liberation Sans" font-size="13" lengthAdjust="spacing" textLength="99" x="503.5" y="403.0059">iiidea一覧を取得</text><polygon fill="#444444" points="156.5,433.0586,146.5,437.0586,156.5,441.0586,152.5,437.0586" style="stroke:#444444;stroke-width:1.0;"/><line style="stroke:#444444;stroke-width:1.0;stroke-dasharray:2.0,2.0;" x1="150.5" x2="475.5" y1="437.0586" y2="437.0586"/><text fill="#000000" font-family="Noto Sans JP, Helvetica, Arial, Liberation Sans" font-size="13" lengthAdjust="spacing" textLength="216" x="162.5" y="432.3164">completion(List&lt;ERApplet&gt;, error)</text><path d="M10,452.0586 L72,452.0586 L72,459.0586 L62,469.0586 L10,469.0586 L10,452.0586 " fill="#FFFFFF" style="stroke:#000000;stroke-width:1.0;"/><rect fill="none" height="119.1973" style="stroke:#000000;stroke-width:2.0;" width="291" x="10" y="452.0586"/><text fill="#000000" font-family="Noto Sans JP, Helvetica, Arial, Liberation Sans" font-size="13" font-weight="bold" lengthAdjust="spacing" textLength="17" x="25" y="465.627">alt</text><text fill="#000000" font-family="Noto Sans JP, Helvetica, Arial, Liberation Sans" font-size="11" font-weight="bold" lengthAdjust="spacing" textLength="209" x="87" y="464.6934">[completionのerrorがnull &lt;取得成功&gt;]</text><polygon fill="#444444" points="49.5,501.9902,39.5,505.9902,49.5,509.9902,45.5,505.9902" style="stroke:#444444;stroke-width:1.0;"/><line style="stroke:#444444;stroke-width:1.0;stroke-dasharray:2.0,2.0;" x1="43.5" x2="134.5" y1="505.9902" y2="505.9902"/><text fill="#000000" font-family="Noto Sans JP, Helvetica, Arial, Liberation Sans" font-size="13" lengthAdjust="spacing" textLength="73" x="55.5" y="485.9375">iiidea一覧を</text><text fill="#000000" font-family="Noto Sans JP, Helvetica, Arial, Liberation Sans" font-size="13" lengthAdjust="spacing" textLength="52" x="55.5" y="501.248">表示する</text><line style="stroke:#000000;stroke-width:1.0;stroke-dasharray:2.0,2.0;" x1="10" x2="301" y1="514.9902" y2="514.9902"/><text fill="#000000" font-family="Noto Sans JP, Helvetica, Arial, Liberation Sans" font-size="11" font-weight="bold" lengthAdjust="spacing" textLength="144" x="15" y="525.625">[error != null &lt;取得失敗&gt;]</text><line style="stroke:#444444;stroke-width:1.0;" x1="145.5" x2="187.5" y1="550.2559" y2="550.2559"/><line style="stroke:#444444;stroke-width:1.0;" x1="187.5" x2="187.5" y1="550.2559" y2="563.2559"/><line style="stroke:#444444;stroke-width:1.0;" x1="146.5" x2="187.5" y1="563.2559" y2="563.2559"/><polygon fill="#444444" points="156.5,559.2559,146.5,563.2559,156.5,567.2559,152.5,563.2559" style="stroke:#444444;stroke-width:1.0;"/><text fill="#000000" font-family="Noto Sans JP, Helvetica, Arial, Liberation Sans" font-size="13" lengthAdjust="spacing" textLength="65" x="152.5" y="545.5137">エラー処理</text><!--MD5=[17e229b1fd4aeb4f88dd3cffdfbe305e]
@startuml
title iiidea一覧を取得する
hide footbox

skinparam DefaultFontName "Noto Sans JP, Helvetica, Arial, Liberation Sans"
skinparam BackgroundColor #F2EEE6
skinparam Shadowing false
skinparam NoteBackgroundColor #F9B5AD
skinparam NodeBorderColor #F26767

skinparam sequence {
ArrowColor #444444
ActorBorderColor Black
LifeLineBorderColor #222222
LifeLineBackgroundColor White
BoxBorderColor #FFFFFF
BoxBackgroundColor #F2fEf6
GroupBackgroundColor #FFFFFF
GroupBodyBackgroundColor #F3F0F0

ParticipantBorderColor #111111
ParticipantBackgroundColor White
ParticipantFontSize 17
ParticipantFontColor #111111
BoundaryBorderColor Gray
ActorBackgroundColor #eeeeee
ActorFontColor Black

}

actor User
participant YourApp as App
participant "Riiiver\nSDK" as ERSDK
participant "Riiiver\nCloud" as Riiiver

activate App

App -> ERSDK: ERAuth.getInstance().initialize(Context context)
activate ERSDK

App -> ERSDK: ERAuth.getInstance().isLoggedIn
note left: ログイン済みか\n確認する。
ERSDK - -> App:

alt ERAuth.getInstance().isLoggedIn == false (未ログイン)
    ... ログイン処理 <Riiiverへログインするを参照>                           ...
end

App -> ERSDK: ERSDK.getInstance().getMyApplets(\n\tString[] deviceIds,\n\tCompletion1<List<ERApplet>> completion\n)
ERSDK <-> Riiiver: 指定したdevice idの\niiidea一覧を取得
App <- - ERSDK: completion(List<ERApplet>, error)
alt completionのerrorがnull <取得成功>
    User <- - App: iiidea一覧を\n表示する
else error != null <取得失敗>
    App -> App: エラー処理
end

@enduml

PlantUML version 1.2021.2(Sun Mar 07 20:10:27 JST 2021)
(GPL source distribution)
Java Runtime: OpenJDK Runtime Environment
JVM: OpenJDK 64-Bit Server VM
Default Encoding: UTF-8
Language: ja
Country: JP
--></g></svg>