<?xml version="1.0" encoding="UTF-8" standalone="no"?><svg xmlns="http://www.w3.org/2000/svg" xmlns:xlink="http://www.w3.org/1999/xlink" contentScriptType="application/ecmascript" contentStyleType="text/css" height="760px" preserveAspectRatio="none" style="width:753px;height:760px;background:#F2EEE6;" version="1.1" viewBox="0 0 753 760" width="753px" zoomAndPan="magnify"><defs/><g><text fill="#000000" font-family="Noto Sans JP, Helvetica, Arial, Liberation Sans" font-size="18" lengthAdjust="spacing" textLength="161" x="297.75" y="29.4023">Update credentials</text><rect fill="#FFFFFF" height="29.3105" style="stroke:#FFFFFF;stroke-width:1.0;" width="10" x="176.5" y="129.6875"/><line style="stroke:#222222;stroke-width:1.0;" x1="176.5" x2="176.5" y1="129.6875" y2="158.998"/><line style="stroke:#222222;stroke-width:1.0;" x1="186.5" x2="186.5" y1="129.6875" y2="158.998"/><line style="stroke:#222222;stroke-width:1.0;" x1="176.5" x2="186.5" y1="129.6875" y2="129.6875"/><rect fill="#FFFFFF" height="401.9238" style="stroke:#FFFFFF;stroke-width:1.0;" width="10" x="176.5" y="199.9531"/><line style="stroke:#222222;stroke-width:1.0;" x1="176.5" x2="176.5" y1="199.9531" y2="601.877"/><line style="stroke:#222222;stroke-width:1.0;" x1="186.5" x2="186.5" y1="199.9531" y2="601.877"/><rect fill="#FFFFFF" height="101.5762" style="stroke:#FFFFFF;stroke-width:1.0;" width="10" x="176.5" y="642.832"/><line style="stroke:#222222;stroke-width:1.0;" x1="176.5" x2="176.5" y1="642.832" y2="744.4082"/><line style="stroke:#222222;stroke-width:1.0;" x1="186.5" x2="186.5" y1="642.832" y2="744.4082"/><line style="stroke:#222222;stroke-width:1.0;" x1="176.5" x2="186.5" y1="744.4082" y2="744.4082"/><rect fill="#FFFFFF" height="8" style="stroke:#FFFFFF;stroke-width:1.0;" width="10" x="503.5" y="150.998"/><line style="stroke:#222222;stroke-width:1.0;" x1="503.5" x2="503.5" y1="150.998" y2="158.998"/><line style="stroke:#222222;stroke-width:1.0;" x1="513.5" x2="513.5" y1="150.998" y2="158.998"/><line style="stroke:#222222;stroke-width:1.0;" x1="503.5" x2="513.5" y1="150.998" y2="150.998"/><rect fill="#FFFFFF" height="401.9238" style="stroke:#FFFFFF;stroke-width:1.0;" width="10" x="503.5" y="199.9531"/><line style="stroke:#222222;stroke-width:1.0;" x1="503.5" x2="503.5" y1="199.9531" y2="601.877"/><line style="stroke:#222222;stroke-width:1.0;" x1="513.5" x2="513.5" y1="199.9531" y2="601.877"/><rect fill="#FFFFFF" height="101.5762" style="stroke:#FFFFFF;stroke-width:1.0;" width="10" x="503.5" y="642.832"/><line style="stroke:#222222;stroke-width:1.0;" x1="503.5" x2="503.5" y1="642.832" y2="744.4082"/><line style="stroke:#222222;stroke-width:1.0;" x1="513.5" x2="513.5" y1="642.832" y2="744.4082"/><line style="stroke:#222222;stroke-width:1.0;" x1="503.5" x2="513.5" y1="744.4082" y2="744.4082"/><rect fill="#F3F0F0" height="487.1445" style="stroke:#000000;stroke-width:2.0;" width="736.5" x="10" y="249.2637"/><rect fill="#F3F0F0" height="235.3945" style="stroke:#000000;stroke-width:2.0;" width="608.5" x="128" y="407.4375"/><rect fill="#F3F0F0" height="85.2207" style="stroke:none;stroke-width:1.0;" width="608.5" x="128" y="557.6113"/><rect fill="#F3F0F0" height="86.5762" style="stroke:none;stroke-width:1.0;" width="736.5" x="10" y="649.832"/><line style="stroke:#222222;stroke-width:1.0;" x1="38" x2="38" y1="119.6875" y2="158.998"/><line style="stroke:#222222;stroke-width:1.0;stroke-dasharray:1.0,4.0;" x1="38" x2="38" y1="158.998" y2="199.9531"/><line style="stroke:#222222;stroke-width:1.0;" x1="38" x2="38" y1="199.9531" y2="601.877"/><line style="stroke:#222222;stroke-width:1.0;stroke-dasharray:1.0,4.0;" x1="38" x2="38" y1="601.877" y2="642.832"/><line style="stroke:#222222;stroke-width:1.0;" x1="38" x2="38" y1="642.832" y2="753.4082"/><line style="stroke:#222222;stroke-width:1.0;" x1="181" x2="181" y1="119.6875" y2="158.998"/><line style="stroke:#222222;stroke-width:1.0;stroke-dasharray:1.0,4.0;" x1="181" x2="181" y1="158.998" y2="199.9531"/><line style="stroke:#222222;stroke-width:1.0;" x1="181" x2="181" y1="199.9531" y2="601.877"/><line style="stroke:#222222;stroke-width:1.0;stroke-dasharray:1.0,4.0;" x1="181" x2="181" y1="601.877" y2="642.832"/><line style="stroke:#222222;stroke-width:1.0;" x1="181" x2="181" y1="642.832" y2="753.4082"/><line style="stroke:#222222;stroke-width:1.0;" x1="508" x2="508" y1="119.6875" y2="158.998"/><line style="stroke:#222222;stroke-width:1.0;stroke-dasharray:1.0,4.0;" x1="508" x2="508" y1="158.998" y2="199.9531"/><line style="stroke:#222222;stroke-width:1.0;" x1="508" x2="508" y1="199.9531" y2="601.877"/><line style="stroke:#222222;stroke-width:1.0;stroke-dasharray:1.0,4.0;" x1="508" x2="508" y1="601.877" y2="642.832"/><line style="stroke:#222222;stroke-width:1.0;" x1="508" x2="508" y1="642.832" y2="753.4082"/><line style="stroke:#222222;stroke-width:1.0;" x1="625" x2="625" y1="119.6875" y2="158.998"/><line style="stroke:#222222;stroke-width:1.0;stroke-dasharray:1.0,4.0;" x1="625" x2="625" y1="158.998" y2="199.9531"/><line style="stroke:#222222;stroke-width:1.0;" x1="625" x2="625" y1="199.9531" y2="601.877"/><line style="stroke:#222222;stroke-width:1.0;stroke-dasharray:1.0,4.0;" x1="625" x2="625" y1="601.877" y2="642.832"/><line style="stroke:#222222;stroke-width:1.0;" x1="625" x2="625" y1="642.832" y2="753.4082"/><text fill="#000000" font-family="Noto Sans JP, Helvetica, Arial, Liberation Sans" font-size="14" lengthAdjust="spacing" textLength="31" x="20" y="116.7344">User</text><ellipse cx="38.5" cy="50.1992" fill="#EEEEEE" rx="8" ry="8" style="stroke:#000000;stroke-width:2.0;"/><path d="M38.5,58.1992 L38.5,85.1992 M25.5,66.1992 L51.5,66.1992 M38.5,85.1992 L25.5,100.1992 M38.5,85.1992 L51.5,100.1992 " fill="none" style="stroke:#000000;stroke-width:2.0;"/><rect fill="#FFFFFF" height="34.0215" style="stroke:#111111;stroke-width:1.5;" width="87" x="138" y="84.666"/><text fill="#111111" font-family="Noto Sans JP, Helvetica, Arial, Liberation Sans" font-size="17" lengthAdjust="spacing" textLength="73" x="145" y="108.1016">YourApp</text><rect fill="#FFFFFF" height="54.043" style="stroke:#111111;stroke-width:1.5;" width="65" x="476" y="64.6445"/><text fill="#111111" font-family="Noto Sans JP, Helvetica, Arial, Liberation Sans" font-size="17" lengthAdjust="spacing" textLength="51" x="483" y="88.0801">Riiiver</text><text fill="#111111" font-family="Noto Sans JP, Helvetica, Arial, Liberation Sans" font-size="17" lengthAdjust="spacing" textLength="33" x="492" y="108.1016">SDK</text><rect fill="#FFFFFF" height="54.043" style="stroke:#111111;stroke-width:1.5;" width="65" x="593" y="64.6445"/><text fill="#111111" font-family="Noto Sans JP, Helvetica, Arial, Liberation Sans" font-size="17" lengthAdjust="spacing" textLength="51" x="600" y="88.0801">Riiiver</text><text fill="#111111" font-family="Noto Sans JP, Helvetica, Arial, Liberation Sans" font-size="17" lengthAdjust="spacing" textLength="49" x="601" y="108.1016">Cloud</text><rect fill="#FFFFFF" height="29.3105" style="stroke:#FFFFFF;stroke-width:1.0;" width="10" x="176.5" y="129.6875"/><line style="stroke:#222222;stroke-width:1.0;" x1="176.5" x2="176.5" y1="129.6875" y2="158.998"/><line style="stroke:#222222;stroke-width:1.0;" x1="186.5" x2="186.5" y1="129.6875" y2="158.998"/><line style="stroke:#222222;stroke-width:1.0;" x1="176.5" x2="186.5" y1="129.6875" y2="129.6875"/><rect fill="#FFFFFF" height="401.9238" style="stroke:#FFFFFF;stroke-width:1.0;" width="10" x="176.5" y="199.9531"/><line style="stroke:#222222;stroke-width:1.0;" x1="176.5" x2="176.5" y1="199.9531" y2="601.877"/><line style="stroke:#222222;stroke-width:1.0;" x1="186.5" x2="186.5" y1="199.9531" y2="601.877"/><rect fill="#FFFFFF" height="101.5762" style="stroke:#FFFFFF;stroke-width:1.0;" width="10" x="176.5" y="642.832"/><line style="stroke:#222222;stroke-width:1.0;" x1="176.5" x2="176.5" y1="642.832" y2="744.4082"/><line style="stroke:#222222;stroke-width:1.0;" x1="186.5" x2="186.5" y1="642.832" y2="744.4082"/><line style="stroke:#222222;stroke-width:1.0;" x1="176.5" x2="186.5" y1="744.4082" y2="744.4082"/><rect fill="#FFFFFF" height="8" style="stroke:#FFFFFF;stroke-width:1.0;" width="10" x="503.5" y="150.998"/><line style="stroke:#222222;stroke-width:1.0;" x1="503.5" x2="503.5" y1="150.998" y2="158.998"/><line style="stroke:#222222;stroke-width:1.0;" x1="513.5" x2="513.5" y1="150.998" y2="158.998"/><line style="stroke:#222222;stroke-width:1.0;" x1="503.5" x2="513.5" y1="150.998" y2="150.998"/><rect fill="#FFFFFF" height="401.9238" style="stroke:#FFFFFF;stroke-width:1.0;" width="10" x="503.5" y="199.9531"/><line style="stroke:#222222;stroke-width:1.0;" x1="503.5" x2="503.5" y1="199.9531" y2="601.877"/><line style="stroke:#222222;stroke-width:1.0;" x1="513.5" x2="513.5" y1="199.9531" y2="601.877"/><rect fill="#FFFFFF" height="101.5762" style="stroke:#FFFFFF;stroke-width:1.0;" width="10" x="503.5" y="642.832"/><line style="stroke:#222222;stroke-width:1.0;" x1="503.5" x2="503.5" y1="642.832" y2="744.4082"/><line style="stroke:#222222;stroke-width:1.0;" x1="513.5" x2="513.5" y1="642.832" y2="744.4082"/><line style="stroke:#222222;stroke-width:1.0;" x1="503.5" x2="513.5" y1="744.4082" y2="744.4082"/><polygon fill="#444444" points="491.5,146.998,501.5,150.998,491.5,154.998,495.5,150.998" style="stroke:#444444;stroke-width:1.0;"/><line style="stroke:#444444;stroke-width:1.0;" x1="186.5" x2="497.5" y1="150.998" y2="150.998"/><text fill="#000000" font-family="Noto Sans JP, Helvetica, Arial, Liberation Sans" font-size="13" lengthAdjust="spacing" textLength="298" x="193.5" y="146.2559">ERAuth.getInstance().initialize(Context context)</text><text fill="#000000" font-family="Noto Sans JP, Helvetica, Arial, Liberation Sans" font-size="11" lengthAdjust="spacing" textLength="319" x="172.5" y="183.6328">Logged in - iiidea is an instance of the target ERApplet class</text><line style="stroke:#444444;stroke-width:1.0;" x1="186.5" x2="228.5" y1="221.2637" y2="221.2637"/><line style="stroke:#444444;stroke-width:1.0;" x1="228.5" x2="228.5" y1="221.2637" y2="234.2637"/><line style="stroke:#444444;stroke-width:1.0;" x1="187.5" x2="228.5" y1="234.2637" y2="234.2637"/><polygon fill="#444444" points="197.5,230.2637,187.5,234.2637,197.5,238.2637,193.5,234.2637" style="stroke:#444444;stroke-width:1.0;"/><text fill="#000000" font-family="Noto Sans JP, Helvetica, Arial, Liberation Sans" font-size="13" lengthAdjust="spacing" textLength="165" x="193.5" y="216.5215">Check the network status.</text><path d="M10,249.2637 L72,249.2637 L72,256.2637 L62,266.2637 L10,266.2637 L10,249.2637 " fill="#FFFFFF" style="stroke:#000000;stroke-width:1.0;"/><rect fill="none" height="487.1445" style="stroke:#000000;stroke-width:2.0;" width="736.5" x="10" y="249.2637"/><text fill="#000000" font-family="Noto Sans JP, Helvetica, Arial, Liberation Sans" font-size="13" font-weight="bold" lengthAdjust="spacing" textLength="17" x="25" y="262.832">alt</text><text fill="#000000" font-family="Noto Sans JP, Helvetica, Arial, Liberation Sans" font-size="11" font-weight="bold" lengthAdjust="spacing" textLength="190" x="87" y="261.8984">[Network available (within range)]</text><polygon fill="#444444" points="491.5,329.8164,501.5,333.8164,491.5,337.8164,495.5,333.8164" style="stroke:#444444;stroke-width:1.0;"/><line style="stroke:#444444;stroke-width:1.0;" x1="186.5" x2="497.5" y1="333.8164" y2="333.8164"/><text fill="#000000" font-family="Noto Sans JP, Helvetica, Arial, Liberation Sans" font-size="13" lengthAdjust="spacing" textLength="195" x="193.5" y="283.1426">Update authentication session.</text><text fill="#000000" font-family="Noto Sans JP, Helvetica, Arial, Liberation Sans" font-size="13" lengthAdjust="spacing" textLength="211" x="193.5" y="298.4531">ERAuth.sharedInstance.getToken(</text><text fill="#000000" font-family="Noto Sans JP, Helvetica, Arial, Liberation Sans" font-size="13" lengthAdjust="spacing" textLength="226" x="193.5" y="313.7637">\IERAuthGetTokenCallback callback</text><text fill="#000000" font-family="Noto Sans JP, Helvetica, Arial, Liberation Sans" font-size="13" lengthAdjust="spacing" textLength="4" x="193.5" y="329.0742">)</text><polygon fill="#444444" points="613.5,359.127,623.5,363.127,613.5,367.127,617.5,363.127" style="stroke:#444444;stroke-width:1.0;"/><line style="stroke:#444444;stroke-width:1.0;" x1="513.5" x2="619.5" y1="363.127" y2="363.127"/><text fill="#000000" font-family="Noto Sans JP, Helvetica, Arial, Liberation Sans" font-size="13" lengthAdjust="spacing" textLength="88" x="520.5" y="358.3848">Login process</text><polygon fill="#444444" points="524.5,388.4375,514.5,392.4375,524.5,396.4375,520.5,392.4375" style="stroke:#444444;stroke-width:1.0;"/><line style="stroke:#444444;stroke-width:1.0;stroke-dasharray:2.0,2.0;" x1="518.5" x2="624.5" y1="392.4375" y2="392.4375"/><text fill="#000000" font-family="Noto Sans JP, Helvetica, Arial, Liberation Sans" font-size="13" lengthAdjust="spacing" textLength="39" x="530.5" y="387.6953">Token</text><path d="M128,407.4375 L190,407.4375 L190,414.4375 L180,424.4375 L128,424.4375 L128,407.4375 " fill="#FFFFFF" style="stroke:#000000;stroke-width:1.0;"/><rect fill="none" height="235.3945" style="stroke:#000000;stroke-width:2.0;" width="608.5" x="128" y="407.4375"/><text fill="#000000" font-family="Noto Sans JP, Helvetica, Arial, Liberation Sans" font-size="13" font-weight="bold" lengthAdjust="spacing" textLength="17" x="143" y="421.0059">alt</text><text fill="#000000" font-family="Noto Sans JP, Helvetica, Arial, Liberation Sans" font-size="11" font-weight="bold" lengthAdjust="spacing" textLength="51" x="205" y="420.0723">[Success]</text><polygon fill="#444444" points="197.5,442.0586,187.5,446.0586,197.5,450.0586,193.5,446.0586" style="stroke:#444444;stroke-width:1.0;"/><line style="stroke:#444444;stroke-width:1.0;stroke-dasharray:2.0,2.0;" x1="191.5" x2="502.5" y1="446.0586" y2="446.0586"/><text fill="#000000" font-family="Noto Sans JP, Helvetica, Arial, Liberation Sans" font-size="13" lengthAdjust="spacing" textLength="262" x="203.5" y="441.3164">callback.onSuccess( ERAuthToken token )</text><line style="stroke:#444444;stroke-width:1.0;" x1="186.5" x2="228.5" y1="536.6113" y2="536.6113"/><line style="stroke:#444444;stroke-width:1.0;" x1="228.5" x2="228.5" y1="536.6113" y2="549.6113"/><line style="stroke:#444444;stroke-width:1.0;" x1="187.5" x2="228.5" y1="549.6113" y2="549.6113"/><polygon fill="#444444" points="197.5,545.6113,187.5,549.6113,197.5,553.6113,193.5,549.6113" style="stroke:#444444;stroke-width:1.0;"/><text fill="#000000" font-family="Noto Sans JP, Helvetica, Arial, Liberation Sans" font-size="13" lengthAdjust="spacing" textLength="92" x="193.5" y="470.627">Save the token</text><text fill="#000000" font-family="Noto Sans JP, Helvetica, Arial, Liberation Sans" font-size="13" lengthAdjust="spacing" textLength="4" x="193.5" y="485.9375">(</text><text fill="#000000" font-family="Noto Sans JP, Helvetica, Arial, Liberation Sans" font-size="13" lengthAdjust="spacing" textLength="254" x="197.5" y="501.248">local.accessToken = token.accessToken</text><text fill="#000000" font-family="Noto Sans JP, Helvetica, Arial, Liberation Sans" font-size="13" lengthAdjust="spacing" textLength="154" x="197.5" y="516.5586">local.idToken = idToken</text><text fill="#000000" font-family="Noto Sans JP, Helvetica, Arial, Liberation Sans" font-size="13" lengthAdjust="spacing" textLength="4" x="193.5" y="531.8691">)</text><path d="M463,485.5244 L463,525.5244 L716,525.5244 L716,495.5244 L706,485.5244 L463,485.5244 " fill="#F9B5AD" style="stroke:#A80036;stroke-width:1.0;"/><path d="M706,485.5244 L706,495.5244 L716,495.5244 L706,485.5244 " fill="#F9B5AD" style="stroke:#A80036;stroke-width:1.0;"/><text fill="#000000" font-family="Noto Sans JP, Helvetica, Arial, Liberation Sans" font-size="13" lengthAdjust="spacing" textLength="232" x="469" y="503.0928">Successfully obtained authentication</text><text fill="#000000" font-family="Noto Sans JP, Helvetica, Arial, Liberation Sans" font-size="13" lengthAdjust="spacing" textLength="180" x="469" y="518.4033">information from RiiiverSDK.</text><line style="stroke:#000000;stroke-width:1.0;stroke-dasharray:2.0,2.0;" x1="128" x2="736.5" y1="558.6113" y2="558.6113"/><text fill="#000000" font-family="Noto Sans JP, Helvetica, Arial, Liberation Sans" font-size="11" font-weight="bold" lengthAdjust="spacing" textLength="30" x="133" y="569.2461">[else]</text><polygon fill="#444444" points="197.5,589.877,187.5,593.877,197.5,597.877,193.5,593.877" style="stroke:#444444;stroke-width:1.0;"/><line style="stroke:#444444;stroke-width:1.0;stroke-dasharray:2.0,2.0;" x1="191.5" x2="502.5" y1="593.877" y2="593.877"/><text fill="#000000" font-family="Noto Sans JP, Helvetica, Arial, Liberation Sans" font-size="13" lengthAdjust="spacing" textLength="214" x="203.5" y="589.1348">callback.onError( Exception error )</text><text fill="#000000" font-family="Noto Sans JP, Helvetica, Arial, Liberation Sans" font-size="11" lengthAdjust="spacing" textLength="180" x="242" y="626.5117">Start over from the login process.</text><line style="stroke:#000000;stroke-width:1.0;stroke-dasharray:2.0,2.0;" x1="10" x2="746.5" y1="650.832" y2="650.832"/><text fill="#000000" font-family="Noto Sans JP, Helvetica, Arial, Liberation Sans" font-size="11" font-weight="bold" lengthAdjust="spacing" textLength="153" x="15" y="661.4668">[No network (out of range)]</text><line style="stroke:#444444;stroke-width:1.0;" x1="186.5" x2="228.5" y1="686.0977" y2="686.0977"/><line style="stroke:#444444;stroke-width:1.0;" x1="228.5" x2="228.5" y1="686.0977" y2="699.0977"/><line style="stroke:#444444;stroke-width:1.0;" x1="187.5" x2="228.5" y1="699.0977" y2="699.0977"/><polygon fill="#444444" points="197.5,695.0977,187.5,699.0977,197.5,703.0977,193.5,699.0977" style="stroke:#444444;stroke-width:1.0;"/><text fill="#000000" font-family="Noto Sans JP, Helvetica, Arial, Liberation Sans" font-size="13" lengthAdjust="spacing" textLength="146" x="193.5" y="681.3555">Network error handling</text><polygon fill="#444444" points="49.5,724.4082,39.5,728.4082,49.5,732.4082,45.5,728.4082" style="stroke:#444444;stroke-width:1.0;"/><line style="stroke:#444444;stroke-width:1.0;" x1="43.5" x2="175.5" y1="728.4082" y2="728.4082"/><text fill="#000000" font-family="Noto Sans JP, Helvetica, Arial, Liberation Sans" font-size="13" lengthAdjust="spacing" textLength="114" x="55.5" y="723.666">"Network Error!"　</text><!--MD5=[e8a82fd54a1e8d8c499c5624289c6f12]
@startuml
title Update credentials
hide footbox

skinparam DefaultFontName "Noto Sans JP, Helvetica, Arial, Liberation Sans"
skinparam BackgroundColor #F2EEE6
skinparam Shadowing false
skinparam NoteBackgroundColor #F9B5AD
skinparam NodeBorderColor #F26767

skinparam sequence {
ArrowColor #444444
ActorBorderColor Black
LifeLineBorderColor #222222
LifeLineBackgroundColor White
BoxBorderColor #FFFFFF
BoxBackgroundColor #F2fEf6
GroupBackgroundColor #FFFFFF
GroupBodyBackgroundColor #F3F0F0

ParticipantBorderColor #111111
ParticipantBackgroundColor White
ParticipantFontSize 17
ParticipantFontColor #111111
BoundaryBorderColor Gray
ActorBackgroundColor #eeeeee
ActorFontColor Black

}

actor User
participant YourApp as App
participant "Riiiver\nSDK" as ERSDK
participant "Riiiver\nCloud" as Riiiver

activate App

App -> ERSDK: ERAuth.getInstance().initialize(Context context)
activate ERSDK

... Logged in - iiidea is an instance of the target ERApplet class ...

App -> App: Check the network status.
alt Network available (within range)
    App -> ERSDK: Update authentication session.\nERAuth.sharedInstance.getToken(\n\IERAuthGetTokenCallback callback\n)
    ERSDK -> Riiiver: Login process
    ERSDK <- - Riiiver: Token
    alt Success
    App <- - ERSDK: callback.onSuccess( ERAuthToken token )
        App -> App: Save the token\n(\n local.accessToken = token.accessToken\n local.idToken = idToken\n)
        note right: Successfully obtained authentication\ninformation from RiiiverSDK.
    else else
    App <- - ERSDK: callback.onError( Exception error )
        ... Start over from the login process. ...
    end
else No network (out of range)
    App -> App: Network error handling
    User <- App: "Network Error!"　
end

@enduml

PlantUML version 1.2021.7(Sun May 23 21:40:07 JST 2021)
(GPL source distribution)
Java Runtime: Java(TM) SE Runtime Environment
JVM: Java HotSpot(TM) 64-Bit Server VM
Default Encoding: UTF-8
Language: ja
Country: JP
--></g></svg>