<?xml version="1.0" encoding="UTF-8" standalone="no"?><svg xmlns="http://www.w3.org/2000/svg" xmlns:xlink="http://www.w3.org/1999/xlink" contentScriptType="application/ecmascript" contentStyleType="text/css" height="760px" preserveAspectRatio="none" style="width:770px;height:760px;background:#F2EEE6;" version="1.1" viewBox="0 0 770 760" width="770px" zoomAndPan="magnify"><defs/><g><text fill="#000000" font-family="Noto Sans JP, Helvetica, Arial, Liberation Sans" font-size="18" lengthAdjust="spacing" textLength="162" x="305.75" y="29.4023">認証情報を更新する</text><rect fill="#FFFFFF" height="29.3105" style="stroke:#FFFFFF;stroke-width:1.0;" width="10" x="218.5" y="129.6875"/><line style="stroke:#222222;stroke-width:1.0;" x1="218.5" x2="218.5" y1="129.6875" y2="158.998"/><line style="stroke:#222222;stroke-width:1.0;" x1="228.5" x2="228.5" y1="129.6875" y2="158.998"/><line style="stroke:#222222;stroke-width:1.0;" x1="218.5" x2="228.5" y1="129.6875" y2="129.6875"/><rect fill="#FFFFFF" height="401.9238" style="stroke:#FFFFFF;stroke-width:1.0;" width="10" x="218.5" y="199.9531"/><line style="stroke:#222222;stroke-width:1.0;" x1="218.5" x2="218.5" y1="199.9531" y2="601.877"/><line style="stroke:#222222;stroke-width:1.0;" x1="228.5" x2="228.5" y1="199.9531" y2="601.877"/><rect fill="#FFFFFF" height="101.5762" style="stroke:#FFFFFF;stroke-width:1.0;" width="10" x="218.5" y="642.832"/><line style="stroke:#222222;stroke-width:1.0;" x1="218.5" x2="218.5" y1="642.832" y2="744.4082"/><line style="stroke:#222222;stroke-width:1.0;" x1="228.5" x2="228.5" y1="642.832" y2="744.4082"/><line style="stroke:#222222;stroke-width:1.0;" x1="218.5" x2="228.5" y1="744.4082" y2="744.4082"/><rect fill="#FFFFFF" height="8" style="stroke:#FFFFFF;stroke-width:1.0;" width="10" x="545.5" y="150.998"/><line style="stroke:#222222;stroke-width:1.0;" x1="545.5" x2="545.5" y1="150.998" y2="158.998"/><line style="stroke:#222222;stroke-width:1.0;" x1="555.5" x2="555.5" y1="150.998" y2="158.998"/><line style="stroke:#222222;stroke-width:1.0;" x1="545.5" x2="555.5" y1="150.998" y2="150.998"/><rect fill="#FFFFFF" height="401.9238" style="stroke:#FFFFFF;stroke-width:1.0;" width="10" x="545.5" y="199.9531"/><line style="stroke:#222222;stroke-width:1.0;" x1="545.5" x2="545.5" y1="199.9531" y2="601.877"/><line style="stroke:#222222;stroke-width:1.0;" x1="555.5" x2="555.5" y1="199.9531" y2="601.877"/><rect fill="#FFFFFF" height="101.5762" style="stroke:#FFFFFF;stroke-width:1.0;" width="10" x="545.5" y="642.832"/><line style="stroke:#222222;stroke-width:1.0;" x1="545.5" x2="545.5" y1="642.832" y2="744.4082"/><line style="stroke:#222222;stroke-width:1.0;" x1="555.5" x2="555.5" y1="642.832" y2="744.4082"/><line style="stroke:#222222;stroke-width:1.0;" x1="545.5" x2="555.5" y1="744.4082" y2="744.4082"/><rect fill="#F3F0F0" height="487.1445" style="stroke:#000000;stroke-width:2.0;" width="753.5" x="10" y="249.2637"/><rect fill="#F3F0F0" height="235.3945" style="stroke:#000000;stroke-width:2.0;" width="583.5" x="170" y="407.4375"/><rect fill="#F3F0F0" height="85.2207" style="stroke:none;stroke-width:1.0;" width="583.5" x="170" y="557.6113"/><rect fill="#F3F0F0" height="86.5762" style="stroke:none;stroke-width:1.0;" width="753.5" x="10" y="649.832"/><line style="stroke:#222222;stroke-width:1.0;" x1="38" x2="38" y1="119.6875" y2="158.998"/><line style="stroke:#222222;stroke-width:1.0;stroke-dasharray:1.0,4.0;" x1="38" x2="38" y1="158.998" y2="199.9531"/><line style="stroke:#222222;stroke-width:1.0;" x1="38" x2="38" y1="199.9531" y2="601.877"/><line style="stroke:#222222;stroke-width:1.0;stroke-dasharray:1.0,4.0;" x1="38" x2="38" y1="601.877" y2="642.832"/><line style="stroke:#222222;stroke-width:1.0;" x1="38" x2="38" y1="642.832" y2="753.4082"/><line style="stroke:#222222;stroke-width:1.0;" x1="223" x2="223" y1="119.6875" y2="158.998"/><line style="stroke:#222222;stroke-width:1.0;stroke-dasharray:1.0,4.0;" x1="223" x2="223" y1="158.998" y2="199.9531"/><line style="stroke:#222222;stroke-width:1.0;" x1="223" x2="223" y1="199.9531" y2="601.877"/><line style="stroke:#222222;stroke-width:1.0;stroke-dasharray:1.0,4.0;" x1="223" x2="223" y1="601.877" y2="642.832"/><line style="stroke:#222222;stroke-width:1.0;" x1="223" x2="223" y1="642.832" y2="753.4082"/><line style="stroke:#222222;stroke-width:1.0;" x1="550" x2="550" y1="119.6875" y2="158.998"/><line style="stroke:#222222;stroke-width:1.0;stroke-dasharray:1.0,4.0;" x1="550" x2="550" y1="158.998" y2="199.9531"/><line style="stroke:#222222;stroke-width:1.0;" x1="550" x2="550" y1="199.9531" y2="601.877"/><line style="stroke:#222222;stroke-width:1.0;stroke-dasharray:1.0,4.0;" x1="550" x2="550" y1="601.877" y2="642.832"/><line style="stroke:#222222;stroke-width:1.0;" x1="550" x2="550" y1="642.832" y2="753.4082"/><line style="stroke:#222222;stroke-width:1.0;" x1="657" x2="657" y1="119.6875" y2="158.998"/><line style="stroke:#222222;stroke-width:1.0;stroke-dasharray:1.0,4.0;" x1="657" x2="657" y1="158.998" y2="199.9531"/><line style="stroke:#222222;stroke-width:1.0;" x1="657" x2="657" y1="199.9531" y2="601.877"/><line style="stroke:#222222;stroke-width:1.0;stroke-dasharray:1.0,4.0;" x1="657" x2="657" y1="601.877" y2="642.832"/><line style="stroke:#222222;stroke-width:1.0;" x1="657" x2="657" y1="642.832" y2="753.4082"/><text fill="#000000" font-family="Noto Sans JP, Helvetica, Arial, Liberation Sans" font-size="14" lengthAdjust="spacing" textLength="31" x="20" y="116.7344">User</text><ellipse cx="38.5" cy="50.1992" fill="#EEEEEE" rx="8" ry="8" style="stroke:#000000;stroke-width:2.0;"/><path d="M38.5,58.1992 L38.5,85.1992 M25.5,66.1992 L51.5,66.1992 M38.5,85.1992 L25.5,100.1992 M38.5,85.1992 L51.5,100.1992 " fill="none" style="stroke:#000000;stroke-width:2.0;"/><rect fill="#FFFFFF" height="34.0215" style="stroke:#111111;stroke-width:1.5;" width="87" x="180" y="84.666"/><text fill="#111111" font-family="Noto Sans JP, Helvetica, Arial, Liberation Sans" font-size="17" lengthAdjust="spacing" textLength="73" x="187" y="108.1016">YourApp</text><rect fill="#FFFFFF" height="54.043" style="stroke:#111111;stroke-width:1.5;" width="65" x="518" y="64.6445"/><text fill="#111111" font-family="Noto Sans JP, Helvetica, Arial, Liberation Sans" font-size="17" lengthAdjust="spacing" textLength="51" x="525" y="88.0801">Riiiver</text><text fill="#111111" font-family="Noto Sans JP, Helvetica, Arial, Liberation Sans" font-size="17" lengthAdjust="spacing" textLength="33" x="534" y="108.1016">SDK</text><rect fill="#FFFFFF" height="54.043" style="stroke:#111111;stroke-width:1.5;" width="65" x="625" y="64.6445"/><text fill="#111111" font-family="Noto Sans JP, Helvetica, Arial, Liberation Sans" font-size="17" lengthAdjust="spacing" textLength="51" x="632" y="88.0801">Riiiver</text><text fill="#111111" font-family="Noto Sans JP, Helvetica, Arial, Liberation Sans" font-size="17" lengthAdjust="spacing" textLength="49" x="633" y="108.1016">Cloud</text><rect fill="#FFFFFF" height="29.3105" style="stroke:#FFFFFF;stroke-width:1.0;" width="10" x="218.5" y="129.6875"/><line style="stroke:#222222;stroke-width:1.0;" x1="218.5" x2="218.5" y1="129.6875" y2="158.998"/><line style="stroke:#222222;stroke-width:1.0;" x1="228.5" x2="228.5" y1="129.6875" y2="158.998"/><line style="stroke:#222222;stroke-width:1.0;" x1="218.5" x2="228.5" y1="129.6875" y2="129.6875"/><rect fill="#FFFFFF" height="401.9238" style="stroke:#FFFFFF;stroke-width:1.0;" width="10" x="218.5" y="199.9531"/><line style="stroke:#222222;stroke-width:1.0;" x1="218.5" x2="218.5" y1="199.9531" y2="601.877"/><line style="stroke:#222222;stroke-width:1.0;" x1="228.5" x2="228.5" y1="199.9531" y2="601.877"/><rect fill="#FFFFFF" height="101.5762" style="stroke:#FFFFFF;stroke-width:1.0;" width="10" x="218.5" y="642.832"/><line style="stroke:#222222;stroke-width:1.0;" x1="218.5" x2="218.5" y1="642.832" y2="744.4082"/><line style="stroke:#222222;stroke-width:1.0;" x1="228.5" x2="228.5" y1="642.832" y2="744.4082"/><line style="stroke:#222222;stroke-width:1.0;" x1="218.5" x2="228.5" y1="744.4082" y2="744.4082"/><rect fill="#FFFFFF" height="8" style="stroke:#FFFFFF;stroke-width:1.0;" width="10" x="545.5" y="150.998"/><line style="stroke:#222222;stroke-width:1.0;" x1="545.5" x2="545.5" y1="150.998" y2="158.998"/><line style="stroke:#222222;stroke-width:1.0;" x1="555.5" x2="555.5" y1="150.998" y2="158.998"/><line style="stroke:#222222;stroke-width:1.0;" x1="545.5" x2="555.5" y1="150.998" y2="150.998"/><rect fill="#FFFFFF" height="401.9238" style="stroke:#FFFFFF;stroke-width:1.0;" width="10" x="545.5" y="199.9531"/><line style="stroke:#222222;stroke-width:1.0;" x1="545.5" x2="545.5" y1="199.9531" y2="601.877"/><line style="stroke:#222222;stroke-width:1.0;" x1="555.5" x2="555.5" y1="199.9531" y2="601.877"/><rect fill="#FFFFFF" height="101.5762" style="stroke:#FFFFFF;stroke-width:1.0;" width="10" x="545.5" y="642.832"/><line style="stroke:#222222;stroke-width:1.0;" x1="545.5" x2="545.5" y1="642.832" y2="744.4082"/><line style="stroke:#222222;stroke-width:1.0;" x1="555.5" x2="555.5" y1="642.832" y2="744.4082"/><line style="stroke:#222222;stroke-width:1.0;" x1="545.5" x2="555.5" y1="744.4082" y2="744.4082"/><polygon fill="#444444" points="533.5,146.998,543.5,150.998,533.5,154.998,537.5,150.998" style="stroke:#444444;stroke-width:1.0;"/><line style="stroke:#444444;stroke-width:1.0;" x1="228.5" x2="539.5" y1="150.998" y2="150.998"/><text fill="#000000" font-family="Noto Sans JP, Helvetica, Arial, Liberation Sans" font-size="13" lengthAdjust="spacing" textLength="298" x="235.5" y="146.2559">ERAuth.getInstance().initialize(Context context)</text><text fill="#000000" font-family="Noto Sans JP, Helvetica, Arial, Liberation Sans" font-size="11" lengthAdjust="spacing" textLength="313" x="193" y="183.6328">ログイン済み ー iiideaは対象のERAppletクラスのインスタンス</text><line style="stroke:#444444;stroke-width:1.0;" x1="228.5" x2="270.5" y1="221.2637" y2="221.2637"/><line style="stroke:#444444;stroke-width:1.0;" x1="270.5" x2="270.5" y1="221.2637" y2="234.2637"/><line style="stroke:#444444;stroke-width:1.0;" x1="229.5" x2="270.5" y1="234.2637" y2="234.2637"/><polygon fill="#444444" points="239.5,230.2637,229.5,234.2637,239.5,238.2637,235.5,234.2637" style="stroke:#444444;stroke-width:1.0;"/><text fill="#000000" font-family="Noto Sans JP, Helvetica, Arial, Liberation Sans" font-size="13" lengthAdjust="spacing" textLength="143" x="235.5" y="216.5215">ネットワーク状態の確認</text><path d="M10,249.2637 L72,249.2637 L72,256.2637 L62,266.2637 L10,266.2637 L10,249.2637 " fill="#FFFFFF" style="stroke:#000000;stroke-width:1.0;"/><rect fill="none" height="487.1445" style="stroke:#000000;stroke-width:2.0;" width="753.5" x="10" y="249.2637"/><text fill="#000000" font-family="Noto Sans JP, Helvetica, Arial, Liberation Sans" font-size="13" font-weight="bold" lengthAdjust="spacing" textLength="17" x="25" y="262.832">alt</text><text fill="#000000" font-family="Noto Sans JP, Helvetica, Arial, Liberation Sans" font-size="11" font-weight="bold" lengthAdjust="spacing" textLength="140" x="87" y="261.8984">[ネットワークあり（圏内）]</text><polygon fill="#444444" points="533.5,329.8164,543.5,333.8164,533.5,337.8164,537.5,333.8164" style="stroke:#444444;stroke-width:1.0;"/><line style="stroke:#444444;stroke-width:1.0;" x1="228.5" x2="539.5" y1="333.8164" y2="333.8164"/><text fill="#000000" font-family="Noto Sans JP, Helvetica, Arial, Liberation Sans" font-size="13" lengthAdjust="spacing" textLength="130" x="235.5" y="283.1426">認証セッションを更新</text><text fill="#000000" font-family="Noto Sans JP, Helvetica, Arial, Liberation Sans" font-size="13" lengthAdjust="spacing" textLength="211" x="235.5" y="298.4531">ERAuth.sharedInstance.getToken(</text><text fill="#000000" font-family="Noto Sans JP, Helvetica, Arial, Liberation Sans" font-size="13" lengthAdjust="spacing" textLength="226" x="235.5" y="313.7637">\IERAuthGetTokenCallback callback</text><text fill="#000000" font-family="Noto Sans JP, Helvetica, Arial, Liberation Sans" font-size="13" lengthAdjust="spacing" textLength="4" x="235.5" y="329.0742">)</text><polygon fill="#444444" points="645.5,359.127,655.5,363.127,645.5,367.127,649.5,363.127" style="stroke:#444444;stroke-width:1.0;"/><line style="stroke:#444444;stroke-width:1.0;" x1="555.5" x2="651.5" y1="363.127" y2="363.127"/><text fill="#000000" font-family="Noto Sans JP, Helvetica, Arial, Liberation Sans" font-size="13" lengthAdjust="spacing" textLength="78" x="562.5" y="358.3848">ログイン処理</text><polygon fill="#444444" points="566.5,388.4375,556.5,392.4375,566.5,396.4375,562.5,392.4375" style="stroke:#444444;stroke-width:1.0;"/><line style="stroke:#444444;stroke-width:1.0;stroke-dasharray:2.0,2.0;" x1="560.5" x2="656.5" y1="392.4375" y2="392.4375"/><text fill="#000000" font-family="Noto Sans JP, Helvetica, Arial, Liberation Sans" font-size="13" lengthAdjust="spacing" textLength="39" x="572.5" y="387.6953">Token</text><path d="M170,407.4375 L232,407.4375 L232,414.4375 L222,424.4375 L170,424.4375 L170,407.4375 " fill="#FFFFFF" style="stroke:#000000;stroke-width:1.0;"/><rect fill="none" height="235.3945" style="stroke:#000000;stroke-width:2.0;" width="583.5" x="170" y="407.4375"/><text fill="#000000" font-family="Noto Sans JP, Helvetica, Arial, Liberation Sans" font-size="13" font-weight="bold" lengthAdjust="spacing" textLength="17" x="185" y="421.0059">alt</text><text fill="#000000" font-family="Noto Sans JP, Helvetica, Arial, Liberation Sans" font-size="11" font-weight="bold" lengthAdjust="spacing" textLength="30" x="247" y="420.0723">[成功]</text><polygon fill="#444444" points="239.5,442.0586,229.5,446.0586,239.5,450.0586,235.5,446.0586" style="stroke:#444444;stroke-width:1.0;"/><line style="stroke:#444444;stroke-width:1.0;stroke-dasharray:2.0,2.0;" x1="233.5" x2="544.5" y1="446.0586" y2="446.0586"/><text fill="#000000" font-family="Noto Sans JP, Helvetica, Arial, Liberation Sans" font-size="13" lengthAdjust="spacing" textLength="262" x="245.5" y="441.3164">callback.onSuccess( ERAuthToken token )</text><line style="stroke:#444444;stroke-width:1.0;" x1="228.5" x2="270.5" y1="536.6113" y2="536.6113"/><line style="stroke:#444444;stroke-width:1.0;" x1="270.5" x2="270.5" y1="536.6113" y2="549.6113"/><line style="stroke:#444444;stroke-width:1.0;" x1="229.5" x2="270.5" y1="549.6113" y2="549.6113"/><polygon fill="#444444" points="239.5,545.6113,229.5,549.6113,239.5,553.6113,235.5,549.6113" style="stroke:#444444;stroke-width:1.0;"/><text fill="#000000" font-family="Noto Sans JP, Helvetica, Arial, Liberation Sans" font-size="13" lengthAdjust="spacing" textLength="75" x="235.5" y="470.627">tokenを保存</text><text fill="#000000" font-family="Noto Sans JP, Helvetica, Arial, Liberation Sans" font-size="13" lengthAdjust="spacing" textLength="4" x="235.5" y="485.9375">(</text><text fill="#000000" font-family="Noto Sans JP, Helvetica, Arial, Liberation Sans" font-size="13" lengthAdjust="spacing" textLength="254" x="239.5" y="501.248">local.accessToken = token.accessToken</text><text fill="#000000" font-family="Noto Sans JP, Helvetica, Arial, Liberation Sans" font-size="13" lengthAdjust="spacing" textLength="154" x="239.5" y="516.5586">local.idToken = idToken</text><text fill="#000000" font-family="Noto Sans JP, Helvetica, Arial, Liberation Sans" font-size="13" lengthAdjust="spacing" textLength="4" x="235.5" y="531.8691">)</text><path d="M505,493.1797 L505,518.1797 L733,518.1797 L733,503.1797 L723,493.1797 L505,493.1797 " fill="#F9B5AD" style="stroke:#A80036;stroke-width:1.0;"/><path d="M723,493.1797 L723,503.1797 L733,503.1797 L723,493.1797 " fill="#F9B5AD" style="stroke:#A80036;stroke-width:1.0;"/><text fill="#000000" font-family="Noto Sans JP, Helvetica, Arial, Liberation Sans" font-size="13" lengthAdjust="spacing" textLength="207" x="511" y="510.748">RiiiverSDKから認証情報の取得成功</text><line style="stroke:#000000;stroke-width:1.0;stroke-dasharray:2.0,2.0;" x1="170" x2="753.5" y1="558.6113" y2="558.6113"/><text fill="#000000" font-family="Noto Sans JP, Helvetica, Arial, Liberation Sans" font-size="11" font-weight="bold" lengthAdjust="spacing" textLength="30" x="175" y="569.2461">[else]</text><polygon fill="#444444" points="239.5,589.877,229.5,593.877,239.5,597.877,235.5,593.877" style="stroke:#444444;stroke-width:1.0;"/><line style="stroke:#444444;stroke-width:1.0;stroke-dasharray:2.0,2.0;" x1="233.5" x2="544.5" y1="593.877" y2="593.877"/><text fill="#000000" font-family="Noto Sans JP, Helvetica, Arial, Liberation Sans" font-size="13" lengthAdjust="spacing" textLength="214" x="245.5" y="589.1348">callback.onError( Exception error )</text><text fill="#000000" font-family="Noto Sans JP, Helvetica, Arial, Liberation Sans" font-size="11" lengthAdjust="spacing" textLength="132" x="282" y="626.5117">ログイン処理からやり直し</text><line style="stroke:#000000;stroke-width:1.0;stroke-dasharray:2.0,2.0;" x1="10" x2="763.5" y1="650.832" y2="650.832"/><text fill="#000000" font-family="Noto Sans JP, Helvetica, Arial, Liberation Sans" font-size="11" font-weight="bold" lengthAdjust="spacing" textLength="140" x="15" y="661.4668">[ネットワークなし（圏外）]</text><line style="stroke:#444444;stroke-width:1.0;" x1="228.5" x2="270.5" y1="686.0977" y2="686.0977"/><line style="stroke:#444444;stroke-width:1.0;" x1="270.5" x2="270.5" y1="686.0977" y2="699.0977"/><line style="stroke:#444444;stroke-width:1.0;" x1="229.5" x2="270.5" y1="699.0977" y2="699.0977"/><polygon fill="#444444" points="239.5,695.0977,229.5,699.0977,239.5,703.0977,235.5,699.0977" style="stroke:#444444;stroke-width:1.0;"/><text fill="#000000" font-family="Noto Sans JP, Helvetica, Arial, Liberation Sans" font-size="13" lengthAdjust="spacing" textLength="143" x="235.5" y="681.3555">ネットワークエラー処理</text><polygon fill="#444444" points="49.5,724.4082,39.5,728.4082,49.5,732.4082,45.5,728.4082" style="stroke:#444444;stroke-width:1.0;"/><line style="stroke:#444444;stroke-width:1.0;" x1="43.5" x2="217.5" y1="728.4082" y2="728.4082"/><text fill="#000000" font-family="Noto Sans JP, Helvetica, Arial, Liberation Sans" font-size="13" lengthAdjust="spacing" textLength="156" x="55.5" y="723.666">「ネットワークエラー」　</text><!--MD5=[50ead4ce772ceeca800c16def032c8b0]
@startuml
title 認証情報を更新する
hide footbox

skinparam DefaultFontName "Noto Sans JP, Helvetica, Arial, Liberation Sans"
skinparam BackgroundColor #F2EEE6
skinparam Shadowing false
skinparam NoteBackgroundColor #F9B5AD
skinparam NodeBorderColor #F26767

skinparam sequence {
ArrowColor #444444
ActorBorderColor Black
LifeLineBorderColor #222222
LifeLineBackgroundColor White
BoxBorderColor #FFFFFF
BoxBackgroundColor #F2fEf6
GroupBackgroundColor #FFFFFF
GroupBodyBackgroundColor #F3F0F0

ParticipantBorderColor #111111
ParticipantBackgroundColor White
ParticipantFontSize 17
ParticipantFontColor #111111
BoundaryBorderColor Gray
ActorBackgroundColor #eeeeee
ActorFontColor Black

}

actor User
participant YourApp as App
participant "Riiiver\nSDK" as ERSDK
participant "Riiiver\nCloud" as Riiiver

activate App

App -> ERSDK: ERAuth.getInstance().initialize(Context context)
activate ERSDK

... ログイン済み ー iiideaは対象のERAppletクラスのインスタンス...

App -> App: ネットワーク状態の確認
alt ネットワークあり（圏内）
    App -> ERSDK: 認証セッションを更新\nERAuth.sharedInstance.getToken(\n\IERAuthGetTokenCallback callback\n)
    ERSDK -> Riiiver: ログイン処理
    ERSDK <- - Riiiver: Token
    alt 成功
    App <- - ERSDK: callback.onSuccess( ERAuthToken token )
        App -> App: tokenを保存\n(\n local.accessToken = token.accessToken\n local.idToken = idToken\n)
        note right: RiiiverSDKから認証情報の取得成功
    else else
    App <- - ERSDK: callback.onError( Exception error )
        ... ログイン処理からやり直し ...
    end
else ネットワークなし（圏外）
    App -> App: ネットワークエラー処理
    User <- App: 「ネットワークエラー」　
end

@enduml

PlantUML version 1.2021.2(Sun Mar 07 20:10:27 JST 2021)
(GPL source distribution)
Java Runtime: OpenJDK Runtime Environment
JVM: OpenJDK 64-Bit Server VM
Default Encoding: UTF-8
Language: ja
Country: JP
--></g></svg>