<?xml version="1.0" encoding="UTF-8" standalone="no"?>
<!DOCTYPE svg PUBLIC "-//W3C//DTD SVG 1.1//EN" "http://www.w3.org/Graphics/SVG/1.1/DTD/svg11.dtd">
<svg width="100%" height="100%" viewBox="0 0 1792 1287" version="1.1" xmlns="http://www.w3.org/2000/svg" xmlns:xlink="http://www.w3.org/1999/xlink" xml:space="preserve" xmlns:serif="http://www.serif.com/" style="fill-rule:evenodd;clip-rule:evenodd;stroke-linecap:round;stroke-linejoin:round;stroke-miterlimit:1.5;">
    <g transform="matrix(1,0,0,1,-269.257,-381.378)">
        <g transform="matrix(1.47876,0,0,1.7649,-146.863,-505.705)">
            <rect x="281.399" y="502.624" width="1211.33" height="729.041" style="fill:rgb(246,244,240);"/>
        </g>
        <g transform="matrix(1,0,0,1,424.928,-35.4995)">
            <path d="M853.861,595.913C853.861,582.667 843.107,571.913 829.861,571.913L608.146,571.913C594.9,571.913 584.146,582.667 584.146,595.913L584.146,818.202C584.146,831.448 594.9,842.202 608.146,842.202L829.861,842.202C843.107,842.202 853.861,831.448 853.861,818.202L853.861,595.913Z" style="fill:rgb(190,230,240);"/>
        </g>
        <g transform="matrix(1,0,0,1,-271.155,94.3387)">
            <path d="M853.861,595.913C853.861,582.667 843.107,571.913 829.861,571.913L608.146,571.913C594.9,571.913 584.146,582.667 584.146,595.913L584.146,818.202C584.146,831.448 594.9,842.202 608.146,842.202L829.861,842.202C843.107,842.202 853.861,831.448 853.861,818.202L853.861,595.913Z" style="fill:rgb(253,230,159);"/>
        </g>
        <g transform="matrix(1,0,0,1,-62.835,-78.5593)">
            <text x="382.527px" y="1063.49px" style="font-family:'HiraKakuProN-W3', 'Hiragino Kaku Gothic ProN', sans-serif;font-weight:300;font-size:37.5px;">サンプルアプリ</text>
        </g>
        <g transform="matrix(1,0,0,1,664.121,-204.936)">
            <text x="382.527px" y="1063.49px" style="font-family:'ArialMT', 'Arial', sans-serif;font-size:37.5px;">Riiiver SDK</text>
        </g>
        <g transform="matrix(1,0,0,1,1358.62,-596.036)">
            <text x="457.216px" y="1063.49px" style="font-family:'HiraKakuProN-W3', 'Hiragino Kaku Gothic ProN', sans-serif;font-weight:300;font-size:37.5px;">外部</text>
            <text x="381.501px" y="1119.74px" style="font-family:'ArialMT', 'Arial', sans-serif;font-size:37.5px;">W<tspan x="416.218px 437.074px " y="1119.74px 1119.74px ">eb</tspan></text>
            <text x="457.93px" y="1119.74px" style="font-family:'HiraKakuProN-W3', 'Hiragino Kaku Gothic ProN', sans-serif;font-weight:300;font-size:37.5px;">ブラウザ</text>
        </g>
        <g transform="matrix(0.742057,0,0,0.813052,527.879,129.997)">
            <rect x="1584.15" y="496.519" width="404.454" height="587.991" style="fill:white;stroke:rgb(56,56,56);stroke-width:1.28px;"/>
        </g>
        <g transform="matrix(0.742057,0,0,0.854738,-522.859,700.047)">
            <rect x="1584.15" y="496.519" width="404.454" height="587.991" style="fill:rgb(253,230,159);stroke:rgb(56,56,56);stroke-width:1.25px;"/>
        </g>
        <g id="Close-Icon" serif:id="Close Icon" transform="matrix(1.79042,0,0,1.79042,-800.428,-4710.82)">
            <path d="M966.543,3271.55L960.117,3277.97L966.543,3284.4C967.135,3284.99 967.135,3285.95 966.543,3286.54C965.952,3287.14 964.993,3287.14 964.401,3286.54L957.975,3280.12L951.548,3286.54C950.956,3287.14 949.997,3287.14 949.406,3286.54C948.814,3285.95 948.814,3284.99 949.406,3284.4L955.832,3277.97L949.406,3271.55C948.814,3270.96 948.814,3270 949.406,3269.41C949.997,3268.82 950.956,3268.82 951.548,3269.41L957.975,3275.83L964.401,3269.41C964.993,3268.82 965.952,3268.82 966.543,3269.41C967.135,3270 967.135,3270.96 966.543,3271.55Z" style="fill:rgb(131,147,167);"/>
        </g>
        <g transform="matrix(0.681909,0,0,0.718741,-415.411,831.674)">
            <rect x="1584.15" y="496.519" width="404.454" height="587.991" style="fill:rgb(190,230,240);stroke:rgb(151,123,90);stroke-width:1.43px;"/>
        </g>
        <g transform="matrix(1,0,0,1,67.2491,1108.47)">
            <text x="605.911px" y="486.638px" style="font-family:'ArialMT', 'Arial', sans-serif;font-size:37.5px;">Preference</text>
            <text x="789.346px" y="486.638px" style="font-family:'HiraKakuProN-W3', 'Hiragino Kaku Gothic ProN', sans-serif;font-weight:300;font-size:37.5px;">画面</text>
        </g>
        <g transform="matrix(1,0,0,1,193.043,723.745)">
            <text x="530.395px" y="503.965px" style="font-family:'ArialMT', 'Arial', sans-serif;font-size:37.5px;fill:rgb(151,123,90);">W<tspan x="565.112px 585.967px 606.823px 631.158px 639.489px " y="503.965px 503.965px 503.965px 503.965px 503.965px ">ebVie</tspan>w</text>
        </g>
        <g transform="matrix(1,0,0,1,231.404,660.97)">
            <text x="530.395px" y="503.965px" style="font-family:'ArialMT', 'Arial', sans-serif;font-size:37.5px;fill:rgb(151,123,90);">V<tspan x="554.73px 563.061px " y="503.965px 503.965px ">ie</tspan>w</text>
        </g>
        <g transform="matrix(1,0,0,1,1133.24,451.852)">
            <text x="628.826px" y="486.638px" style="font-family:'ArialMT', 'Arial', sans-serif;font-size:37.5px;">Riiiver</text>
            <text x="732.995px" y="486.638px" style="font-family:'HiraKakuProN-W3', 'Hiragino Kaku Gothic ProN', sans-serif;font-weight:300;font-size:37.5px;">への</text>
            <text x="605.911px" y="542.888px" style="font-family:'HiraKakuProN-W3', 'Hiragino Kaku Gothic ProN', sans-serif;font-weight:300;font-size:37.5px;">ログイン画面</text>
        </g>
        <g transform="matrix(0.742057,0,0,0.854738,-77.7948,700.047)">
            <rect x="1584.15" y="496.519" width="404.454" height="587.991" style="fill:rgb(253,230,159);stroke:rgb(56,56,56);stroke-width:1.25px;"/>
        </g>
        <g id="Close-Icon1" serif:id="Close Icon" transform="matrix(1.79042,0,0,1.79042,-355.365,-4710.82)">
            <path d="M966.543,3271.55L960.117,3277.97L966.543,3284.4C967.135,3284.99 967.135,3285.95 966.543,3286.54C965.952,3287.14 964.993,3287.14 964.401,3286.54L957.975,3280.12L951.548,3286.54C950.956,3287.14 949.997,3287.14 949.406,3286.54C948.814,3285.95 948.814,3284.99 949.406,3284.4L955.832,3277.97L949.406,3271.55C948.814,3270.96 948.814,3270 949.406,3269.41C949.997,3268.82 950.956,3268.82 951.548,3269.41L957.975,3275.83L964.401,3269.41C964.993,3268.82 965.952,3268.82 966.543,3269.41C967.135,3270 967.135,3270.96 966.543,3271.55Z" style="fill:rgb(131,147,167);"/>
        </g>
        <g transform="matrix(0.681909,0,0,0.718741,29.6528,831.674)">
            <rect x="1584.15" y="496.519" width="404.454" height="587.991" style="fill:rgb(190,230,240);stroke:rgb(151,123,90);stroke-width:1.43px;"/>
        </g>
        <g transform="matrix(1,0,0,1,638.107,723.745)">
            <text x="530.395px" y="503.965px" style="font-family:'ArialMT', 'Arial', sans-serif;font-size:37.5px;fill:rgb(151,123,90);">W<tspan x="565.112px 585.967px 606.823px 631.158px 639.489px " y="503.965px 503.965px 503.965px 503.965px 503.965px ">ebVie</tspan>w</text>
        </g>
        <g transform="matrix(1,0,0,1,676.468,660.97)">
            <text x="530.395px" y="503.965px" style="font-family:'ArialMT', 'Arial', sans-serif;font-size:37.5px;fill:rgb(151,123,90);">V<tspan x="554.73px 563.061px " y="503.965px 503.965px ">ie</tspan>w</text>
        </g>
        <g transform="matrix(1,0,0,1,527.777,1053.35)">
            <text x="643.411px" y="486.638px" style="font-family:'HiraKakuProN-W3', 'Hiragino Kaku Gothic ProN', sans-serif;font-weight:300;font-size:37.5px;">ユーザー</text>
            <text x="605.911px" y="542.888px" style="font-family:'HiraKakuProN-W3', 'Hiragino Kaku Gothic ProN', sans-serif;font-weight:300;font-size:37.5px;">プロフィール</text>
        </g>
        <g transform="matrix(1.14129,0.330269,0.18356,1.45836,-267.927,-620.854)">
            <g transform="matrix(0.909325,-0.205931,-0.114454,0.71162,373.765,602.585)">
                <path d="M460.925,752.166L455.958,767.965L440.16,762.997" style="fill:none;stroke:rgb(151,123,90);stroke-width:2.71px;stroke-linejoin:miter;stroke-miterlimit:10;"/>
                <path d="M354.534,573.511C354.534,573.511 445.952,748.781 455.958,767.965" style="fill:none;stroke:rgb(151,123,90);stroke-width:2.71px;"/>
            </g>
        </g>
        <g transform="matrix(0.99722,-1.13482,2.14829,-0.00946636,-2002.62,1517.96)">
            <g transform="matrix(-0.00389806,0.467295,-0.884625,0.410636,996.597,594.912)">
                <path d="M680.27,322.918L694.47,331.44L685.949,345.64" style="fill:none;stroke:rgb(151,123,90);stroke-width:2.71px;stroke-linejoin:miter;stroke-miterlimit:10;"/>
                <path d="M371.334,412.196C371.334,412.196 668.164,338.014 694.47,331.44" style="fill:none;stroke:rgb(151,123,90);stroke-width:2.71px;"/>
            </g>
        </g>
        <g transform="matrix(2.13518,0.102192,2.71507,1.92153,-3246.82,-943.518)">
            <g transform="matrix(0.502314,-0.0267143,-0.709757,0.558166,825.823,645.583)">
                <path d="M841.585,759.74L846.856,775.439L831.157,780.711" style="fill:none;stroke:rgb(151,123,90);stroke-width:2.71px;stroke-linejoin:miter;stroke-miterlimit:10;"/>
                <path d="M376.084,541.346C376.084,541.346 815.896,760.044 846.856,775.439" style="fill:none;stroke:rgb(151,123,90);stroke-width:2.71px;"/>
            </g>
        </g>
        <path d="M1333.89,888.343L1620.25,1214.25" style="fill:none;"/>
        <g transform="matrix(1.02292,-0.123747,0.0104261,1.12625,-17.3873,-44.9788)">
            <g transform="matrix(0.976497,0.107294,-0.00903984,0.886913,276.053,408.896)">
                <path d="M667.601,854.729L644.142,864.669L634.201,841.211" style="fill:none;stroke:rgb(117,166,223);stroke-width:4.17px;stroke-linejoin:miter;stroke-miterlimit:10;"/>
                <path d="M787.938,509.389C787.938,509.389 657.525,831.603 644.142,864.669" style="fill:none;stroke:rgb(117,166,223);stroke-width:4.17px;"/>
            </g>
        </g>
        <g transform="matrix(0.639763,0.767688,-0.767434,0.640689,1078.65,-823.979)">
            <g transform="matrix(0.641305,-0.768426,0.768172,0.640378,406.852,1393.84)">
                <path d="M1369.73,395.719L1381.52,418.303L1358.93,430.095" style="fill:none;stroke:rgb(117,166,223);stroke-opacity:0.96;stroke-width:4.17px;stroke-linejoin:miter;stroke-miterlimit:10;"/>
                <path d="M1064.26,318.701C1064.26,318.701 1350.01,408.412 1381.52,418.303" style="fill:none;stroke:rgb(117,166,223);stroke-opacity:0.96;stroke-width:4.17px;stroke-dasharray:4.17,12.5,0,0;"/>
            </g>
        </g>
        <g transform="matrix(0.898793,0.359171,-0.426745,0.857256,382.514,-353.641)">
            <g transform="matrix(0.927997,-0.38881,0.46196,0.972962,234.447,759.182)">
                <path d="M1060.09,851.72L1048.19,874.248L1025.66,862.348" style="fill:none;stroke:rgb(117,166,223);stroke-width:4.17px;stroke-linejoin:miter;stroke-miterlimit:10;"/>
                <path d="M937.034,514.172C937.034,514.172 1037.76,840.474 1048.19,874.248" style="fill:none;stroke:rgb(117,166,223);stroke-width:4.17px;"/>
            </g>
        </g>
        <g transform="matrix(0.742057,0,0,0.854738,373.596,700.047)">
            <rect x="1584.15" y="496.519" width="404.454" height="587.991" style="fill:rgb(253,230,159);stroke:rgb(56,56,56);stroke-width:1.25px;"/>
        </g>
        <g id="Close-Icon2" serif:id="Close Icon" transform="matrix(1.79042,0,0,1.79042,96.026,-4710.82)">
            <path d="M966.543,3271.55L960.117,3277.97L966.543,3284.4C967.135,3284.99 967.135,3285.95 966.543,3286.54C965.952,3287.14 964.993,3287.14 964.401,3286.54L957.975,3280.12L951.548,3286.54C950.956,3287.14 949.997,3287.14 949.406,3286.54C948.814,3285.95 948.814,3284.99 949.406,3284.4L955.832,3277.97L949.406,3271.55C948.814,3270.96 948.814,3270 949.406,3269.41C949.997,3268.82 950.956,3268.82 951.548,3269.41L957.975,3275.83L964.401,3269.41C964.993,3268.82 965.952,3268.82 966.543,3269.41C967.135,3270 967.135,3270.96 966.543,3271.55Z" style="fill:rgb(131,147,167);"/>
        </g>
        <g transform="matrix(0.681909,0,0,0.718741,481.044,831.674)">
            <rect x="1584.15" y="496.519" width="404.454" height="587.991" style="fill:rgb(190,230,240);stroke:rgb(151,123,90);stroke-width:1.43px;"/>
        </g>
        <g transform="matrix(1,0,0,1,1090.2,723.745)">
            <text x="530.395px" y="503.965px" style="font-family:'ArialMT', 'Arial', sans-serif;font-size:37.5px;fill:rgb(151,123,90);">W<tspan x="565.112px 585.967px 606.823px 631.158px 639.489px " y="503.965px 503.965px 503.965px 503.965px 503.965px ">ebVie</tspan>w</text>
        </g>
        <g transform="matrix(1,0,0,1,1128.56,660.97)">
            <text x="530.395px" y="503.965px" style="font-family:'ArialMT', 'Arial', sans-serif;font-size:37.5px;fill:rgb(151,123,90);">V<tspan x="554.73px 563.061px " y="503.965px 503.965px ">ie</tspan>w</text>
        </g>
        <g transform="matrix(1,0,0,1,988.445,1110.35)">
            <text x="605.911px" y="486.638px" style="font-family:'ArialMT', 'Arial', sans-serif;font-size:37.5px;">iiidea</text>
            <text x="703.89px" y="486.638px" style="font-family:'HiraKakuProN-W3', 'Hiragino Kaku Gothic ProN', sans-serif;font-weight:300;font-size:37.5px;">ストア</text>
        </g>
        <g transform="matrix(0.257545,1.27679,-1.12817,-0.123178,1852.64,-741.074)">
            <g transform="matrix(-0.0874405,-0.906356,0.800855,0.182824,1037.37,1640.32)">
                <path d="M1326.79,840.377L1322.78,865.536L1297.62,861.523" style="fill:none;stroke:rgb(117,166,223);stroke-opacity:0.96;stroke-width:4.17px;stroke-linejoin:miter;stroke-miterlimit:10;"/>
                <path d="M1046.88,484.917C1046.88,484.917 1299.4,833.288 1322.78,865.536" style="fill:none;stroke:rgb(117,166,223);stroke-opacity:0.96;stroke-width:4.17px;"/>
            </g>
        </g>
        <g transform="matrix(3.72329,0.227824,5.6864,2.2533,-7026.08,-1388.88)">
            <g transform="matrix(0.317627,-0.0321143,-0.801559,0.524838,898.224,694.815)">
                <path d="M1311.43,754.277L1319.25,768.874L1304.65,776.695" style="fill:none;stroke:rgb(151,123,90);stroke-width:2.71px;stroke-linejoin:miter;stroke-miterlimit:10;"/>
                <path d="M384.353,486.295C384.353,486.295 1273.44,755.027 1319.25,768.874" style="fill:none;stroke:rgb(151,123,90);stroke-width:2.71px;"/>
            </g>
        </g>
        <g transform="matrix(1.07606,0.0862503,-0.0926225,1.15556,-0.0307598,-68.9371)">
            <g transform="matrix(0.923385,-0.068921,0.0740129,0.859858,281.985,368.647)">
                <path d="M355.659,351.796L330.779,346.311L336.263,321.431" style="fill:none;stroke:rgb(128,128,128);stroke-width:4.17px;stroke-linejoin:miter;stroke-miterlimit:10;"/>
                <path d="M1397.46,255.846C1397.46,255.846 1015.99,64.579 902.89,58.271C794.638,52.233 367.242,323.068 330.779,346.311" style="fill:none;stroke:rgb(128,128,128);stroke-width:4.17px;"/>
            </g>
        </g>
    </g>
</svg>
