<?xml version="1.0" encoding="UTF-8" standalone="no"?><svg xmlns="http://www.w3.org/2000/svg" xmlns:xlink="http://www.w3.org/1999/xlink" contentScriptType="application/ecmascript" contentStyleType="text/css" height="565px" preserveAspectRatio="none" style="width:586px;height:565px;background:#F2EEE6;" version="1.1" viewBox="0 0 586 565" width="586px" zoomAndPan="magnify"><defs/><g><text fill="#000000" font-family="Noto Sans JP, Helvetica, Arial, Liberation Sans" font-size="18" lengthAdjust="spacing" textLength="172" x="206.5" y="29.4023">iiidea一覧を取得する</text><rect fill="#FFFFFF" height="88.9316" style="stroke:#FFFFFF;stroke-width:1.0;" width="10" x="135.5" y="129.6875"/><line style="stroke:#222222;stroke-width:1.0;" x1="135.5" x2="135.5" y1="129.6875" y2="218.6191"/><line style="stroke:#222222;stroke-width:1.0;" x1="145.5" x2="145.5" y1="129.6875" y2="218.6191"/><line style="stroke:#222222;stroke-width:1.0;" x1="135.5" x2="145.5" y1="129.6875" y2="129.6875"/><rect fill="#FFFFFF" height="290.3711" style="stroke:#FFFFFF;stroke-width:1.0;" width="10" x="135.5" y="259.5742"/><line style="stroke:#222222;stroke-width:1.0;" x1="135.5" x2="135.5" y1="259.5742" y2="549.9453"/><line style="stroke:#222222;stroke-width:1.0;" x1="145.5" x2="145.5" y1="259.5742" y2="549.9453"/><line style="stroke:#222222;stroke-width:1.0;" x1="135.5" x2="145.5" y1="549.9453" y2="549.9453"/><rect fill="#F3F0F0" height="58.2656" style="stroke:#000000;stroke-width:2.0;" width="409" x="30" y="201.3086"/><rect fill="#F3F0F0" height="119.1973" style="stroke:#000000;stroke-width:2.0;" width="284" x="10" y="422.748"/><rect fill="#F3F0F0" height="57.2656" style="stroke:none;stroke-width:1.0;" width="284" x="10" y="484.6797"/><line style="stroke:#222222;stroke-width:1.0;" x1="38" x2="38" y1="119.6875" y2="218.6191"/><line style="stroke:#222222;stroke-width:1.0;stroke-dasharray:1.0,4.0;" x1="38" x2="38" y1="218.6191" y2="259.5742"/><line style="stroke:#222222;stroke-width:1.0;" x1="38" x2="38" y1="259.5742" y2="558.9453"/><line style="stroke:#222222;stroke-width:1.0;" x1="140" x2="140" y1="119.6875" y2="218.6191"/><line style="stroke:#222222;stroke-width:1.0;stroke-dasharray:1.0,4.0;" x1="140" x2="140" y1="218.6191" y2="259.5742"/><line style="stroke:#222222;stroke-width:1.0;" x1="140" x2="140" y1="259.5742" y2="558.9453"/><line style="stroke:#222222;stroke-width:1.0;" x1="402" x2="402" y1="119.6875" y2="218.6191"/><line style="stroke:#222222;stroke-width:1.0;stroke-dasharray:1.0,4.0;" x1="402" x2="402" y1="218.6191" y2="259.5742"/><line style="stroke:#222222;stroke-width:1.0;" x1="402" x2="402" y1="259.5742" y2="558.9453"/><line style="stroke:#222222;stroke-width:1.0;" x1="547" x2="547" y1="119.6875" y2="218.6191"/><line style="stroke:#222222;stroke-width:1.0;stroke-dasharray:1.0,4.0;" x1="547" x2="547" y1="218.6191" y2="259.5742"/><line style="stroke:#222222;stroke-width:1.0;" x1="547" x2="547" y1="259.5742" y2="558.9453"/><text fill="#000000" font-family="Noto Sans JP, Helvetica, Arial, Liberation Sans" font-size="14" lengthAdjust="spacing" textLength="31" x="20" y="116.7344">User</text><ellipse cx="38.5" cy="50.1992" fill="#EEEEEE" rx="8" ry="8" style="stroke:#000000;stroke-width:2.0;"/><path d="M38.5,58.1992 L38.5,85.1992 M25.5,66.1992 L51.5,66.1992 M38.5,85.1992 L25.5,100.1992 M38.5,85.1992 L51.5,100.1992 " fill="none" style="stroke:#000000;stroke-width:2.0;"/><rect fill="#FFFFFF" height="34.0215" style="stroke:#111111;stroke-width:1.5;" width="87" x="97" y="84.666"/><text fill="#111111" font-family="Noto Sans JP, Helvetica, Arial, Liberation Sans" font-size="17" lengthAdjust="spacing" textLength="73" x="104" y="108.1016">YourApp</text><rect fill="#FFFFFF" height="54.043" style="stroke:#111111;stroke-width:1.5;" width="65" x="370" y="64.6445"/><text fill="#111111" font-family="Noto Sans JP, Helvetica, Arial, Liberation Sans" font-size="17" lengthAdjust="spacing" textLength="51" x="377" y="88.0801">Riiiver</text><text fill="#111111" font-family="Noto Sans JP, Helvetica, Arial, Liberation Sans" font-size="17" lengthAdjust="spacing" textLength="33" x="386" y="108.1016">SDK</text><rect fill="#FFFFFF" height="54.043" style="stroke:#111111;stroke-width:1.5;" width="65" x="515" y="64.6445"/><text fill="#111111" font-family="Noto Sans JP, Helvetica, Arial, Liberation Sans" font-size="17" lengthAdjust="spacing" textLength="51" x="522" y="88.0801">Riiiver</text><text fill="#111111" font-family="Noto Sans JP, Helvetica, Arial, Liberation Sans" font-size="17" lengthAdjust="spacing" textLength="49" x="523" y="108.1016">Cloud</text><rect fill="#FFFFFF" height="88.9316" style="stroke:#FFFFFF;stroke-width:1.0;" width="10" x="135.5" y="129.6875"/><line style="stroke:#222222;stroke-width:1.0;" x1="135.5" x2="135.5" y1="129.6875" y2="218.6191"/><line style="stroke:#222222;stroke-width:1.0;" x1="145.5" x2="145.5" y1="129.6875" y2="218.6191"/><line style="stroke:#222222;stroke-width:1.0;" x1="135.5" x2="145.5" y1="129.6875" y2="129.6875"/><rect fill="#FFFFFF" height="290.3711" style="stroke:#FFFFFF;stroke-width:1.0;" width="10" x="135.5" y="259.5742"/><line style="stroke:#222222;stroke-width:1.0;" x1="135.5" x2="135.5" y1="259.5742" y2="549.9453"/><line style="stroke:#222222;stroke-width:1.0;" x1="145.5" x2="145.5" y1="259.5742" y2="549.9453"/><line style="stroke:#222222;stroke-width:1.0;" x1="135.5" x2="145.5" y1="549.9453" y2="549.9453"/><polygon fill="#444444" points="390.5,157.6533,400.5,161.6533,390.5,165.6533,394.5,161.6533" style="stroke:#444444;stroke-width:1.0;"/><line style="stroke:#444444;stroke-width:1.0;" x1="145.5" x2="396.5" y1="161.6533" y2="161.6533"/><text fill="#000000" font-family="Noto Sans JP, Helvetica, Arial, Liberation Sans" font-size="13" lengthAdjust="spacing" textLength="225" x="152.5" y="156.9111">ERAuth.sharedInstance.isLoggedIn()</text><path d="M18,134.6875 L18,174.6875 L130,174.6875 L130,144.6875 L120,134.6875 L18,134.6875 " fill="#F9B5AD" style="stroke:#A80036;stroke-width:1.0;"/><path d="M120,134.6875 L120,144.6875 L130,144.6875 L120,134.6875 " fill="#F9B5AD" style="stroke:#A80036;stroke-width:1.0;"/><text fill="#000000" font-family="Noto Sans JP, Helvetica, Arial, Liberation Sans" font-size="13" lengthAdjust="spacing" textLength="91" x="24" y="152.2559">ログイン済みか</text><text fill="#000000" font-family="Noto Sans JP, Helvetica, Arial, Liberation Sans" font-size="13" lengthAdjust="spacing" textLength="65" x="24" y="167.5664">確認する。</text><polygon fill="#444444" points="156.5,182.3086,146.5,186.3086,156.5,190.3086,152.5,186.3086" style="stroke:#444444;stroke-width:1.0;"/><line style="stroke:#444444;stroke-width:1.0;stroke-dasharray:2.0,2.0;" x1="150.5" x2="401.5" y1="186.3086" y2="186.3086"/><path d="M30,201.3086 L92,201.3086 L92,208.3086 L82,218.3086 L30,218.3086 L30,201.3086 " fill="#FFFFFF" style="stroke:#000000;stroke-width:1.0;"/><rect fill="none" height="58.2656" style="stroke:#000000;stroke-width:2.0;" width="409" x="30" y="201.3086"/><text fill="#000000" font-family="Noto Sans JP, Helvetica, Arial, Liberation Sans" font-size="13" font-weight="bold" lengthAdjust="spacing" textLength="17" x="45" y="214.877">alt</text><text fill="#000000" font-family="Noto Sans JP, Helvetica, Arial, Liberation Sans" font-size="11" font-weight="bold" lengthAdjust="spacing" textLength="327" x="107" y="213.9434">[ERAuth.sharedInstance.isLoggedIn() == false (未ログイン)]</text><text fill="#000000" font-family="Noto Sans JP, Helvetica, Arial, Liberation Sans" font-size="11" lengthAdjust="spacing" textLength="230" x="139" y="243.2539">ログイン処理 &lt;Riiiverへログインするを参照&gt;</text><polygon fill="#444444" points="390.5,329.8164,400.5,333.8164,390.5,337.8164,394.5,333.8164" style="stroke:#444444;stroke-width:1.0;"/><line style="stroke:#444444;stroke-width:1.0;" x1="145.5" x2="396.5" y1="333.8164" y2="333.8164"/><text fill="#000000" font-family="Noto Sans JP, Helvetica, Arial, Liberation Sans" font-size="13" lengthAdjust="spacing" textLength="233" x="152.5" y="283.1426">ERSDK.sharedInstance.getMyApplets(</text><text fill="#000000" font-family="Noto Sans JP, Helvetica, Arial, Liberation Sans" font-size="13" lengthAdjust="spacing" textLength="56" x="184.5" y="298.4531">deviceId:</text><text fill="#000000" font-family="Noto Sans JP, Helvetica, Arial, Liberation Sans" font-size="13" lengthAdjust="spacing" textLength="175" x="184.5" y="313.7637">completion&lt;apllets, error&gt;:</text><text fill="#000000" font-family="Noto Sans JP, Helvetica, Arial, Liberation Sans" font-size="13" lengthAdjust="spacing" textLength="4" x="152.5" y="329.0742">)</text><polygon fill="#444444" points="413.5,374.4375,403.5,378.4375,413.5,382.4375,409.5,378.4375" style="stroke:#444444;stroke-width:1.0;"/><polygon fill="#444444" points="535.5,374.4375,545.5,378.4375,535.5,382.4375,539.5,378.4375" style="stroke:#444444;stroke-width:1.0;"/><line style="stroke:#444444;stroke-width:1.0;" x1="407.5" x2="541.5" y1="378.4375" y2="378.4375"/><text fill="#000000" font-family="Noto Sans JP, Helvetica, Arial, Liberation Sans" font-size="13" lengthAdjust="spacing" textLength="121" x="419.5" y="358.3848">指定したdevice idの</text><text fill="#000000" font-family="Noto Sans JP, Helvetica, Arial, Liberation Sans" font-size="13" lengthAdjust="spacing" textLength="99" x="419.5" y="373.6953">iiidea一覧を取得</text><polygon fill="#444444" points="156.5,403.748,146.5,407.748,156.5,411.748,152.5,407.748" style="stroke:#444444;stroke-width:1.0;"/><line style="stroke:#444444;stroke-width:1.0;stroke-dasharray:2.0,2.0;" x1="150.5" x2="401.5" y1="407.748" y2="407.748"/><text fill="#000000" font-family="Noto Sans JP, Helvetica, Arial, Liberation Sans" font-size="13" lengthAdjust="spacing" textLength="159" x="162.5" y="403.0059">completion(apllets, error)</text><path d="M10,422.748 L72,422.748 L72,429.748 L62,439.748 L10,439.748 L10,422.748 " fill="#FFFFFF" style="stroke:#000000;stroke-width:1.0;"/><rect fill="none" height="119.1973" style="stroke:#000000;stroke-width:2.0;" width="284" x="10" y="422.748"/><text fill="#000000" font-family="Noto Sans JP, Helvetica, Arial, Liberation Sans" font-size="13" font-weight="bold" lengthAdjust="spacing" textLength="17" x="25" y="436.3164">alt</text><text fill="#000000" font-family="Noto Sans JP, Helvetica, Arial, Liberation Sans" font-size="11" font-weight="bold" lengthAdjust="spacing" textLength="202" x="87" y="435.3828">[completionのerrorがnil &lt;取得成功&gt;]</text><polygon fill="#444444" points="49.5,472.6797,39.5,476.6797,49.5,480.6797,45.5,476.6797" style="stroke:#444444;stroke-width:1.0;"/><line style="stroke:#444444;stroke-width:1.0;stroke-dasharray:2.0,2.0;" x1="43.5" x2="134.5" y1="476.6797" y2="476.6797"/><text fill="#000000" font-family="Noto Sans JP, Helvetica, Arial, Liberation Sans" font-size="13" lengthAdjust="spacing" textLength="73" x="55.5" y="456.627">iiidea一覧を</text><text fill="#000000" font-family="Noto Sans JP, Helvetica, Arial, Liberation Sans" font-size="13" lengthAdjust="spacing" textLength="52" x="55.5" y="471.9375">表示する</text><line style="stroke:#000000;stroke-width:1.0;stroke-dasharray:2.0,2.0;" x1="10" x2="294" y1="485.6797" y2="485.6797"/><text fill="#000000" font-family="Noto Sans JP, Helvetica, Arial, Liberation Sans" font-size="11" font-weight="bold" lengthAdjust="spacing" textLength="137" x="15" y="496.3145">[error != nil &lt;取得失敗&gt;]</text><line style="stroke:#444444;stroke-width:1.0;" x1="145.5" x2="187.5" y1="520.9453" y2="520.9453"/><line style="stroke:#444444;stroke-width:1.0;" x1="187.5" x2="187.5" y1="520.9453" y2="533.9453"/><line style="stroke:#444444;stroke-width:1.0;" x1="146.5" x2="187.5" y1="533.9453" y2="533.9453"/><polygon fill="#444444" points="156.5,529.9453,146.5,533.9453,156.5,537.9453,152.5,533.9453" style="stroke:#444444;stroke-width:1.0;"/><text fill="#000000" font-family="Noto Sans JP, Helvetica, Arial, Liberation Sans" font-size="13" lengthAdjust="spacing" textLength="65" x="152.5" y="516.2031">エラー処理</text><!--MD5=[d039dad4dc787d07325c2f28906049a8]
@startuml
title iiidea一覧を取得する
hide footbox

skinparam DefaultFontName "Noto Sans JP, Helvetica, Arial, Liberation Sans"
skinparam BackgroundColor #F2EEE6
skinparam Shadowing false
skinparam NoteBackgroundColor #F9B5AD
skinparam NodeBorderColor #F26767

skinparam sequence {
ArrowColor #444444
ActorBorderColor Black
LifeLineBorderColor #222222
LifeLineBackgroundColor White
BoxBorderColor #FFFFFF
BoxBackgroundColor #F2fEf6
GroupBackgroundColor #FFFFFF
GroupBodyBackgroundColor #F3F0F0

ParticipantBorderColor #111111
ParticipantBackgroundColor White
ParticipantFontSize 17
ParticipantFontColor #111111
BoundaryBorderColor Gray
ActorBackgroundColor #eeeeee
ActorFontColor Black

}

actor User
participant YourApp as App
participant "Riiiver\nSDK" as ERSDK
participant "Riiiver\nCloud" as Riiiver

activate App

App -> ERSDK: ERAuth.sharedInstance.isLoggedIn()
note left: ログイン済みか\n確認する。
ERSDK - -> App:

alt ERAuth.sharedInstance.isLoggedIn() == false (未ログイン)
    ... ログイン処理 <Riiiverへログインするを参照>                           ...
end

App -> ERSDK: ERSDK.sharedInstance.getMyApplets(\n\tdeviceId:\n\tcompletion<apllets, error>:\n)
ERSDK <-> Riiiver: 指定したdevice idの\niiidea一覧を取得
App <- - ERSDK: completion(apllets, error)
alt completionのerrorがnil <取得成功>
    User <- - App: iiidea一覧を\n表示する
else error != nil <取得失敗>
    App -> App: エラー処理
end

@enduml

PlantUML version 1.2021.2(Sun Mar 07 20:10:27 JST 2021)
(GPL source distribution)
Java Runtime: OpenJDK Runtime Environment
JVM: OpenJDK 64-Bit Server VM
Default Encoding: UTF-8
Language: ja
Country: JP
--></g></svg>