<?xml version="1.0" encoding="UTF-8" standalone="no"?><svg xmlns="http://www.w3.org/2000/svg" xmlns:xlink="http://www.w3.org/1999/xlink" contentScriptType="application/ecmascript" contentStyleType="text/css" height="665px" preserveAspectRatio="none" style="width:596px;height:665px;background:#F2EEE6;" version="1.1" viewBox="0 0 596 665" width="596px" zoomAndPan="magnify"><defs/><g><text fill="#000000" font-family="Noto Sans JP, Helvetica, Arial, Liberation Sans" font-size="18" lengthAdjust="spacing" textLength="172" x="211.5" y="29.4023">iiidea一覧を取得する</text><rect fill="#FFFFFF" height="147.5527" style="stroke:#FFFFFF;stroke-width:1.0;" width="10" x="135.5" y="129.6875"/><line style="stroke:#222222;stroke-width:1.0;" x1="135.5" x2="135.5" y1="129.6875" y2="277.2402"/><line style="stroke:#222222;stroke-width:1.0;" x1="145.5" x2="145.5" y1="129.6875" y2="277.2402"/><line style="stroke:#222222;stroke-width:1.0;" x1="135.5" x2="145.5" y1="129.6875" y2="129.6875"/><rect fill="#FFFFFF" height="7" style="stroke:#FFFFFF;stroke-width:1.0;" width="10" x="135.5" y="318.1953"/><line style="stroke:#222222;stroke-width:1.0;" x1="135.5" x2="135.5" y1="318.1953" y2="325.1953"/><line style="stroke:#222222;stroke-width:1.0;" x1="145.5" x2="145.5" y1="318.1953" y2="325.1953"/><rect fill="#FFFFFF" height="283.3711" style="stroke:#FFFFFF;stroke-width:1.0;" width="10" x="135.5" y="366.1504"/><line style="stroke:#222222;stroke-width:1.0;" x1="135.5" x2="135.5" y1="366.1504" y2="649.5215"/><line style="stroke:#222222;stroke-width:1.0;" x1="145.5" x2="145.5" y1="366.1504" y2="649.5215"/><line style="stroke:#222222;stroke-width:1.0;" x1="135.5" x2="145.5" y1="649.5215" y2="649.5215"/><rect fill="#FFFFFF" height="126.2422" style="stroke:#FFFFFF;stroke-width:1.0;" width="10" x="402.5" y="150.998"/><line style="stroke:#222222;stroke-width:1.0;" x1="402.5" x2="402.5" y1="150.998" y2="277.2402"/><line style="stroke:#222222;stroke-width:1.0;" x1="412.5" x2="412.5" y1="150.998" y2="277.2402"/><line style="stroke:#222222;stroke-width:1.0;" x1="402.5" x2="412.5" y1="150.998" y2="150.998"/><rect fill="#FFFFFF" height="7" style="stroke:#FFFFFF;stroke-width:1.0;" width="10" x="402.5" y="318.1953"/><line style="stroke:#222222;stroke-width:1.0;" x1="402.5" x2="402.5" y1="318.1953" y2="325.1953"/><line style="stroke:#222222;stroke-width:1.0;" x1="412.5" x2="412.5" y1="318.1953" y2="325.1953"/><rect fill="#FFFFFF" height="283.3711" style="stroke:#FFFFFF;stroke-width:1.0;" width="10" x="402.5" y="366.1504"/><line style="stroke:#222222;stroke-width:1.0;" x1="402.5" x2="402.5" y1="366.1504" y2="649.5215"/><line style="stroke:#222222;stroke-width:1.0;" x1="412.5" x2="412.5" y1="366.1504" y2="649.5215"/><line style="stroke:#222222;stroke-width:1.0;" x1="402.5" x2="412.5" y1="649.5215" y2="649.5215"/><rect fill="#F3F0F0" height="58.2656" style="stroke:#000000;stroke-width:2.0;" width="409" x="30" y="259.9297"/><rect fill="#F3F0F0" height="119.1973" style="stroke:#000000;stroke-width:2.0;" width="284" x="10" y="522.3242"/><rect fill="#F3F0F0" height="57.2656" style="stroke:none;stroke-width:1.0;" width="284" x="10" y="584.2559"/><line style="stroke:#222222;stroke-width:1.0;" x1="38" x2="38" y1="119.6875" y2="277.2402"/><line style="stroke:#222222;stroke-width:1.0;stroke-dasharray:1.0,4.0;" x1="38" x2="38" y1="277.2402" y2="318.1953"/><line style="stroke:#222222;stroke-width:1.0;" x1="38" x2="38" y1="318.1953" y2="325.1953"/><line style="stroke:#222222;stroke-width:1.0;stroke-dasharray:1.0,4.0;" x1="38" x2="38" y1="325.1953" y2="366.1504"/><line style="stroke:#222222;stroke-width:1.0;" x1="38" x2="38" y1="366.1504" y2="658.5215"/><line style="stroke:#222222;stroke-width:1.0;" x1="140" x2="140" y1="119.6875" y2="277.2402"/><line style="stroke:#222222;stroke-width:1.0;stroke-dasharray:1.0,4.0;" x1="140" x2="140" y1="277.2402" y2="318.1953"/><line style="stroke:#222222;stroke-width:1.0;" x1="140" x2="140" y1="318.1953" y2="325.1953"/><line style="stroke:#222222;stroke-width:1.0;stroke-dasharray:1.0,4.0;" x1="140" x2="140" y1="325.1953" y2="366.1504"/><line style="stroke:#222222;stroke-width:1.0;" x1="140" x2="140" y1="366.1504" y2="658.5215"/><line style="stroke:#222222;stroke-width:1.0;" x1="407" x2="407" y1="119.6875" y2="277.2402"/><line style="stroke:#222222;stroke-width:1.0;stroke-dasharray:1.0,4.0;" x1="407" x2="407" y1="277.2402" y2="318.1953"/><line style="stroke:#222222;stroke-width:1.0;" x1="407" x2="407" y1="318.1953" y2="325.1953"/><line style="stroke:#222222;stroke-width:1.0;stroke-dasharray:1.0,4.0;" x1="407" x2="407" y1="325.1953" y2="366.1504"/><line style="stroke:#222222;stroke-width:1.0;" x1="407" x2="407" y1="366.1504" y2="658.5215"/><line style="stroke:#222222;stroke-width:1.0;" x1="557" x2="557" y1="119.6875" y2="277.2402"/><line style="stroke:#222222;stroke-width:1.0;stroke-dasharray:1.0,4.0;" x1="557" x2="557" y1="277.2402" y2="318.1953"/><line style="stroke:#222222;stroke-width:1.0;" x1="557" x2="557" y1="318.1953" y2="325.1953"/><line style="stroke:#222222;stroke-width:1.0;stroke-dasharray:1.0,4.0;" x1="557" x2="557" y1="325.1953" y2="366.1504"/><line style="stroke:#222222;stroke-width:1.0;" x1="557" x2="557" y1="366.1504" y2="658.5215"/><text fill="#000000" font-family="Noto Sans JP, Helvetica, Arial, Liberation Sans" font-size="14" lengthAdjust="spacing" textLength="31" x="20" y="116.7344">User</text><ellipse cx="38.5" cy="50.1992" fill="#EEEEEE" rx="8" ry="8" style="stroke:#000000;stroke-width:2.0;"/><path d="M38.5,58.1992 L38.5,85.1992 M25.5,66.1992 L51.5,66.1992 M38.5,85.1992 L25.5,100.1992 M38.5,85.1992 L51.5,100.1992 " fill="none" style="stroke:#000000;stroke-width:2.0;"/><rect fill="#FFFFFF" height="34.0215" style="stroke:#111111;stroke-width:1.5;" width="87" x="97" y="84.666"/><text fill="#111111" font-family="Noto Sans JP, Helvetica, Arial, Liberation Sans" font-size="17" lengthAdjust="spacing" textLength="73" x="104" y="108.1016">YourApp</text><rect fill="#FFFFFF" height="54.043" style="stroke:#111111;stroke-width:1.5;" width="65" x="375" y="64.6445"/><text fill="#111111" font-family="Noto Sans JP, Helvetica, Arial, Liberation Sans" font-size="17" lengthAdjust="spacing" textLength="51" x="382" y="88.0801">Riiiver</text><text fill="#111111" font-family="Noto Sans JP, Helvetica, Arial, Liberation Sans" font-size="17" lengthAdjust="spacing" textLength="33" x="391" y="108.1016">SDK</text><rect fill="#FFFFFF" height="54.043" style="stroke:#111111;stroke-width:1.5;" width="65" x="525" y="64.6445"/><text fill="#111111" font-family="Noto Sans JP, Helvetica, Arial, Liberation Sans" font-size="17" lengthAdjust="spacing" textLength="51" x="532" y="88.0801">Riiiver</text><text fill="#111111" font-family="Noto Sans JP, Helvetica, Arial, Liberation Sans" font-size="17" lengthAdjust="spacing" textLength="49" x="533" y="108.1016">Cloud</text><rect fill="#FFFFFF" height="147.5527" style="stroke:#FFFFFF;stroke-width:1.0;" width="10" x="135.5" y="129.6875"/><line style="stroke:#222222;stroke-width:1.0;" x1="135.5" x2="135.5" y1="129.6875" y2="277.2402"/><line style="stroke:#222222;stroke-width:1.0;" x1="145.5" x2="145.5" y1="129.6875" y2="277.2402"/><line style="stroke:#222222;stroke-width:1.0;" x1="135.5" x2="145.5" y1="129.6875" y2="129.6875"/><rect fill="#FFFFFF" height="7" style="stroke:#FFFFFF;stroke-width:1.0;" width="10" x="135.5" y="318.1953"/><line style="stroke:#222222;stroke-width:1.0;" x1="135.5" x2="135.5" y1="318.1953" y2="325.1953"/><line style="stroke:#222222;stroke-width:1.0;" x1="145.5" x2="145.5" y1="318.1953" y2="325.1953"/><rect fill="#FFFFFF" height="283.3711" style="stroke:#FFFFFF;stroke-width:1.0;" width="10" x="135.5" y="366.1504"/><line style="stroke:#222222;stroke-width:1.0;" x1="135.5" x2="135.5" y1="366.1504" y2="649.5215"/><line style="stroke:#222222;stroke-width:1.0;" x1="145.5" x2="145.5" y1="366.1504" y2="649.5215"/><line style="stroke:#222222;stroke-width:1.0;" x1="135.5" x2="145.5" y1="649.5215" y2="649.5215"/><rect fill="#FFFFFF" height="126.2422" style="stroke:#FFFFFF;stroke-width:1.0;" width="10" x="402.5" y="150.998"/><line style="stroke:#222222;stroke-width:1.0;" x1="402.5" x2="402.5" y1="150.998" y2="277.2402"/><line style="stroke:#222222;stroke-width:1.0;" x1="412.5" x2="412.5" y1="150.998" y2="277.2402"/><line style="stroke:#222222;stroke-width:1.0;" x1="402.5" x2="412.5" y1="150.998" y2="150.998"/><rect fill="#FFFFFF" height="7" style="stroke:#FFFFFF;stroke-width:1.0;" width="10" x="402.5" y="318.1953"/><line style="stroke:#222222;stroke-width:1.0;" x1="402.5" x2="402.5" y1="318.1953" y2="325.1953"/><line style="stroke:#222222;stroke-width:1.0;" x1="412.5" x2="412.5" y1="318.1953" y2="325.1953"/><rect fill="#FFFFFF" height="283.3711" style="stroke:#FFFFFF;stroke-width:1.0;" width="10" x="402.5" y="366.1504"/><line style="stroke:#222222;stroke-width:1.0;" x1="402.5" x2="402.5" y1="366.1504" y2="649.5215"/><line style="stroke:#222222;stroke-width:1.0;" x1="412.5" x2="412.5" y1="366.1504" y2="649.5215"/><line style="stroke:#222222;stroke-width:1.0;" x1="402.5" x2="412.5" y1="649.5215" y2="649.5215"/><polygon fill="#444444" points="390.5,146.998,400.5,150.998,390.5,154.998,394.5,150.998" style="stroke:#444444;stroke-width:1.0;"/><line style="stroke:#444444;stroke-width:1.0;" x1="145.5" x2="396.5" y1="150.998" y2="150.998"/><text fill="#000000" font-family="Noto Sans JP, Helvetica, Arial, Liberation Sans" font-size="13" lengthAdjust="spacing" textLength="147" x="152.5" y="146.2559">ERSDK.sharedInstance()</text><polygon fill="#444444" points="156.5,176.3086,146.5,180.3086,156.5,184.3086,152.5,180.3086" style="stroke:#444444;stroke-width:1.0;"/><line style="stroke:#444444;stroke-width:1.0;stroke-dasharray:2.0,2.0;" x1="150.5" x2="401.5" y1="180.3086" y2="180.3086"/><text fill="#000000" font-family="Noto Sans JP, Helvetica, Arial, Liberation Sans" font-size="13" lengthAdjust="spacing" textLength="23" x="162.5" y="175.5664">sdk</text><polygon fill="#444444" points="390.5,216.2744,400.5,220.2744,390.5,224.2744,394.5,220.2744" style="stroke:#444444;stroke-width:1.0;"/><line style="stroke:#444444;stroke-width:1.0;" x1="145.5" x2="396.5" y1="220.2744" y2="220.2744"/><text fill="#000000" font-family="Noto Sans JP, Helvetica, Arial, Liberation Sans" font-size="13" lengthAdjust="spacing" textLength="225" x="152.5" y="215.5322">ERAuth.sharedInstance.isLoggedIn()</text><path d="M18,193.3086 L18,233.3086 L130,233.3086 L130,203.3086 L120,193.3086 L18,193.3086 " fill="#F9B5AD" style="stroke:#A80036;stroke-width:1.0;"/><path d="M120,193.3086 L120,203.3086 L130,203.3086 L120,193.3086 " fill="#F9B5AD" style="stroke:#A80036;stroke-width:1.0;"/><text fill="#000000" font-family="Noto Sans JP, Helvetica, Arial, Liberation Sans" font-size="13" lengthAdjust="spacing" textLength="91" x="24" y="210.877">ログイン済みか</text><text fill="#000000" font-family="Noto Sans JP, Helvetica, Arial, Liberation Sans" font-size="13" lengthAdjust="spacing" textLength="65" x="24" y="226.1875">確認する。</text><polygon fill="#444444" points="156.5,240.9297,146.5,244.9297,156.5,248.9297,152.5,244.9297" style="stroke:#444444;stroke-width:1.0;"/><line style="stroke:#444444;stroke-width:1.0;stroke-dasharray:2.0,2.0;" x1="150.5" x2="401.5" y1="244.9297" y2="244.9297"/><path d="M30,259.9297 L92,259.9297 L92,266.9297 L82,276.9297 L30,276.9297 L30,259.9297 " fill="#FFFFFF" style="stroke:#000000;stroke-width:1.0;"/><rect fill="none" height="58.2656" style="stroke:#000000;stroke-width:2.0;" width="409" x="30" y="259.9297"/><text fill="#000000" font-family="Noto Sans JP, Helvetica, Arial, Liberation Sans" font-size="13" font-weight="bold" lengthAdjust="spacing" textLength="17" x="45" y="273.498">alt</text><text fill="#000000" font-family="Noto Sans JP, Helvetica, Arial, Liberation Sans" font-size="11" font-weight="bold" lengthAdjust="spacing" textLength="327" x="107" y="272.5645">[ERAuth.sharedInstance.isLoggedIn() == false (未ログイン)]</text><text fill="#000000" font-family="Noto Sans JP, Helvetica, Arial, Liberation Sans" font-size="11" lengthAdjust="spacing" textLength="230" x="144" y="301.875">ログイン処理 &lt;Riiiverへログインするを参照&gt;</text><text fill="#000000" font-family="Noto Sans JP, Helvetica, Arial, Liberation Sans" font-size="11" lengthAdjust="spacing" textLength="252" x="172" y="349.8301">必要なiiideaのIDなどは(getMyAppletsで)取得済み</text><polygon fill="#444444" points="390.5,429.3926,400.5,433.3926,390.5,437.3926,394.5,433.3926" style="stroke:#444444;stroke-width:1.0;"/><line style="stroke:#444444;stroke-width:1.0;" x1="145.5" x2="396.5" y1="433.3926" y2="433.3926"/><text fill="#000000" font-family="Noto Sans JP, Helvetica, Arial, Liberation Sans" font-size="13" lengthAdjust="spacing" textLength="233" x="152.5" y="382.7188">ERSDK.sharedInstance.getMyApplets(</text><text fill="#000000" font-family="Noto Sans JP, Helvetica, Arial, Liberation Sans" font-size="13" lengthAdjust="spacing" textLength="56" x="184.5" y="398.0293">deviceId:</text><text fill="#000000" font-family="Noto Sans JP, Helvetica, Arial, Liberation Sans" font-size="13" lengthAdjust="spacing" textLength="175" x="184.5" y="413.3398">completion&lt;apllets, error&gt;:</text><text fill="#000000" font-family="Noto Sans JP, Helvetica, Arial, Liberation Sans" font-size="13" lengthAdjust="spacing" textLength="4" x="152.5" y="428.6504">)</text><polygon fill="#444444" points="423.5,474.0137,413.5,478.0137,423.5,482.0137,419.5,478.0137" style="stroke:#444444;stroke-width:1.0;"/><polygon fill="#444444" points="545.5,474.0137,555.5,478.0137,545.5,482.0137,549.5,478.0137" style="stroke:#444444;stroke-width:1.0;"/><line style="stroke:#444444;stroke-width:1.0;" x1="417.5" x2="551.5" y1="478.0137" y2="478.0137"/><text fill="#000000" font-family="Noto Sans JP, Helvetica, Arial, Liberation Sans" font-size="13" lengthAdjust="spacing" textLength="121" x="429.5" y="457.9609">指定したdevice idの</text><text fill="#000000" font-family="Noto Sans JP, Helvetica, Arial, Liberation Sans" font-size="13" lengthAdjust="spacing" textLength="99" x="429.5" y="473.2715">iiidea一覧を取得</text><polygon fill="#444444" points="156.5,503.3242,146.5,507.3242,156.5,511.3242,152.5,507.3242" style="stroke:#444444;stroke-width:1.0;"/><line style="stroke:#444444;stroke-width:1.0;stroke-dasharray:2.0,2.0;" x1="150.5" x2="401.5" y1="507.3242" y2="507.3242"/><text fill="#000000" font-family="Noto Sans JP, Helvetica, Arial, Liberation Sans" font-size="13" lengthAdjust="spacing" textLength="159" x="162.5" y="502.582">completion(apllets, error)</text><path d="M10,522.3242 L72,522.3242 L72,529.3242 L62,539.3242 L10,539.3242 L10,522.3242 " fill="#FFFFFF" style="stroke:#000000;stroke-width:1.0;"/><rect fill="none" height="119.1973" style="stroke:#000000;stroke-width:2.0;" width="284" x="10" y="522.3242"/><text fill="#000000" font-family="Noto Sans JP, Helvetica, Arial, Liberation Sans" font-size="13" font-weight="bold" lengthAdjust="spacing" textLength="17" x="25" y="535.8926">alt</text><text fill="#000000" font-family="Noto Sans JP, Helvetica, Arial, Liberation Sans" font-size="11" font-weight="bold" lengthAdjust="spacing" textLength="202" x="87" y="534.959">[completionのerrorがnil &lt;取得成功&gt;]</text><polygon fill="#444444" points="49.5,572.2559,39.5,576.2559,49.5,580.2559,45.5,576.2559" style="stroke:#444444;stroke-width:1.0;"/><line style="stroke:#444444;stroke-width:1.0;stroke-dasharray:2.0,2.0;" x1="43.5" x2="134.5" y1="576.2559" y2="576.2559"/><text fill="#000000" font-family="Noto Sans JP, Helvetica, Arial, Liberation Sans" font-size="13" lengthAdjust="spacing" textLength="73" x="55.5" y="556.2031">iiidea一覧を</text><text fill="#000000" font-family="Noto Sans JP, Helvetica, Arial, Liberation Sans" font-size="13" lengthAdjust="spacing" textLength="52" x="55.5" y="571.5137">表示する</text><line style="stroke:#000000;stroke-width:1.0;stroke-dasharray:2.0,2.0;" x1="10" x2="294" y1="585.2559" y2="585.2559"/><text fill="#000000" font-family="Noto Sans JP, Helvetica, Arial, Liberation Sans" font-size="11" font-weight="bold" lengthAdjust="spacing" textLength="137" x="15" y="595.8906">[error != nil &lt;取得失敗&gt;]</text><line style="stroke:#444444;stroke-width:1.0;" x1="145.5" x2="187.5" y1="620.5215" y2="620.5215"/><line style="stroke:#444444;stroke-width:1.0;" x1="187.5" x2="187.5" y1="620.5215" y2="633.5215"/><line style="stroke:#444444;stroke-width:1.0;" x1="146.5" x2="187.5" y1="633.5215" y2="633.5215"/><polygon fill="#444444" points="156.5,629.5215,146.5,633.5215,156.5,637.5215,152.5,633.5215" style="stroke:#444444;stroke-width:1.0;"/><text fill="#000000" font-family="Noto Sans JP, Helvetica, Arial, Liberation Sans" font-size="13" lengthAdjust="spacing" textLength="65" x="152.5" y="615.7793">エラー処理</text><!--MD5=[690f19212c131bdc4a314f138f74bb3a]
@startuml
title iiidea一覧を取得する
hide footbox

skinparam DefaultFontName "Noto Sans JP, Helvetica, Arial, Liberation Sans"
skinparam BackgroundColor #F2EEE6
skinparam Shadowing false
skinparam NoteBackgroundColor #F9B5AD
skinparam NodeBorderColor #F26767

skinparam sequence {
ArrowColor #444444
ActorBorderColor Black
LifeLineBorderColor #222222
LifeLineBackgroundColor White
BoxBorderColor #FFFFFF
BoxBackgroundColor #F2fEf6
GroupBackgroundColor #FFFFFF
GroupBodyBackgroundColor #F3F0F0

ParticipantBorderColor #111111
ParticipantBackgroundColor White
ParticipantFontSize 17
ParticipantFontColor #111111
BoundaryBorderColor Gray
ActorBackgroundColor #eeeeee
ActorFontColor Black

}

actor User
participant YourApp as App
participant "Riiiver\nSDK" as ERSDK
participant "Riiiver\nCloud" as Riiiver

activate App

App -> ERSDK: ERSDK.sharedInstance()
activate ERSDK
App <- - ERSDK: sdk

App -> ERSDK: ERAuth.sharedInstance.isLoggedIn()
note left: ログイン済みか\n確認する。
ERSDK - -> App:

alt ERAuth.sharedInstance.isLoggedIn() == false (未ログイン)
    ... ログイン処理 <Riiiverへログインするを参照>                           ...
end
... 必要なiiideaのIDなどは(getMyAppletsで)取得済み ...
App -> ERSDK: ERSDK.sharedInstance.getMyApplets(\n\tdeviceId:\n\tcompletion<apllets, error>:\n)
ERSDK <-> Riiiver: 指定したdevice idの\niiidea一覧を取得
App <- - ERSDK: completion(apllets, error)
alt completionのerrorがnil <取得成功>
    User <- - App: iiidea一覧を\n表示する
else error != nil <取得失敗>
    App -> App: エラー処理
end

@enduml

PlantUML version 1.2021.2(Sun Mar 07 20:10:27 JST 2021)
(GPL source distribution)
Java Runtime: OpenJDK Runtime Environment
JVM: OpenJDK 64-Bit Server VM
Default Encoding: UTF-8
Language: ja
Country: JP
--></g></svg>