<?xml version="1.0" encoding="UTF-8" standalone="no"?><svg xmlns="http://www.w3.org/2000/svg" xmlns:xlink="http://www.w3.org/1999/xlink" contentScriptType="application/ecmascript" contentStyleType="text/css" height="760px" preserveAspectRatio="none" style="width:770px;height:760px;background:#F2EEE6;" version="1.1" viewBox="0 0 770 760" width="770px" zoomAndPan="magnify"><defs/><g><text fill="#000000" font-family="Noto Sans JP, Helvetica, Arial, Liberation Sans" font-size="18" lengthAdjust="spacing" textLength="162" x="305.75" y="29.4023">認証情報を更新する</text><rect fill="#FFFFFF" height="58.6211" style="stroke:#FFFFFF;stroke-width:1.0;" width="10" x="218.5" y="129.6875"/><line style="stroke:#222222;stroke-width:1.0;" x1="218.5" x2="218.5" y1="129.6875" y2="188.3086"/><line style="stroke:#222222;stroke-width:1.0;" x1="228.5" x2="228.5" y1="129.6875" y2="188.3086"/><line style="stroke:#222222;stroke-width:1.0;" x1="218.5" x2="228.5" y1="129.6875" y2="129.6875"/><rect fill="#FFFFFF" height="372.6133" style="stroke:#FFFFFF;stroke-width:1.0;" width="10" x="218.5" y="229.2637"/><line style="stroke:#222222;stroke-width:1.0;" x1="218.5" x2="218.5" y1="229.2637" y2="601.877"/><line style="stroke:#222222;stroke-width:1.0;" x1="228.5" x2="228.5" y1="229.2637" y2="601.877"/><rect fill="#FFFFFF" height="101.5762" style="stroke:#FFFFFF;stroke-width:1.0;" width="10" x="218.5" y="642.832"/><line style="stroke:#222222;stroke-width:1.0;" x1="218.5" x2="218.5" y1="642.832" y2="744.4082"/><line style="stroke:#222222;stroke-width:1.0;" x1="228.5" x2="228.5" y1="642.832" y2="744.4082"/><line style="stroke:#222222;stroke-width:1.0;" x1="218.5" x2="228.5" y1="744.4082" y2="744.4082"/><rect fill="#FFFFFF" height="37.3105" style="stroke:#FFFFFF;stroke-width:1.0;" width="10" x="500.5" y="150.998"/><line style="stroke:#222222;stroke-width:1.0;" x1="500.5" x2="500.5" y1="150.998" y2="188.3086"/><line style="stroke:#222222;stroke-width:1.0;" x1="510.5" x2="510.5" y1="150.998" y2="188.3086"/><line style="stroke:#222222;stroke-width:1.0;" x1="500.5" x2="510.5" y1="150.998" y2="150.998"/><rect fill="#FFFFFF" height="372.6133" style="stroke:#FFFFFF;stroke-width:1.0;" width="10" x="500.5" y="229.2637"/><line style="stroke:#222222;stroke-width:1.0;" x1="500.5" x2="500.5" y1="229.2637" y2="601.877"/><line style="stroke:#222222;stroke-width:1.0;" x1="510.5" x2="510.5" y1="229.2637" y2="601.877"/><rect fill="#FFFFFF" height="101.5762" style="stroke:#FFFFFF;stroke-width:1.0;" width="10" x="500.5" y="642.832"/><line style="stroke:#222222;stroke-width:1.0;" x1="500.5" x2="500.5" y1="642.832" y2="744.4082"/><line style="stroke:#222222;stroke-width:1.0;" x1="510.5" x2="510.5" y1="642.832" y2="744.4082"/><line style="stroke:#222222;stroke-width:1.0;" x1="500.5" x2="510.5" y1="744.4082" y2="744.4082"/><rect fill="#F3F0F0" height="457.834" style="stroke:#000000;stroke-width:2.0;" width="753.5" x="10" y="278.5742"/><rect fill="#F3F0F0" height="176.7734" style="stroke:#000000;stroke-width:2.0;" width="583.5" x="170" y="466.0586"/><rect fill="#F3F0F0" height="55.9102" style="stroke:none;stroke-width:1.0;" width="583.5" x="170" y="586.9219"/><rect fill="#F3F0F0" height="86.5762" style="stroke:none;stroke-width:1.0;" width="753.5" x="10" y="649.832"/><line style="stroke:#222222;stroke-width:1.0;" x1="38" x2="38" y1="119.6875" y2="188.3086"/><line style="stroke:#222222;stroke-width:1.0;stroke-dasharray:1.0,4.0;" x1="38" x2="38" y1="188.3086" y2="229.2637"/><line style="stroke:#222222;stroke-width:1.0;" x1="38" x2="38" y1="229.2637" y2="601.877"/><line style="stroke:#222222;stroke-width:1.0;stroke-dasharray:1.0,4.0;" x1="38" x2="38" y1="601.877" y2="642.832"/><line style="stroke:#222222;stroke-width:1.0;" x1="38" x2="38" y1="642.832" y2="753.4082"/><line style="stroke:#222222;stroke-width:1.0;" x1="223" x2="223" y1="119.6875" y2="188.3086"/><line style="stroke:#222222;stroke-width:1.0;stroke-dasharray:1.0,4.0;" x1="223" x2="223" y1="188.3086" y2="229.2637"/><line style="stroke:#222222;stroke-width:1.0;" x1="223" x2="223" y1="229.2637" y2="601.877"/><line style="stroke:#222222;stroke-width:1.0;stroke-dasharray:1.0,4.0;" x1="223" x2="223" y1="601.877" y2="642.832"/><line style="stroke:#222222;stroke-width:1.0;" x1="223" x2="223" y1="642.832" y2="753.4082"/><line style="stroke:#222222;stroke-width:1.0;" x1="505" x2="505" y1="119.6875" y2="188.3086"/><line style="stroke:#222222;stroke-width:1.0;stroke-dasharray:1.0,4.0;" x1="505" x2="505" y1="188.3086" y2="229.2637"/><line style="stroke:#222222;stroke-width:1.0;" x1="505" x2="505" y1="229.2637" y2="601.877"/><line style="stroke:#222222;stroke-width:1.0;stroke-dasharray:1.0,4.0;" x1="505" x2="505" y1="601.877" y2="642.832"/><line style="stroke:#222222;stroke-width:1.0;" x1="505" x2="505" y1="642.832" y2="753.4082"/><line style="stroke:#222222;stroke-width:1.0;" x1="612" x2="612" y1="119.6875" y2="188.3086"/><line style="stroke:#222222;stroke-width:1.0;stroke-dasharray:1.0,4.0;" x1="612" x2="612" y1="188.3086" y2="229.2637"/><line style="stroke:#222222;stroke-width:1.0;" x1="612" x2="612" y1="229.2637" y2="601.877"/><line style="stroke:#222222;stroke-width:1.0;stroke-dasharray:1.0,4.0;" x1="612" x2="612" y1="601.877" y2="642.832"/><line style="stroke:#222222;stroke-width:1.0;" x1="612" x2="612" y1="642.832" y2="753.4082"/><text fill="#000000" font-family="Noto Sans JP, Helvetica, Arial, Liberation Sans" font-size="14" lengthAdjust="spacing" textLength="31" x="20" y="116.7344">User</text><ellipse cx="38.5" cy="50.1992" fill="#EEEEEE" rx="8" ry="8" style="stroke:#000000;stroke-width:2.0;"/><path d="M38.5,58.1992 L38.5,85.1992 M25.5,66.1992 L51.5,66.1992 M38.5,85.1992 L25.5,100.1992 M38.5,85.1992 L51.5,100.1992 " fill="none" style="stroke:#000000;stroke-width:2.0;"/><rect fill="#FFFFFF" height="34.0215" style="stroke:#111111;stroke-width:1.5;" width="87" x="180" y="84.666"/><text fill="#111111" font-family="Noto Sans JP, Helvetica, Arial, Liberation Sans" font-size="17" lengthAdjust="spacing" textLength="73" x="187" y="108.1016">YourApp</text><rect fill="#FFFFFF" height="54.043" style="stroke:#111111;stroke-width:1.5;" width="65" x="473" y="64.6445"/><text fill="#111111" font-family="Noto Sans JP, Helvetica, Arial, Liberation Sans" font-size="17" lengthAdjust="spacing" textLength="51" x="480" y="88.0801">Riiiver</text><text fill="#111111" font-family="Noto Sans JP, Helvetica, Arial, Liberation Sans" font-size="17" lengthAdjust="spacing" textLength="33" x="489" y="108.1016">SDK</text><rect fill="#FFFFFF" height="54.043" style="stroke:#111111;stroke-width:1.5;" width="65" x="580" y="64.6445"/><text fill="#111111" font-family="Noto Sans JP, Helvetica, Arial, Liberation Sans" font-size="17" lengthAdjust="spacing" textLength="51" x="587" y="88.0801">Riiiver</text><text fill="#111111" font-family="Noto Sans JP, Helvetica, Arial, Liberation Sans" font-size="17" lengthAdjust="spacing" textLength="49" x="588" y="108.1016">Cloud</text><rect fill="#FFFFFF" height="58.6211" style="stroke:#FFFFFF;stroke-width:1.0;" width="10" x="218.5" y="129.6875"/><line style="stroke:#222222;stroke-width:1.0;" x1="218.5" x2="218.5" y1="129.6875" y2="188.3086"/><line style="stroke:#222222;stroke-width:1.0;" x1="228.5" x2="228.5" y1="129.6875" y2="188.3086"/><line style="stroke:#222222;stroke-width:1.0;" x1="218.5" x2="228.5" y1="129.6875" y2="129.6875"/><rect fill="#FFFFFF" height="372.6133" style="stroke:#FFFFFF;stroke-width:1.0;" width="10" x="218.5" y="229.2637"/><line style="stroke:#222222;stroke-width:1.0;" x1="218.5" x2="218.5" y1="229.2637" y2="601.877"/><line style="stroke:#222222;stroke-width:1.0;" x1="228.5" x2="228.5" y1="229.2637" y2="601.877"/><rect fill="#FFFFFF" height="101.5762" style="stroke:#FFFFFF;stroke-width:1.0;" width="10" x="218.5" y="642.832"/><line style="stroke:#222222;stroke-width:1.0;" x1="218.5" x2="218.5" y1="642.832" y2="744.4082"/><line style="stroke:#222222;stroke-width:1.0;" x1="228.5" x2="228.5" y1="642.832" y2="744.4082"/><line style="stroke:#222222;stroke-width:1.0;" x1="218.5" x2="228.5" y1="744.4082" y2="744.4082"/><rect fill="#FFFFFF" height="37.3105" style="stroke:#FFFFFF;stroke-width:1.0;" width="10" x="500.5" y="150.998"/><line style="stroke:#222222;stroke-width:1.0;" x1="500.5" x2="500.5" y1="150.998" y2="188.3086"/><line style="stroke:#222222;stroke-width:1.0;" x1="510.5" x2="510.5" y1="150.998" y2="188.3086"/><line style="stroke:#222222;stroke-width:1.0;" x1="500.5" x2="510.5" y1="150.998" y2="150.998"/><rect fill="#FFFFFF" height="372.6133" style="stroke:#FFFFFF;stroke-width:1.0;" width="10" x="500.5" y="229.2637"/><line style="stroke:#222222;stroke-width:1.0;" x1="500.5" x2="500.5" y1="229.2637" y2="601.877"/><line style="stroke:#222222;stroke-width:1.0;" x1="510.5" x2="510.5" y1="229.2637" y2="601.877"/><rect fill="#FFFFFF" height="101.5762" style="stroke:#FFFFFF;stroke-width:1.0;" width="10" x="500.5" y="642.832"/><line style="stroke:#222222;stroke-width:1.0;" x1="500.5" x2="500.5" y1="642.832" y2="744.4082"/><line style="stroke:#222222;stroke-width:1.0;" x1="510.5" x2="510.5" y1="642.832" y2="744.4082"/><line style="stroke:#222222;stroke-width:1.0;" x1="500.5" x2="510.5" y1="744.4082" y2="744.4082"/><polygon fill="#444444" points="488.5,146.998,498.5,150.998,488.5,154.998,492.5,150.998" style="stroke:#444444;stroke-width:1.0;"/><line style="stroke:#444444;stroke-width:1.0;" x1="228.5" x2="494.5" y1="150.998" y2="150.998"/><text fill="#000000" font-family="Noto Sans JP, Helvetica, Arial, Liberation Sans" font-size="13" lengthAdjust="spacing" textLength="147" x="235.5" y="146.2559">ERSDK.sharedInstance()</text><polygon fill="#444444" points="239.5,176.3086,229.5,180.3086,239.5,184.3086,235.5,180.3086" style="stroke:#444444;stroke-width:1.0;"/><line style="stroke:#444444;stroke-width:1.0;stroke-dasharray:2.0,2.0;" x1="233.5" x2="499.5" y1="180.3086" y2="180.3086"/><text fill="#000000" font-family="Noto Sans JP, Helvetica, Arial, Liberation Sans" font-size="13" lengthAdjust="spacing" textLength="23" x="245.5" y="175.5664">sdk</text><text fill="#000000" font-family="Noto Sans JP, Helvetica, Arial, Liberation Sans" font-size="11" lengthAdjust="spacing" textLength="313" x="170.5" y="212.9434">ログイン済み ー iiideaは対象のERAppletクラスのインスタンス</text><line style="stroke:#444444;stroke-width:1.0;" x1="228.5" x2="270.5" y1="250.5742" y2="250.5742"/><line style="stroke:#444444;stroke-width:1.0;" x1="270.5" x2="270.5" y1="250.5742" y2="263.5742"/><line style="stroke:#444444;stroke-width:1.0;" x1="229.5" x2="270.5" y1="263.5742" y2="263.5742"/><polygon fill="#444444" points="239.5,259.5742,229.5,263.5742,239.5,267.5742,235.5,263.5742" style="stroke:#444444;stroke-width:1.0;"/><text fill="#000000" font-family="Noto Sans JP, Helvetica, Arial, Liberation Sans" font-size="13" lengthAdjust="spacing" textLength="143" x="235.5" y="245.832">ネットワーク状態の確認</text><path d="M10,278.5742 L72,278.5742 L72,285.5742 L62,295.5742 L10,295.5742 L10,278.5742 " fill="#FFFFFF" style="stroke:#000000;stroke-width:1.0;"/><rect fill="none" height="457.834" style="stroke:#000000;stroke-width:2.0;" width="753.5" x="10" y="278.5742"/><text fill="#000000" font-family="Noto Sans JP, Helvetica, Arial, Liberation Sans" font-size="13" font-weight="bold" lengthAdjust="spacing" textLength="17" x="25" y="292.1426">alt</text><text fill="#000000" font-family="Noto Sans JP, Helvetica, Arial, Liberation Sans" font-size="11" font-weight="bold" lengthAdjust="spacing" textLength="140" x="87" y="291.209">[ネットワークあり（圏内）]</text><polygon fill="#444444" points="488.5,359.127,498.5,363.127,488.5,367.127,492.5,363.127" style="stroke:#444444;stroke-width:1.0;"/><line style="stroke:#444444;stroke-width:1.0;" x1="228.5" x2="494.5" y1="363.127" y2="363.127"/><text fill="#000000" font-family="Noto Sans JP, Helvetica, Arial, Liberation Sans" font-size="13" lengthAdjust="spacing" textLength="130" x="235.5" y="312.4531">認証セッションを更新</text><text fill="#000000" font-family="Noto Sans JP, Helvetica, Arial, Liberation Sans" font-size="13" lengthAdjust="spacing" textLength="211" x="235.5" y="327.7637">ERAuth.sharedInstance.getToken(</text><text fill="#000000" font-family="Noto Sans JP, Helvetica, Arial, Liberation Sans" font-size="13" lengthAdjust="spacing" textLength="120" x="267.5" y="343.0742">completionHandler</text><text fill="#000000" font-family="Noto Sans JP, Helvetica, Arial, Liberation Sans" font-size="13" lengthAdjust="spacing" textLength="4" x="235.5" y="358.3848">)</text><polygon fill="#444444" points="600.5,388.4375,610.5,392.4375,600.5,396.4375,604.5,392.4375" style="stroke:#444444;stroke-width:1.0;"/><line style="stroke:#444444;stroke-width:1.0;" x1="510.5" x2="606.5" y1="392.4375" y2="392.4375"/><text fill="#000000" font-family="Noto Sans JP, Helvetica, Arial, Liberation Sans" font-size="13" lengthAdjust="spacing" textLength="78" x="517.5" y="387.6953">ログイン処理</text><polygon fill="#444444" points="521.5,417.748,511.5,421.748,521.5,425.748,517.5,421.748" style="stroke:#444444;stroke-width:1.0;"/><line style="stroke:#444444;stroke-width:1.0;stroke-dasharray:2.0,2.0;" x1="515.5" x2="611.5" y1="421.748" y2="421.748"/><text fill="#000000" font-family="Noto Sans JP, Helvetica, Arial, Liberation Sans" font-size="13" lengthAdjust="spacing" textLength="39" x="527.5" y="417.0059">Token</text><polygon fill="#444444" points="239.5,447.0586,229.5,451.0586,239.5,455.0586,235.5,451.0586" style="stroke:#444444;stroke-width:1.0;"/><line style="stroke:#444444;stroke-width:1.0;stroke-dasharray:2.0,2.0;" x1="233.5" x2="499.5" y1="451.0586" y2="451.0586"/><text fill="#000000" font-family="Noto Sans JP, Helvetica, Arial, Liberation Sans" font-size="13" lengthAdjust="spacing" textLength="210" x="245.5" y="446.3164">completionHandler( error, token )</text><path d="M170,466.0586 L232,466.0586 L232,473.0586 L222,483.0586 L170,483.0586 L170,466.0586 " fill="#FFFFFF" style="stroke:#000000;stroke-width:1.0;"/><rect fill="none" height="176.7734" style="stroke:#000000;stroke-width:2.0;" width="583.5" x="170" y="466.0586"/><text fill="#000000" font-family="Noto Sans JP, Helvetica, Arial, Liberation Sans" font-size="13" font-weight="bold" lengthAdjust="spacing" textLength="17" x="185" y="479.627">alt</text><text fill="#000000" font-family="Noto Sans JP, Helvetica, Arial, Liberation Sans" font-size="11" font-weight="bold" lengthAdjust="spacing" textLength="221" x="247" y="478.6934">[token != nil(null) &amp;&amp; error != nil(null)]</text><line style="stroke:#444444;stroke-width:1.0;" x1="228.5" x2="270.5" y1="565.9219" y2="565.9219"/><line style="stroke:#444444;stroke-width:1.0;" x1="270.5" x2="270.5" y1="565.9219" y2="578.9219"/><line style="stroke:#444444;stroke-width:1.0;" x1="229.5" x2="270.5" y1="578.9219" y2="578.9219"/><polygon fill="#444444" points="239.5,574.9219,229.5,578.9219,239.5,582.9219,235.5,578.9219" style="stroke:#444444;stroke-width:1.0;"/><text fill="#000000" font-family="Noto Sans JP, Helvetica, Arial, Liberation Sans" font-size="13" lengthAdjust="spacing" textLength="75" x="235.5" y="499.9375">tokenを保存</text><text fill="#000000" font-family="Noto Sans JP, Helvetica, Arial, Liberation Sans" font-size="13" lengthAdjust="spacing" textLength="4" x="235.5" y="515.248">(</text><text fill="#000000" font-family="Noto Sans JP, Helvetica, Arial, Liberation Sans" font-size="13" lengthAdjust="spacing" textLength="254" x="239.5" y="530.5586">local.accessToken = token.accessToken</text><text fill="#000000" font-family="Noto Sans JP, Helvetica, Arial, Liberation Sans" font-size="13" lengthAdjust="spacing" textLength="154" x="239.5" y="545.8691">local.idToken = idToken</text><text fill="#000000" font-family="Noto Sans JP, Helvetica, Arial, Liberation Sans" font-size="13" lengthAdjust="spacing" textLength="4" x="235.5" y="561.1797">)</text><path d="M505,522.4902 L505,547.4902 L733,547.4902 L733,532.4902 L723,522.4902 L505,522.4902 " fill="#F9B5AD" style="stroke:#A80036;stroke-width:1.0;"/><path d="M723,522.4902 L723,532.4902 L733,532.4902 L723,522.4902 " fill="#F9B5AD" style="stroke:#A80036;stroke-width:1.0;"/><text fill="#000000" font-family="Noto Sans JP, Helvetica, Arial, Liberation Sans" font-size="13" lengthAdjust="spacing" textLength="207" x="511" y="540.0586">RiiiverSDKから認証情報の取得成功</text><line style="stroke:#000000;stroke-width:1.0;stroke-dasharray:2.0,2.0;" x1="170" x2="753.5" y1="587.9219" y2="587.9219"/><text fill="#000000" font-family="Noto Sans JP, Helvetica, Arial, Liberation Sans" font-size="11" font-weight="bold" lengthAdjust="spacing" textLength="30" x="175" y="598.5566">[else]</text><text fill="#000000" font-family="Noto Sans JP, Helvetica, Arial, Liberation Sans" font-size="11" lengthAdjust="spacing" textLength="132" x="259.5" y="626.5117">ログイン処理からやり直し</text><line style="stroke:#000000;stroke-width:1.0;stroke-dasharray:2.0,2.0;" x1="10" x2="763.5" y1="650.832" y2="650.832"/><text fill="#000000" font-family="Noto Sans JP, Helvetica, Arial, Liberation Sans" font-size="11" font-weight="bold" lengthAdjust="spacing" textLength="140" x="15" y="661.4668">[ネットワークなし（圏外）]</text><line style="stroke:#444444;stroke-width:1.0;" x1="228.5" x2="270.5" y1="686.0977" y2="686.0977"/><line style="stroke:#444444;stroke-width:1.0;" x1="270.5" x2="270.5" y1="686.0977" y2="699.0977"/><line style="stroke:#444444;stroke-width:1.0;" x1="229.5" x2="270.5" y1="699.0977" y2="699.0977"/><polygon fill="#444444" points="239.5,695.0977,229.5,699.0977,239.5,703.0977,235.5,699.0977" style="stroke:#444444;stroke-width:1.0;"/><text fill="#000000" font-family="Noto Sans JP, Helvetica, Arial, Liberation Sans" font-size="13" lengthAdjust="spacing" textLength="143" x="235.5" y="681.3555">ネットワークエラー処理</text><polygon fill="#444444" points="49.5,724.4082,39.5,728.4082,49.5,732.4082,45.5,728.4082" style="stroke:#444444;stroke-width:1.0;"/><line style="stroke:#444444;stroke-width:1.0;" x1="43.5" x2="217.5" y1="728.4082" y2="728.4082"/><text fill="#000000" font-family="Noto Sans JP, Helvetica, Arial, Liberation Sans" font-size="13" lengthAdjust="spacing" textLength="156" x="55.5" y="723.666">「ネットワークエラー」　</text><!--MD5=[8e343c9b806db654e5b2ed22725edc0f]
@startuml
title 認証情報を更新する
hide footbox

skinparam DefaultFontName "Noto Sans JP, Helvetica, Arial, Liberation Sans"
skinparam BackgroundColor #F2EEE6
skinparam Shadowing false
skinparam NoteBackgroundColor #F9B5AD
skinparam NodeBorderColor #F26767

skinparam sequence {
ArrowColor #444444
ActorBorderColor Black
LifeLineBorderColor #222222
LifeLineBackgroundColor White
BoxBorderColor #FFFFFF
BoxBackgroundColor #F2fEf6
GroupBackgroundColor #FFFFFF
GroupBodyBackgroundColor #F3F0F0

ParticipantBorderColor #111111
ParticipantBackgroundColor White
ParticipantFontSize 17
ParticipantFontColor #111111
BoundaryBorderColor Gray
ActorBackgroundColor #eeeeee
ActorFontColor Black

}

actor User
participant YourApp as App
participant "Riiiver\nSDK" as ERSDK
participant "Riiiver\nCloud" as Riiiver

activate App

App -> ERSDK: ERSDK.sharedInstance()
activate ERSDK
App <- - ERSDK: sdk

... ログイン済み ー iiideaは対象のERAppletクラスのインスタンス...

App -> App: ネットワーク状態の確認
alt ネットワークあり（圏内）
    App -> ERSDK: 認証セッションを更新\nERAuth.sharedInstance.getToken(\n\tcompletionHandler\n)
    ERSDK -> Riiiver: ログイン処理
    ERSDK <- - Riiiver: Token
    App <- - ERSDK: completionHandler( error, token )
    alt token != nil(null) && error != nil(null)
        App -> App: tokenを保存\n(\n local.accessToken = token.accessToken\n local.idToken = idToken\n)
        note right: RiiiverSDKから認証情報の取得成功
    else else
        ... ログイン処理からやり直し ...
    end
else ネットワークなし（圏外）
    App -> App: ネットワークエラー処理
    User <- App: 「ネットワークエラー」　
end

@enduml

PlantUML version 1.2021.2(Sun Mar 07 20:10:27 JST 2021)
(GPL source distribution)
Java Runtime: OpenJDK Runtime Environment
JVM: OpenJDK 64-Bit Server VM
Default Encoding: UTF-8
Language: ja
Country: JP
--></g></svg>